<svg xmlns="http://www.w3.org/2000/svg" width="695" height="258" viewBox="0 0 695 258" font-family="monospace" font-size="11">
<rect width="695" height="258" fill="#fbfbfb"/>
<text x="16" y="17" font-size="13" fill="#222">q · Considering the City2Surf results from 2015-2019, which year had the largest di…</text>
<text x="16" y="33" fill="#777">depthsearch · searches 6 · fetches 0 · expansion 0 · depth 1 · answered</text>
<circle cx="18" cy="49" r="5" fill="#8fb8de" stroke="#2f6fb0" stroke-width="2"/><text x="27" y="53" fill="#888" font-size="10">search</text><circle cx="77.6" cy="49" r="5" fill="#8fd6ab" stroke="#2e8b57" stroke-width="2"/><text x="86.6" y="53" fill="#888" font-size="10">fetch</text><circle cx="131.6" cy="49" r="5" fill="#f0c47a" stroke="#d08a2c" stroke-width="2"/><text x="140.6" y="53" fill="#888" font-size="10">expand d>=2</text><circle cx="219.2" cy="49" r="5" fill="#e2e2e2" stroke="#999999" stroke-width="2"/><text x="228.2" y="53" fill="#888" font-size="10">auto doc</text><circle cx="290" cy="49" r="5" fill="#fff" stroke="#c0392b" stroke-width="2"/><text x="299" y="53" fill="#888" font-size="10">failed / refused</text>
<path d="M25 78 V225" fill="none" stroke="#c8c8c8" stroke-width="1"/>
<path d="M25 95 H42" fill="none" stroke="#c8c8c8" stroke-width="1"/>
<path d="M25 121 H42" fill="none" stroke="#c8c8c8" stroke-width="1"/>
<path d="M25 147 H42" fill="none" stroke="#c8c8c8" stroke-width="1"/>
<path d="M25 173 H42" fill="none" stroke="#c8c8c8" stroke-width="1"/>
<path d="M25 199 H42" fill="none" stroke="#c8c8c8" stroke-width="1"/>
<path d="M25 225 H42" fill="none" stroke="#c8c8c8" stroke-width="1"/>
<circle cx="25" cy="69" r="9" fill="#d9d9d9" stroke="#666666" stroke-width="2"/>
<text x="42" y="73" fill="#333">Considering the City2Surf results from 2015-2019, which yea…</text>
<circle cx="51" cy="95" r="9" fill="#8fb8de" stroke="#c0392b" stroke-width="3"/>
<text x="68" y="99" fill="#333">City2Surf 2015 30-39 first place man</text>
<text x="301" y="99" fill="#999" font-size="10">[실패]</text>
<circle cx="51" cy="121" r="9" fill="#8fb8de" stroke="#c0392b" stroke-width="3"/>
<text x="68" y="125" fill="#333">City2Surf 2015 30-39 age group result</text>
<text x="307" y="125" fill="#999" font-size="10">[실패]</text>
<circle cx="51" cy="147" r="9" fill="#8fb8de" stroke="#c0392b" stroke-width="3"/>
<text x="68" y="151" fill="#333">City2Surf 2015 age group 30-39</text>
<text x="264" y="151" fill="#999" font-size="10">[실패]</text>
<circle cx="51" cy="173" r="9" fill="#8fb8de" stroke="#c0392b" stroke-width="3"/>
<text x="68" y="177" fill="#333">City2Surf results 2015</text>
<text x="214" y="177" fill="#999" font-size="10">[실패]</text>
<circle cx="51" cy="199" r="9" fill="#8fb8de" stroke="#c0392b" stroke-width="3"/>
<text x="68" y="203" fill="#333">City2Surf 2015 results 30-39</text>
<text x="252" y="203" fill="#999" font-size="10">[실패]</text>
<circle cx="51" cy="225" r="9" fill="#8fb8de" stroke="#c0392b" stroke-width="3"/>
<text x="68" y="229" fill="#333">City2Surf 2015 30-39 age group</text>
<text x="264" y="229" fill="#999" font-size="10">[실패]</text>
</svg>