<svg xmlns="http://www.w3.org/2000/svg" width="695" height="804" viewBox="0 0 695 804" font-family="monospace" font-size="11">
<rect width="695" height="804" fill="#fbfbfb"/>
<text x="16" y="17" font-size="13" fill="#222">q · An individual wrote about their experience working as a software developer and …</text>
<text x="16" y="33" fill="#777">search-o1 · searches 10 · fetches 0 · expansion 0 · depth 1 · answered</text>
<circle cx="18" cy="49" r="5" fill="#8fb8de" stroke="#2f6fb0" stroke-width="2"/><text x="27" y="53" fill="#888" font-size="10">search</text><circle cx="77.6" cy="49" r="5" fill="#8fd6ab" stroke="#2e8b57" stroke-width="2"/><text x="86.6" y="53" fill="#888" font-size="10">fetch</text><circle cx="131.6" cy="49" r="5" fill="#f0c47a" stroke="#d08a2c" stroke-width="2"/><text x="140.6" y="53" fill="#888" font-size="10">expand d>=2</text><circle cx="219.2" cy="49" r="5" fill="#e2e2e2" stroke="#999999" stroke-width="2"/><text x="228.2" y="53" fill="#888" font-size="10">auto doc</text><circle cx="290" cy="49" r="5" fill="#fff" stroke="#c0392b" stroke-width="2"/><text x="299" y="53" fill="#888" font-size="10">failed / refused</text>
<path d="M25 78 V771" fill="none" stroke="#c8c8c8" stroke-width="1"/>
<path d="M25 95 H42" fill="none" stroke="#c8c8c8" stroke-width="1"/>
<path d="M25 303 H42" fill="none" stroke="#c8c8c8" stroke-width="1"/>
<path d="M25 329 H42" fill="none" stroke="#c8c8c8" stroke-width="1"/>
<path d="M25 355 H42" fill="none" stroke="#c8c8c8" stroke-width="1"/>
<path d="M25 381 H42" fill="none" stroke="#c8c8c8" stroke-width="1"/>
<path d="M25 407 H42" fill="none" stroke="#c8c8c8" stroke-width="1"/>
<path d="M25 485 H42" fill="none" stroke="#c8c8c8" stroke-width="1"/>
<path d="M25 667 H42" fill="none" stroke="#c8c8c8" stroke-width="1"/>
<path d="M25 693 H42" fill="none" stroke="#c8c8c8" stroke-width="1"/>
<path d="M25 745 H42" fill="none" stroke="#c8c8c8" stroke-width="1"/>
<path d="M25 771 H42" fill="none" stroke="#c8c8c8" stroke-width="1"/>
<path d="M51 104 V277" fill="none" stroke="#c8c8c8" stroke-width="1"/>
<path d="M51 121 H68" fill="none" stroke="#c8c8c8" stroke-width="1"/>
<path d="M51 147 H68" fill="none" stroke="#c8c8c8" stroke-width="1"/>
<path d="M51 173 H68" fill="none" stroke="#c8c8c8" stroke-width="1"/>
<path d="M51 199 H68" fill="none" stroke="#c8c8c8" stroke-width="1"/>
<path d="M51 225 H68" fill="none" stroke="#c8c8c8" stroke-width="1"/>
<path d="M51 251 H68" fill="none" stroke="#c8c8c8" stroke-width="1"/>
<path d="M51 277 H68" fill="none" stroke="#c8c8c8" stroke-width="1"/>
<path d="M51 416 V459" fill="none" stroke="#c8c8c8" stroke-width="1"/>
<path d="M51 433 H68" fill="none" stroke="#c8c8c8" stroke-width="1"/>
<path d="M51 459 H68" fill="none" stroke="#c8c8c8" stroke-width="1"/>
<path d="M51 494 V641" fill="none" stroke="#c8c8c8" stroke-width="1"/>
<path d="M51 511 H68" fill="none" stroke="#c8c8c8" stroke-width="1"/>
<path d="M51 537 H68" fill="none" stroke="#c8c8c8" stroke-width="1"/>
<path d="M51 563 H68" fill="none" stroke="#c8c8c8" stroke-width="1"/>
<path d="M51 589 H68" fill="none" stroke="#c8c8c8" stroke-width="1"/>
<path d="M51 615 H68" fill="none" stroke="#c8c8c8" stroke-width="1"/>
<path d="M51 641 H68" fill="none" stroke="#c8c8c8" stroke-width="1"/>
<path d="M51 702 V719" fill="none" stroke="#c8c8c8" stroke-width="1"/>
<path d="M51 719 H68" fill="none" stroke="#c8c8c8" stroke-width="1"/>
<circle cx="25" cy="69" r="9" fill="#d9d9d9" stroke="#666666" stroke-width="2"/>
<text x="42" y="73" fill="#333">An individual wrote about their experience working as a sof…</text>
<circle cx="51" cy="95" r="9" fill="#8fb8de" stroke="#2f6fb0" stroke-width="2"/>
<text x="68" y="99" fill="#333">2021 article full-time tech position while st…</text>
<circle cx="77" cy="121" r="9" fill="#e2e2e2" stroke="#999999" stroke-width="2"/>
<text x="94" y="125" fill="#333">www.facebook.com/…/groups/1891225374484330/p</text>
<text x="377" y="125" fill="#999" font-size="10">[~]</text>
<circle cx="77" cy="147" r="9" fill="#e2e2e2" stroke="#999999" stroke-width="2"/>
<text x="94" y="151" fill="#333">www.lemon8-app.com/…/7423958780989702662?reg</text>
<text x="377" y="151" fill="#999" font-size="10">[~]</text>
<circle cx="77" cy="173" r="9" fill="#e2e2e2" stroke="#999999" stroke-width="2"/>
<text x="94" y="177" fill="#333">onlinegrad.syracuse.edu/blog/productivity/</text>
<text x="364" y="177" fill="#999" font-size="10">[~]</text>
<circle cx="77" cy="199" r="9" fill="#e2e2e2" stroke="#999999" stroke-width="2"/>
<text x="94" y="203" fill="#333">www.coursera.org/…/working-full-time-and-goi</text>
<text x="377" y="203" fill="#999" font-size="10">[~]</text>
<circle cx="77" cy="225" r="9" fill="#e2e2e2" stroke="#999999" stroke-width="2"/>
<text x="94" y="229" fill="#333">www.quora.com/…/How-can-I-manage-studying-a-</text>
<text x="377" y="229" fill="#999" font-size="10">[~]</text>
<circle cx="77" cy="251" r="9" fill="#e2e2e2" stroke="#999999" stroke-width="2"/>
<text x="94" y="255" fill="#333">www.instagram.com/reel/DZvFlkeJd7y/</text>
<text x="321" y="255" fill="#999" font-size="10">[~]</text>
<circle cx="77" cy="277" r="9" fill="#e2e2e2" stroke="#999999" stroke-width="2"/>
<text x="94" y="281" fill="#333">www.businessinsider.com/…/worked-out-every-m</text>
<text x="377" y="281" fill="#999" font-size="10">[~]</text>
<circle cx="51" cy="303" r="9" fill="#8fb8de" stroke="#2f6fb0" stroke-width="2"/>
<text x="68" y="307" fill="#333">"full-time" tech industry" while studying" ba…</text>
<circle cx="51" cy="329" r="9" fill="#8fb8de" stroke="#2f6fb0" stroke-width="2"/>
<text x="68" y="333" fill="#333">"same breakfast" "daily" "cartoons" "9pm" "sl…</text>
<circle cx="51" cy="355" r="9" fill="#8fb8de" stroke="#2f6fb0" stroke-width="2"/>
<text x="68" y="359" fill="#333">"full-time" "studying" "bachelor's" "tech" "2…</text>
<circle cx="51" cy="381" r="9" fill="#8fb8de" stroke="#2f6fb0" stroke-width="2"/>
<text x="68" y="385" fill="#333">"working full-time" "studying" "bachelor's" "…</text>
<circle cx="51" cy="407" r="9" fill="#8fb8de" stroke="#2f6fb0" stroke-width="2"/>
<text x="68" y="411" fill="#333">"exercise for 30" "same breakfast" "cartoons"…</text>
<circle cx="77" cy="433" r="9" fill="#e2e2e2" stroke="#999999" stroke-width="2"/>
<text x="94" y="437" fill="#333">voyageurexpress.fr/…/lab-chemistry-gymnastic</text>
<text x="377" y="437" fill="#999" font-size="10">[~]</text>
<circle cx="77" cy="459" r="9" fill="#e2e2e2" stroke="#999999" stroke-width="2"/>
<text x="94" y="463" fill="#333">nalamood.fr/…/auroras-australes-ofrecen-un-e</text>
<text x="377" y="463" fill="#999" font-size="10">[~]</text>
<circle cx="51" cy="485" r="9" fill="#8fb8de" stroke="#2f6fb0" stroke-width="2"/>
<text x="68" y="489" fill="#333">"full-time job" "studying for my bachelor's" …</text>
<circle cx="77" cy="511" r="9" fill="#e2e2e2" stroke="#999999" stroke-width="2"/>
<text x="94" y="515" fill="#333">www.linkedin.com/in/sophia-farr-2b87a99b</text>
<text x="352" y="515" fill="#999" font-size="10">[~]</text>
<circle cx="77" cy="537" r="9" fill="#e2e2e2" stroke="#999999" stroke-width="2"/>
<text x="94" y="541" fill="#333">www.facebook.com/…/BellevueUniversity/posts/</text>
<text x="377" y="541" fill="#999" font-size="10">[~]</text>
<circle cx="77" cy="563" r="9" fill="#e2e2e2" stroke="#999999" stroke-width="2"/>
<text x="94" y="567" fill="#333">www.facebook.com/…/100064101308984/posts/the</text>
<text x="377" y="567" fill="#999" font-size="10">[~]</text>
<circle cx="77" cy="589" r="9" fill="#e2e2e2" stroke="#999999" stroke-width="2"/>
<text x="94" y="593" fill="#333">www.euruni.edu/…/AS_2026_MS_Digital-2.pdf</text>
<text x="358" y="593" fill="#999" font-size="10">[~]</text>
<circle cx="77" cy="615" r="9" fill="#e2e2e2" stroke="#999999" stroke-width="2"/>
<text x="94" y="619" fill="#333">www.academia.edu/…/EBANO_Collective_rethinki</text>
<text x="377" y="619" fill="#999" font-size="10">[~]</text>
<circle cx="77" cy="641" r="9" fill="#e2e2e2" stroke="#999999" stroke-width="2"/>
<text x="94" y="645" fill="#333">www.linkedin.com/…/abdulrahim-issah-ba3a0b21</text>
<text x="377" y="645" fill="#999" font-size="10">[~]</text>
<circle cx="51" cy="667" r="9" fill="#8fb8de" stroke="#2f6fb0" stroke-width="2"/>
<text x="68" y="671" fill="#333">Medium 2021 "working full-time" "while studyi…</text>
<circle cx="51" cy="693" r="9" fill="#8fb8de" stroke="#2f6fb0" stroke-width="2"/>
<text x="68" y="697" fill="#333">"full-time" "tech industry" "while studying" …</text>
<circle cx="77" cy="719" r="9" fill="#e2e2e2" stroke="#999999" stroke-width="2"/>
<text x="94" y="723" fill="#333">2ghof9idjfsu.chateau-servayrie.fr/…/article?</text>
<text x="377" y="723" fill="#999" font-size="10">[~]</text>
<circle cx="51" cy="745" r="9" fill="#8fb8de" stroke="#2f6fb0" stroke-width="2"/>
<text x="68" y="749" fill="#333">"full-time" "tech industry" "while studying" …</text>
<circle cx="51" cy="771" r="9" fill="#8fb8de" stroke="#c0392b" stroke-width="3"/>
<text x="68" y="775" fill="#333">"cartoons" "after 9pm" "software developer" b…</text>
<text x="363" y="775" fill="#999" font-size="10">[예산 초과]</text>
</svg>