<svg xmlns="http://www.w3.org/2000/svg" width="695" height="570" viewBox="0 0 695 570" font-family="monospace" font-size="11">
<rect width="695" height="570" fill="#fbfbfb"/>
<text x="16" y="17" font-size="13" fill="#222">q · There is a TV show episode in which one of the main characters undergoes a shif…</text>
<text x="16" y="33" fill="#777">depthsearch · searches 9 · fetches 0 · expansion 0 · depth 1 · finalized</text>
<circle cx="18" cy="49" r="5" fill="#8fb8de" stroke="#2f6fb0" stroke-width="2"/><text x="27" y="53" fill="#888" font-size="10">search</text><circle cx="77.6" cy="49" r="5" fill="#8fd6ab" stroke="#2e8b57" stroke-width="2"/><text x="86.6" y="53" fill="#888" font-size="10">fetch</text><circle cx="131.6" cy="49" r="5" fill="#f0c47a" stroke="#d08a2c" stroke-width="2"/><text x="140.6" y="53" fill="#888" font-size="10">expand d>=2</text><circle cx="219.2" cy="49" r="5" fill="#e2e2e2" stroke="#999999" stroke-width="2"/><text x="228.2" y="53" fill="#888" font-size="10">auto doc</text><circle cx="290" cy="49" r="5" fill="#fff" stroke="#c0392b" stroke-width="2"/><text x="299" y="53" fill="#888" font-size="10">failed / refused</text>
<path d="M25 78 V459" fill="none" stroke="#c8c8c8" stroke-width="1"/>
<path d="M25 95 H42" fill="none" stroke="#c8c8c8" stroke-width="1"/>
<path d="M25 173 H42" fill="none" stroke="#c8c8c8" stroke-width="1"/>
<path d="M25 199 H42" fill="none" stroke="#c8c8c8" stroke-width="1"/>
<path d="M25 277 H42" fill="none" stroke="#c8c8c8" stroke-width="1"/>
<path d="M25 329 H42" fill="none" stroke="#c8c8c8" stroke-width="1"/>
<path d="M25 355 H42" fill="none" stroke="#c8c8c8" stroke-width="1"/>
<path d="M25 381 H42" fill="none" stroke="#c8c8c8" stroke-width="1"/>
<path d="M25 433 H42" fill="none" stroke="#c8c8c8" stroke-width="1"/>
<path d="M25 459 H42" fill="none" stroke="#c8c8c8" stroke-width="1"/>
<path d="M51 104 V147" fill="none" stroke="#c8c8c8" stroke-width="1"/>
<path d="M51 121 H68" fill="none" stroke="#c8c8c8" stroke-width="1"/>
<path d="M51 147 H68" fill="none" stroke="#c8c8c8" stroke-width="1"/>
<path d="M51 208 V251" fill="none" stroke="#c8c8c8" stroke-width="1"/>
<path d="M51 225 H68" fill="none" stroke="#c8c8c8" stroke-width="1"/>
<path d="M51 251 H68" fill="none" stroke="#c8c8c8" stroke-width="1"/>
<path d="M51 286 V303" fill="none" stroke="#c8c8c8" stroke-width="1"/>
<path d="M51 303 H68" fill="none" stroke="#c8c8c8" stroke-width="1"/>
<path d="M51 390 V407" fill="none" stroke="#c8c8c8" stroke-width="1"/>
<path d="M51 407 H68" fill="none" stroke="#c8c8c8" stroke-width="1"/>
<path d="M51 468 V537" fill="none" stroke="#c8c8c8" stroke-width="1"/>
<path d="M51 485 H68" fill="none" stroke="#c8c8c8" stroke-width="1"/>
<path d="M51 511 H68" fill="none" stroke="#c8c8c8" stroke-width="1"/>
<path d="M51 537 H68" fill="none" stroke="#c8c8c8" stroke-width="1"/>
<circle cx="25" cy="69" r="9" fill="#d9d9d9" stroke="#666666" stroke-width="2"/>
<text x="42" y="73" fill="#333">There is a TV show episode in which one of the main charact…</text>
<circle cx="51" cy="95" r="9" fill="#8fb8de" stroke="#2f6fb0" stroke-width="2"/>
<text x="68" y="99" fill="#333">episode reveals character was adopted private…</text>
<circle cx="77" cy="121" r="9" fill="#e2e2e2" stroke="#999999" stroke-width="2"/>
<text x="94" y="125" fill="#333">dr-myri-blog.blogspot.com/…/tientsin-mystic-</text>
<text x="377" y="125" fill="#999" font-size="10">[~]</text>
<circle cx="77" cy="147" r="9" fill="#e2e2e2" stroke="#999999" stroke-width="2"/>
<text x="94" y="151" fill="#333">yorkspace.library.yorku.ca/…/content</text>
<text x="327" y="151" fill="#999" font-size="10">[×]</text>
<circle cx="51" cy="173" r="9" fill="#8fb8de" stroke="#2f6fb0" stroke-width="2"/>
<text x="68" y="177" fill="#333">episode reveals she was adopted March 2016 "p…</text>
<circle cx="51" cy="199" r="9" fill="#8fb8de" stroke="#2f6fb0" stroke-width="2"/>
<text x="68" y="203" fill="#333">"reveals that she was adopted" TV episode Mar…</text>
<circle cx="77" cy="225" r="9" fill="#e2e2e2" stroke="#999999" stroke-width="2"/>
<text x="94" y="229" fill="#333">morbidlybeautiful.com/…/riverdale-season-3-e</text>
<text x="377" y="229" fill="#999" font-size="10">[~]</text>
<circle cx="77" cy="251" r="9" fill="#e2e2e2" stroke="#999999" stroke-width="2"/>
<text x="94" y="255" fill="#333">www.instagram.com/reel/DHygfvGPdX9/</text>
<text x="321" y="255" fill="#999" font-size="10">[×]</text>
<circle cx="51" cy="277" r="9" fill="#8fb8de" stroke="#2f6fb0" stroke-width="2"/>
<text x="68" y="281" fill="#333">"private room" "lover" episode "March" "adopt…</text>
<circle cx="77" cy="303" r="9" fill="#e2e2e2" stroke="#999999" stroke-width="2"/>
<text x="94" y="307" fill="#333">www.instagram.com/…/popular/private-room-lov</text>
<text x="377" y="307" fill="#999" font-size="10">[~]</text>
<circle cx="51" cy="329" r="9" fill="#8fb8de" stroke="#2f6fb0" stroke-width="2"/>
<text x="68" y="333" fill="#333">March 2017 "was adopted" "TV episode" "privat…</text>
<circle cx="51" cy="355" r="9" fill="#8fb8de" stroke="#2f6fb0" stroke-width="2"/>
<text x="68" y="359" fill="#333">"reveals that he was adopted" "private room" …</text>
<circle cx="51" cy="381" r="9" fill="#8fb8de" stroke="#2f6fb0" stroke-width="2"/>
<text x="68" y="385" fill="#333">"private room" "episode" "season" "love" "TV"</text>
<circle cx="77" cy="407" r="9" fill="#e2e2e2" stroke="#999999" stroke-width="2"/>
<text x="94" y="411" fill="#333">www.facebook.com/…/TJRibs/posts/tomorrow-nig</text>
<text x="377" y="411" fill="#999" font-size="10">[~]</text>
<circle cx="51" cy="433" r="9" fill="#8fb8de" stroke="#2f6fb0" stroke-width="2"/>
<text x="68" y="437" fill="#333">March 2016 episode reveals he was adopted "pr…</text>
<circle cx="51" cy="459" r="9" fill="#8fb8de" stroke="#2f6fb0" stroke-width="2"/>
<text x="68" y="463" fill="#333">"learns she was adopted" episode March 2017 tv</text>
<circle cx="77" cy="485" r="9" fill="#e2e2e2" stroke="#999999" stroke-width="2"/>
<text x="94" y="489" fill="#333">www.tvline.com/…/news/pilot-season-abc-cbs-c</text>
<text x="377" y="489" fill="#999" font-size="10">[~]</text>
<circle cx="77" cy="511" r="9" fill="#e2e2e2" stroke="#999999" stroke-width="2"/>
<text x="94" y="515" fill="#333">www.tvinsider.com/…/network/antenna-tv/sched</text>
<text x="377" y="515" fill="#999" font-size="10">[×]</text>
<circle cx="77" cy="537" r="9" fill="#e2e2e2" stroke="#999999" stroke-width="2"/>
<text x="94" y="541" fill="#333">www.ranker.com/…/molly-gander</text>
<text x="284" y="541" fill="#999" font-size="10">[~]</text>
</svg>