<svg xmlns="http://www.w3.org/2000/svg" width="695" height="3040" viewBox="0 0 695 3040" font-family="monospace" font-size="11">
<rect width="695" height="3040" fill="#fbfbfb"/>
<text x="16" y="17" font-size="13" fill="#222">q · A 2021 review was written for a historical strategy game that was released earl…</text>
<text x="16" y="33" fill="#777">jevtree · searches 10 · fetches 0 · expansion 47 · depth 3 · answered</text>
<circle cx="18" cy="49" r="5" fill="#8fb8de" stroke="#2f6fb0" stroke-width="2"/><text x="27" y="53" fill="#888" font-size="10">search</text><circle cx="77.6" cy="49" r="5" fill="#8fd6ab" stroke="#2e8b57" stroke-width="2"/><text x="86.6" y="53" fill="#888" font-size="10">fetch</text><circle cx="131.6" cy="49" r="5" fill="#f0c47a" stroke="#d08a2c" stroke-width="2"/><text x="140.6" y="53" fill="#888" font-size="10">expand d>=2</text><circle cx="219.2" cy="49" r="5" fill="#e2e2e2" stroke="#999999" stroke-width="2"/><text x="228.2" y="53" fill="#888" font-size="10">auto doc</text><circle cx="290" cy="49" r="5" fill="#fff" stroke="#c0392b" stroke-width="2"/><text x="299" y="53" fill="#888" font-size="10">failed / refused</text>
<path d="M25 78 V3007" fill="none" stroke="#c8c8c8" stroke-width="1"/>
<path d="M25 95 H42" fill="none" stroke="#c8c8c8" stroke-width="1"/>
<path d="M25 355 H42" fill="none" stroke="#c8c8c8" stroke-width="1"/>
<path d="M25 901 H42" fill="none" stroke="#c8c8c8" stroke-width="1"/>
<path d="M25 979 H42" fill="none" stroke="#c8c8c8" stroke-width="1"/>
<path d="M25 1031 H42" fill="none" stroke="#c8c8c8" stroke-width="1"/>
<path d="M25 1083 H42" fill="none" stroke="#c8c8c8" stroke-width="1"/>
<path d="M25 2617 H42" fill="none" stroke="#c8c8c8" stroke-width="1"/>
<path d="M25 2825 H42" fill="none" stroke="#c8c8c8" stroke-width="1"/>
<path d="M25 2877 H42" fill="none" stroke="#c8c8c8" stroke-width="1"/>
<path d="M25 2929 H42" fill="none" stroke="#c8c8c8" stroke-width="1"/>
<path d="M25 3007 H42" fill="none" stroke="#c8c8c8" stroke-width="1"/>
<path d="M51 104 V329" fill="none" stroke="#c8c8c8" stroke-width="1"/>
<path d="M51 121 H68" fill="none" stroke="#c8c8c8" stroke-width="1"/>
<path d="M51 147 H68" fill="none" stroke="#c8c8c8" stroke-width="1"/>
<path d="M51 277 H68" fill="none" stroke="#c8c8c8" stroke-width="1"/>
<path d="M51 303 H68" fill="none" stroke="#c8c8c8" stroke-width="1"/>
<path d="M51 329 H68" fill="none" stroke="#c8c8c8" stroke-width="1"/>
<path d="M77 156 V173" fill="none" stroke="#c8c8c8" stroke-width="1"/>
<path d="M77 173 H94" fill="none" stroke="#c8c8c8" stroke-width="1"/>
<path d="M103 182 V251" fill="none" stroke="#c8c8c8" stroke-width="1"/>
<path d="M103 199 H120" fill="none" stroke="#c8c8c8" stroke-width="1"/>
<path d="M103 225 H120" fill="none" stroke="#c8c8c8" stroke-width="1"/>
<path d="M103 251 H120" fill="none" stroke="#c8c8c8" stroke-width="1"/>
<path d="M51 364 V459" fill="none" stroke="#c8c8c8" stroke-width="1"/>
<path d="M51 381 H68" fill="none" stroke="#c8c8c8" stroke-width="1"/>
<path d="M51 407 H68" fill="none" stroke="#c8c8c8" stroke-width="1"/>
<path d="M51 433 H68" fill="none" stroke="#c8c8c8" stroke-width="1"/>
<path d="M51 459 H68" fill="none" stroke="#c8c8c8" stroke-width="1"/>
<path d="M77 468 V719" fill="none" stroke="#c8c8c8" stroke-width="1"/>
<path d="M77 485 H94" fill="none" stroke="#c8c8c8" stroke-width="1"/>
<path d="M77 589 H94" fill="none" stroke="#c8c8c8" stroke-width="1"/>
<path d="M77 719 H94" fill="none" stroke="#c8c8c8" stroke-width="1"/>
<path d="M103 494 V563" fill="none" stroke="#c8c8c8" stroke-width="1"/>
<path d="M103 511 H120" fill="none" stroke="#c8c8c8" stroke-width="1"/>
<path d="M103 537 H120" fill="none" stroke="#c8c8c8" stroke-width="1"/>
<path d="M103 563 H120" fill="none" stroke="#c8c8c8" stroke-width="1"/>
<path d="M103 598 V693" fill="none" stroke="#c8c8c8" stroke-width="1"/>
<path d="M103 615 H120" fill="none" stroke="#c8c8c8" stroke-width="1"/>
<path d="M103 641 H120" fill="none" stroke="#c8c8c8" stroke-width="1"/>
<path d="M103 667 H120" fill="none" stroke="#c8c8c8" stroke-width="1"/>
<path d="M103 693 H120" fill="none" stroke="#c8c8c8" stroke-width="1"/>
<path d="M103 728 V875" fill="none" stroke="#c8c8c8" stroke-width="1"/>
<path d="M103 745 H120" fill="none" stroke="#c8c8c8" stroke-width="1"/>
<path d="M103 771 H120" fill="none" stroke="#c8c8c8" stroke-width="1"/>
<path d="M103 797 H120" fill="none" stroke="#c8c8c8" stroke-width="1"/>
<path d="M103 823 H120" fill="none" stroke="#c8c8c8" stroke-width="1"/>
<path d="M103 849 H120" fill="none" stroke="#c8c8c8" stroke-width="1"/>
<path d="M103 875 H120" fill="none" stroke="#c8c8c8" stroke-width="1"/>
<path d="M51 910 V953" fill="none" stroke="#c8c8c8" stroke-width="1"/>
<path d="M51 927 H68" fill="none" stroke="#c8c8c8" stroke-width="1"/>
<path d="M51 953 H68" fill="none" stroke="#c8c8c8" stroke-width="1"/>
<path d="M51 988 V1005" fill="none" stroke="#c8c8c8" stroke-width="1"/>
<path d="M51 1005 H68" fill="none" stroke="#c8c8c8" stroke-width="1"/>
<path d="M51 1040 V1057" fill="none" stroke="#c8c8c8" stroke-width="1"/>
<path d="M51 1057 H68" fill="none" stroke="#c8c8c8" stroke-width="1"/>
<path d="M51 1092 V2097" fill="none" stroke="#c8c8c8" stroke-width="1"/>
<path d="M51 1109 H68" fill="none" stroke="#c8c8c8" stroke-width="1"/>
<path d="M51 1135 H68" fill="none" stroke="#c8c8c8" stroke-width="1"/>
<path d="M51 1551 H68" fill="none" stroke="#c8c8c8" stroke-width="1"/>
<path d="M51 2071 H68" fill="none" stroke="#c8c8c8" stroke-width="1"/>
<path d="M51 2097 H68" fill="none" stroke="#c8c8c8" stroke-width="1"/>
<path d="M77 1144 V1447" fill="none" stroke="#c8c8c8" stroke-width="1"/>
<path d="M77 1161 H94" fill="none" stroke="#c8c8c8" stroke-width="1"/>
<path d="M77 1291 H94" fill="none" stroke="#c8c8c8" stroke-width="1"/>
<path d="M77 1395 H94" fill="none" stroke="#c8c8c8" stroke-width="1"/>
<path d="M77 1421 H94" fill="none" stroke="#c8c8c8" stroke-width="1"/>
<path d="M77 1447 H94" fill="none" stroke="#c8c8c8" stroke-width="1"/>
<path d="M103 1170 V1265" fill="none" stroke="#c8c8c8" stroke-width="1"/>
<path d="M103 1187 H120" fill="none" stroke="#c8c8c8" stroke-width="1"/>
<path d="M103 1213 H120" fill="none" stroke="#c8c8c8" stroke-width="1"/>
<path d="M103 1239 H120" fill="none" stroke="#c8c8c8" stroke-width="1"/>
<path d="M103 1265 H120" fill="none" stroke="#c8c8c8" stroke-width="1"/>
<path d="M103 1300 V1369" fill="none" stroke="#c8c8c8" stroke-width="1"/>
<path d="M103 1317 H120" fill="none" stroke="#c8c8c8" stroke-width="1"/>
<path d="M103 1343 H120" fill="none" stroke="#c8c8c8" stroke-width="1"/>
<path d="M103 1369 H120" fill="none" stroke="#c8c8c8" stroke-width="1"/>
<path d="M103 1456 V1525" fill="none" stroke="#c8c8c8" stroke-width="1"/>
<path d="M103 1473 H120" fill="none" stroke="#c8c8c8" stroke-width="1"/>
<path d="M103 1499 H120" fill="none" stroke="#c8c8c8" stroke-width="1"/>
<path d="M103 1525 H120" fill="none" stroke="#c8c8c8" stroke-width="1"/>
<path d="M77 1560 V1941" fill="none" stroke="#c8c8c8" stroke-width="1"/>
<path d="M77 1577 H94" fill="none" stroke="#c8c8c8" stroke-width="1"/>
<path d="M77 1759 H94" fill="none" stroke="#c8c8c8" stroke-width="1"/>
<path d="M77 1915 H94" fill="none" stroke="#c8c8c8" stroke-width="1"/>
<path d="M77 1941 H94" fill="none" stroke="#c8c8c8" stroke-width="1"/>
<path d="M103 1586 V1733" fill="none" stroke="#c8c8c8" stroke-width="1"/>
<path d="M103 1603 H120" fill="none" stroke="#c8c8c8" stroke-width="1"/>
<path d="M103 1629 H120" fill="none" stroke="#c8c8c8" stroke-width="1"/>
<path d="M103 1655 H120" fill="none" stroke="#c8c8c8" stroke-width="1"/>
<path d="M103 1681 H120" fill="none" stroke="#c8c8c8" stroke-width="1"/>
<path d="M103 1707 H120" fill="none" stroke="#c8c8c8" stroke-width="1"/>
<path d="M103 1733 H120" fill="none" stroke="#c8c8c8" stroke-width="1"/>
<path d="M103 1768 V1889" fill="none" stroke="#c8c8c8" stroke-width="1"/>
<path d="M103 1785 H120" fill="none" stroke="#c8c8c8" stroke-width="1"/>
<path d="M103 1811 H120" fill="none" stroke="#c8c8c8" stroke-width="1"/>
<path d="M103 1837 H120" fill="none" stroke="#c8c8c8" stroke-width="1"/>
<path d="M103 1863 H120" fill="none" stroke="#c8c8c8" stroke-width="1"/>
<path d="M103 1889 H120" fill="none" stroke="#c8c8c8" stroke-width="1"/>
<path d="M103 1950 V2045" fill="none" stroke="#c8c8c8" stroke-width="1"/>
<path d="M103 1967 H120" fill="none" stroke="#c8c8c8" stroke-width="1"/>
<path d="M103 1993 H120" fill="none" stroke="#c8c8c8" stroke-width="1"/>
<path d="M103 2019 H120" fill="none" stroke="#c8c8c8" stroke-width="1"/>
<path d="M103 2045 H120" fill="none" stroke="#c8c8c8" stroke-width="1"/>
<path d="M77 2106 V2461" fill="none" stroke="#c8c8c8" stroke-width="1"/>
<path d="M77 2123 H94" fill="none" stroke="#c8c8c8" stroke-width="1"/>
<path d="M77 2305 H94" fill="none" stroke="#c8c8c8" stroke-width="1"/>
<path d="M77 2331 H94" fill="none" stroke="#c8c8c8" stroke-width="1"/>
<path d="M77 2435 H94" fill="none" stroke="#c8c8c8" stroke-width="1"/>
<path d="M77 2461 H94" fill="none" stroke="#c8c8c8" stroke-width="1"/>
<path d="M103 2132 V2279" fill="none" stroke="#c8c8c8" stroke-width="1"/>
<path d="M103 2149 H120" fill="none" stroke="#c8c8c8" stroke-width="1"/>
<path d="M103 2175 H120" fill="none" stroke="#c8c8c8" stroke-width="1"/>
<path d="M103 2201 H120" fill="none" stroke="#c8c8c8" stroke-width="1"/>
<path d="M103 2227 H120" fill="none" stroke="#c8c8c8" stroke-width="1"/>
<path d="M103 2253 H120" fill="none" stroke="#c8c8c8" stroke-width="1"/>
<path d="M103 2279 H120" fill="none" stroke="#c8c8c8" stroke-width="1"/>
<path d="M103 2340 V2409" fill="none" stroke="#c8c8c8" stroke-width="1"/>
<path d="M103 2357 H120" fill="none" stroke="#c8c8c8" stroke-width="1"/>
<path d="M103 2383 H120" fill="none" stroke="#c8c8c8" stroke-width="1"/>
<path d="M103 2409 H120" fill="none" stroke="#c8c8c8" stroke-width="1"/>
<path d="M103 2470 V2591" fill="none" stroke="#c8c8c8" stroke-width="1"/>
<path d="M103 2487 H120" fill="none" stroke="#c8c8c8" stroke-width="1"/>
<path d="M103 2513 H120" fill="none" stroke="#c8c8c8" stroke-width="1"/>
<path d="M103 2539 H120" fill="none" stroke="#c8c8c8" stroke-width="1"/>
<path d="M103 2565 H120" fill="none" stroke="#c8c8c8" stroke-width="1"/>
<path d="M103 2591 H120" fill="none" stroke="#c8c8c8" stroke-width="1"/>
<path d="M51 2626 V2799" fill="none" stroke="#c8c8c8" stroke-width="1"/>
<path d="M51 2643 H68" fill="none" stroke="#c8c8c8" stroke-width="1"/>
<path d="M51 2669 H68" fill="none" stroke="#c8c8c8" stroke-width="1"/>
<path d="M51 2695 H68" fill="none" stroke="#c8c8c8" stroke-width="1"/>
<path d="M51 2721 H68" fill="none" stroke="#c8c8c8" stroke-width="1"/>
<path d="M51 2747 H68" fill="none" stroke="#c8c8c8" stroke-width="1"/>
<path d="M51 2773 H68" fill="none" stroke="#c8c8c8" stroke-width="1"/>
<path d="M51 2799 H68" fill="none" stroke="#c8c8c8" stroke-width="1"/>
<path d="M51 2834 V2851" fill="none" stroke="#c8c8c8" stroke-width="1"/>
<path d="M51 2851 H68" fill="none" stroke="#c8c8c8" stroke-width="1"/>
<path d="M51 2886 V2903" fill="none" stroke="#c8c8c8" stroke-width="1"/>
<path d="M51 2903 H68" fill="none" stroke="#c8c8c8" stroke-width="1"/>
<path d="M51 2938 V2981" fill="none" stroke="#c8c8c8" stroke-width="1"/>
<path d="M51 2955 H68" fill="none" stroke="#c8c8c8" stroke-width="1"/>
<path d="M51 2981 H68" fill="none" stroke="#c8c8c8" stroke-width="1"/>
<circle cx="25" cy="69" r="9" fill="#d9d9d9" stroke="#666666" stroke-width="2"/>
<text x="42" y="73" fill="#333">A 2021 review was written for a historical strategy game th…</text>
<circle cx="51" cy="95" r="9" fill="#8fb8de" stroke="#2f6fb0" stroke-width="2"/>
<text x="68" y="99" fill="#333">2021 review criticized diplomacy mechanics "l…</text>
<circle cx="77" cy="121" r="9" fill="#e2e2e2" stroke="#999999" stroke-width="2"/>
<text x="94" y="125" fill="#333">search: 2021 review criticized diplomacy mec</text>
<circle cx="77" cy="147" r="9" fill="#f0c47a" stroke="#d08a2c" stroke-width="2"/>
<text x="94" y="151" fill="#333">misart.com.pl/…/tire-chushalita-cinema-shaya</text>
<text x="377" y="151" fill="#999" font-size="10">[d1 unread]</text>
<circle cx="103" cy="173" r="9" fill="#f0c47a" stroke="#d08a2c" stroke-width="2"/>
<text x="120" y="177" fill="#333">google.com/</text>
<text x="198" y="177" fill="#999" font-size="10">[d2 unread]</text>
<circle cx="129" cy="199" r="9" fill="#f0c47a" stroke="#d08a2c" stroke-width="2"/>
<text x="146" y="203" fill="#333">store.google.com/…/US?utm_source=hp_header&amp;u</text>
<text x="429" y="203" fill="#999" font-size="10">[d3 unread]</text>
<circle cx="129" cy="225" r="9" fill="#f0c47a" stroke="#d08a2c" stroke-width="2"/>
<text x="146" y="229" fill="#333">www.google.com/imghp?hl=en&amp;ogbl</text>
<text x="348" y="229" fill="#999" font-size="10">[d3 unread]</text>
<circle cx="129" cy="251" r="9" fill="#f0c47a" stroke="#d08a2c" stroke-width="2"/>
<text x="146" y="255" fill="#333">google.com/history/optout?hl=en&amp;fg=1</text>
<text x="379" y="255" fill="#999" font-size="10">[d3 unread]</text>
<circle cx="77" cy="277" r="9" fill="#f0c47a" stroke="#d08a2c" stroke-width="2"/>
<text x="94" y="281" fill="#333">sephora.com.pl/…/exqsotywpbud</text>
<text x="284" y="281" fill="#999" font-size="10">[d1 unread]</text>
<circle cx="77" cy="303" r="9" fill="#f0c47a" stroke="#c0392b" stroke-width="3"/>
<text x="94" y="307" fill="#333">stophetleed.nl/…/emn1z7td15gb</text>
<text x="284" y="307" fill="#999" font-size="10">[d1 ×]</text>
<circle cx="77" cy="329" r="9" fill="#f0c47a" stroke="#d08a2c" stroke-width="2"/>
<text x="94" y="333" fill="#333">lesmainsinvisibles.fr/…/lab-cloud</text>
<text x="309" y="333" fill="#999" font-size="10">[d1 unread]</text>
<circle cx="51" cy="355" r="9" fill="#8fb8de" stroke="#2f6fb0" stroke-width="2"/>
<text x="68" y="359" fill="#333">2021 review criticized diplomacy mechanics hi…</text>
<circle cx="77" cy="381" r="9" fill="#e2e2e2" stroke="#999999" stroke-width="2"/>
<text x="94" y="385" fill="#333">search: 2021 review criticized diplomacy mec</text>
<circle cx="77" cy="407" r="9" fill="#f0c47a" stroke="#c0392b" stroke-width="3"/>
<text x="94" y="411" fill="#333">www.youtube.com/watch?v=tTMd06DuyKk</text>
<text x="321" y="411" fill="#999" font-size="10">[d1 ×]</text>
<circle cx="77" cy="433" r="9" fill="#f0c47a" stroke="#c0392b" stroke-width="3"/>
<text x="94" y="437" fill="#333">www.youtube.com/watch?v=4WBhQKURKVE</text>
<text x="321" y="437" fill="#999" font-size="10">[d1 ×]</text>
<circle cx="77" cy="459" r="9" fill="#f0c47a" stroke="#d08a2c" stroke-width="2"/>
<text x="94" y="463" fill="#333">culturedvultures.com/…/best-strategy-games-2</text>
<text x="377" y="463" fill="#999" font-size="10">[d1 ~]</text>
<circle cx="103" cy="485" r="9" fill="#f0c47a" stroke="#d08a2c" stroke-width="2"/>
<text x="120" y="489" fill="#333">culturedvultures.com/old-world-pc-review/</text>
<text x="384" y="489" fill="#999" font-size="10">[d2 ~]</text>
<circle cx="129" cy="511" r="9" fill="#f0c47a" stroke="#d08a2c" stroke-width="2"/>
<text x="146" y="515" fill="#333">culturedvultures.com/…/old-world-family-guid</text>
<text x="429" y="515" fill="#999" font-size="10">[d3 ~]</text>
<circle cx="129" cy="537" r="9" fill="#f0c47a" stroke="#d08a2c" stroke-width="2"/>
<text x="146" y="541" fill="#333">culturedvultures.com/…/author/maxim-klose-iv</text>
<text x="429" y="541" fill="#999" font-size="10">[d3 ~]</text>
<circle cx="129" cy="563" r="9" fill="#f0c47a" stroke="#d08a2c" stroke-width="2"/>
<text x="146" y="567" fill="#333">facebook.com/theculturedvultures/</text>
<text x="361" y="567" fill="#999" font-size="10">[d3 unread]</text>
<circle cx="103" cy="589" r="9" fill="#f0c47a" stroke="#d08a2c" stroke-width="2"/>
<text x="120" y="593" fill="#333">culturedvultures.com/humankind-pc-review/</text>
<text x="384" y="593" fill="#999" font-size="10">[d2 ~]</text>
<circle cx="129" cy="615" r="9" fill="#f0c47a" stroke="#d08a2c" stroke-width="2"/>
<text x="146" y="619" fill="#333">culturedvultures.com/best-4x-strategy-games/</text>
<text x="429" y="619" fill="#999" font-size="10">[d3 ~]</text>
<circle cx="129" cy="641" r="9" fill="#f0c47a" stroke="#d08a2c" stroke-width="2"/>
<text x="146" y="645" fill="#333">culturedvultures.com/</text>
<text x="286" y="645" fill="#999" font-size="10">[d3 unread]</text>
<circle cx="129" cy="667" r="9" fill="#f0c47a" stroke="#c0392b" stroke-width="3"/>
<text x="146" y="671" fill="#333">twitter.com/CultVultures</text>
<text x="305" y="671" fill="#999" font-size="10">[d3 ×]</text>
<circle cx="129" cy="693" r="9" fill="#f0c47a" stroke="#d08a2c" stroke-width="2"/>
<text x="146" y="697" fill="#333">culturedvultures.com/gaming/pc-gaming-news/</text>
<text x="423" y="697" fill="#999" font-size="10">[d3 unread]</text>
<circle cx="103" cy="719" r="9" fill="#f0c47a" stroke="#d08a2c" stroke-width="2"/>
<text x="120" y="723" fill="#333">culturedvultures.com/gaming/game-reviews/</text>
<text x="384" y="723" fill="#999" font-size="10">[d2 unread]</text>
<circle cx="129" cy="745" r="9" fill="#f0c47a" stroke="#c0392b" stroke-width="3"/>
<text x="146" y="749" fill="#333">culturedvultures.com/…/?filtered=oldest</text>
<text x="398" y="749" fill="#999" font-size="10">[d3 ×]</text>
<circle cx="129" cy="771" r="9" fill="#f0c47a" stroke="#c0392b" stroke-width="3"/>
<text x="146" y="775" fill="#333">culturedvultures.com/…/?filtered=latest</text>
<text x="398" y="775" fill="#999" font-size="10">[d3 ×]</text>
<circle cx="129" cy="797" r="9" fill="#f0c47a" stroke="#c0392b" stroke-width="3"/>
<text x="146" y="801" fill="#333">culturedvultures.com/…/gaming/game-reviews/p</text>
<text x="429" y="801" fill="#999" font-size="10">[d3 ×]</text>
<circle cx="129" cy="823" r="9" fill="#f0c47a" stroke="#c0392b" stroke-width="3"/>
<text x="146" y="827" fill="#333">culturedvultures.com/…/?filtered=atoz</text>
<text x="385" y="827" fill="#999" font-size="10">[d3 ×]</text>
<circle cx="129" cy="849" r="9" fill="#f0c47a" stroke="#d08a2c" stroke-width="2"/>
<text x="146" y="853" fill="#333">culturedvultures.com/gaming/</text>
<text x="330" y="853" fill="#999" font-size="10">[d3 unread]</text>
<circle cx="129" cy="875" r="9" fill="#f0c47a" stroke="#c0392b" stroke-width="3"/>
<text x="146" y="879" fill="#333">culturedvultures.com/…/?filtered=random</text>
<text x="398" y="879" fill="#999" font-size="10">[d3 ×]</text>
<circle cx="51" cy="901" r="9" fill="#8fb8de" stroke="#2f6fb0" stroke-width="2"/>
<text x="68" y="905" fill="#333">Humankind lead designer interview university …</text>
<circle cx="77" cy="927" r="9" fill="#e2e2e2" stroke="#999999" stroke-width="2"/>
<text x="94" y="931" fill="#333">search: Humankind lead designer interview un</text>
<circle cx="77" cy="953" r="9" fill="#f0c47a" stroke="#c0392b" stroke-width="3"/>
<text x="94" y="957" fill="#333">wzp813-embed-src.ivocaruso.it/</text>
<text x="290" y="957" fill="#999" font-size="10">[d1 ×]</text>
<circle cx="51" cy="979" r="9" fill="#8fb8de" stroke="#2f6fb0" stroke-width="2"/>
<text x="68" y="983" fill="#333">Humankind lead designer interview recruiting …</text>
<circle cx="77" cy="1005" r="9" fill="#e2e2e2" stroke="#999999" stroke-width="2"/>
<text x="94" y="1009" fill="#333">search: Humankind lead designer interview re</text>
<circle cx="51" cy="1031" r="9" fill="#8fb8de" stroke="#2f6fb0" stroke-width="2"/>
<text x="68" y="1035" fill="#333">Humankind lead designer interview recruitment…</text>
<circle cx="77" cy="1057" r="9" fill="#e2e2e2" stroke="#999999" stroke-width="2"/>
<text x="94" y="1061" fill="#333">search: Humankind lead designer interview re</text>
<circle cx="51" cy="1083" r="9" fill="#8fb8de" stroke="#2f6fb0" stroke-width="2"/>
<text x="68" y="1087" fill="#333">"lead game designer" "humankind" review</text>
<circle cx="77" cy="1109" r="9" fill="#e2e2e2" stroke="#999999" stroke-width="2"/>
<text x="94" y="1113" fill="#333">search: "lead game designer" "humankind" rev</text>
<circle cx="77" cy="1135" r="9" fill="#f0c47a" stroke="#d08a2c" stroke-width="2"/>
<text x="94" y="1139" fill="#333">tldrmoviereviews.com/…/2021/09/21/humankind-</text>
<text x="377" y="1139" fill="#999" font-size="10">[d1 unread]</text>
<circle cx="103" cy="1161" r="9" fill="#f0c47a" stroke="#d08a2c" stroke-width="2"/>
<text x="120" y="1165" fill="#333">tldrmoviereviews.com/…/2023/09/23/humankind-</text>
<text x="403" y="1165" fill="#999" font-size="10">[d2 unread]</text>
<circle cx="129" cy="1187" r="9" fill="#f0c47a" stroke="#c0392b" stroke-width="3"/>
<text x="146" y="1191" fill="#333">humankind.fandom.com/wiki/Humankind</text>
<text x="373" y="1191" fill="#999" font-size="10">[d3 ×]</text>
<circle cx="129" cy="1213" r="9" fill="#f0c47a" stroke="#d08a2c" stroke-width="2"/>
<text x="146" y="1217" fill="#333">tldrmoviereviews.com/films-of-2021/</text>
<text x="373" y="1217" fill="#999" font-size="10">[d3 ~]</text>
<circle cx="129" cy="1239" r="9" fill="#f0c47a" stroke="#d08a2c" stroke-width="2"/>
<text x="146" y="1243" fill="#333">tldrmoviereviews.com/…/2023/09/22/spy-kids-a</text>
<text x="429" y="1243" fill="#999" font-size="10">[d3 unread]</text>
<circle cx="129" cy="1265" r="9" fill="#f0c47a" stroke="#d08a2c" stroke-width="2"/>
<text x="146" y="1269" fill="#333">tldrmoviereviews.com/articles-mega-list/</text>
<text x="404" y="1269" fill="#999" font-size="10">[d3 unread]</text>
<circle cx="103" cy="1291" r="9" fill="#f0c47a" stroke="#d08a2c" stroke-width="2"/>
<text x="120" y="1295" fill="#333">tldrmoviereviews.com/…/2022/07/19/humankind-</text>
<text x="403" y="1295" fill="#999" font-size="10">[d2 unread]</text>
<circle cx="129" cy="1317" r="9" fill="#f0c47a" stroke="#d08a2c" stroke-width="2"/>
<text x="146" y="1321" fill="#333">tldrmoviereviews.com/…/2022/07/26/humankind-</text>
<text x="429" y="1321" fill="#999" font-size="10">[d3 unread]</text>
<circle cx="129" cy="1343" r="9" fill="#f0c47a" stroke="#d08a2c" stroke-width="2"/>
<text x="146" y="1347" fill="#333">tldrmoviereviews.com/…/2022/07/18/westworld-</text>
<text x="429" y="1347" fill="#999" font-size="10">[d3 unread]</text>
<circle cx="129" cy="1369" r="9" fill="#f0c47a" stroke="#d08a2c" stroke-width="2"/>
<text x="146" y="1373" fill="#333">tldrmoviereviews.com/films-of-2022/</text>
<text x="373" y="1373" fill="#999" font-size="10">[d3 unread]</text>
<circle cx="103" cy="1395" r="9" fill="#f0c47a" stroke="#c0392b" stroke-width="3"/>
<text x="120" y="1399" fill="#333">tldrmoviereviews.com/tag/humankind/</text>
<text x="347" y="1399" fill="#999" font-size="10">[d2 ×]</text>
<circle cx="103" cy="1421" r="9" fill="#f0c47a" stroke="#c0392b" stroke-width="3"/>
<text x="120" y="1425" fill="#333">tldrmoviereviews.com/tag/amplitude-studios/</text>
<text x="397" y="1425" fill="#999" font-size="10">[d2 ×]</text>
<circle cx="103" cy="1447" r="9" fill="#f0c47a" stroke="#d08a2c" stroke-width="2"/>
<text x="120" y="1451" fill="#333">tldrmoviereviews.com/…/2021/09/21/surviving-</text>
<text x="403" y="1451" fill="#999" font-size="10">[d2 unread]</text>
<circle cx="129" cy="1473" r="9" fill="#f0c47a" stroke="#d08a2c" stroke-width="2"/>
<text x="146" y="1477" fill="#333">tldrmoviereviews.com/…/2018/06/16/video-game</text>
<text x="429" y="1477" fill="#999" font-size="10">[d3 unread]</text>
<circle cx="129" cy="1499" r="9" fill="#f0c47a" stroke="#d08a2c" stroke-width="2"/>
<text x="146" y="1503" fill="#333">tldrmoviereviews.com/…/2021/09/24/foundation</text>
<text x="429" y="1503" fill="#999" font-size="10">[d3 unread]</text>
<circle cx="129" cy="1525" r="9" fill="#f0c47a" stroke="#d08a2c" stroke-width="2"/>
<text x="146" y="1529" fill="#333">tldrmoviereviews.com/…/2019/05/27/video-game</text>
<text x="429" y="1529" fill="#999" font-size="10">[d3 unread]</text>
<circle cx="77" cy="1551" r="9" fill="#f0c47a" stroke="#d08a2c" stroke-width="2"/>
<text x="94" y="1555" fill="#333">gamingtrend.com/…/previews/walk-like-an-egyp</text>
<text x="377" y="1555" fill="#999" font-size="10">[d1 unread]</text>
<circle cx="103" cy="1577" r="9" fill="#f0c47a" stroke="#d08a2c" stroke-width="2"/>
<text x="120" y="1581" fill="#333">humankind.game/?ref=gamingtrend.com</text>
<text x="347" y="1581" fill="#999" font-size="10">[d2 unread]</text>
<circle cx="129" cy="1603" r="9" fill="#f0c47a" stroke="#c0392b" stroke-width="3"/>
<text x="146" y="1607" fill="#333">humankind.game/amplitude-studios/humankind</text>
<text x="416" y="1607" fill="#999" font-size="10">[d3 ×]</text>
<circle cx="129" cy="1629" r="9" fill="#f0c47a" stroke="#c0392b" stroke-width="3"/>
<text x="146" y="1633" fill="#333">humankind.game/…/blogs</text>
<text x="292" y="1633" fill="#999" font-size="10">[d3 ×]</text>
<circle cx="129" cy="1655" r="9" fill="#f0c47a" stroke="#d08a2c" stroke-width="2"/>
<text x="146" y="1659" fill="#333">humankind-encyclopedia.games2gether.com/…/en</text>
<text x="429" y="1659" fill="#999" font-size="10">[d3 unread]</text>
<circle cx="129" cy="1681" r="9" fill="#f0c47a" stroke="#c0392b" stroke-width="3"/>
<text x="146" y="1685" fill="#333">humankind.game/…/blogs</text>
<text x="292" y="1685" fill="#999" font-size="10">[d3 ×]</text>
<circle cx="129" cy="1707" r="9" fill="#f0c47a" stroke="#d08a2c" stroke-width="2"/>
<text x="146" y="1711" fill="#333">endlessdungeon.wiki.gg/wiki/Main_Page</text>
<text x="385" y="1711" fill="#999" font-size="10">[d3 unread]</text>
<circle cx="129" cy="1733" r="9" fill="#f0c47a" stroke="#c0392b" stroke-width="3"/>
<text x="146" y="1737" fill="#333">humankind.game/…/forums</text>
<text x="299" y="1737" fill="#999" font-size="10">[d3 ×]</text>
<circle cx="103" cy="1759" r="9" fill="#f0c47a" stroke="#d08a2c" stroke-width="2"/>
<text x="120" y="1763" fill="#333">gamingtrend.com/reviews/</text>
<text x="279" y="1763" fill="#999" font-size="10">[d2 unread]</text>
<circle cx="129" cy="1785" r="9" fill="#f0c47a" stroke="#d08a2c" stroke-width="2"/>
<text x="146" y="1789" fill="#333">gamingtrend.com/video-games/</text>
<text x="330" y="1789" fill="#999" font-size="10">[d3 unread]</text>
<circle cx="129" cy="1811" r="9" fill="#f0c47a" stroke="#c0392b" stroke-width="3"/>
<text x="146" y="1815" fill="#333">gamingtrend.com/reviews/tabletop/</text>
<text x="361" y="1815" fill="#999" font-size="10">[d3 ×]</text>
<circle cx="129" cy="1837" r="9" fill="#f0c47a" stroke="#c0392b" stroke-width="3"/>
<text x="146" y="1841" fill="#333">gamingtrend.com/tag/reviews/</text>
<text x="330" y="1841" fill="#999" font-size="10">[d3 ×]</text>
<circle cx="129" cy="1863" r="9" fill="#f0c47a" stroke="#d08a2c" stroke-width="2"/>
<text x="146" y="1867" fill="#333">gamingtrend.com/reviews/page/2/</text>
<text x="348" y="1867" fill="#999" font-size="10">[d3 unread]</text>
<circle cx="129" cy="1889" r="9" fill="#f0c47a" stroke="#d08a2c" stroke-width="2"/>
<text x="146" y="1893" fill="#333">gamingtrend.com/author/raven-winters/</text>
<text x="385" y="1893" fill="#999" font-size="10">[d3 unread]</text>
<circle cx="103" cy="1915" r="9" fill="#f0c47a" stroke="#c0392b" stroke-width="3"/>
<text x="120" y="1919" fill="#333">gamingtrend.com/reviews/video-games/</text>
<text x="353" y="1919" fill="#999" font-size="10">[d2 ×]</text>
<circle cx="103" cy="1941" r="9" fill="#f0c47a" stroke="#d08a2c" stroke-width="2"/>
<text x="120" y="1945" fill="#333">gamingtrend.com/tag/previews/</text>
<text x="310" y="1945" fill="#999" font-size="10">[d2 unread]</text>
<circle cx="129" cy="1967" r="9" fill="#f0c47a" stroke="#d08a2c" stroke-width="2"/>
<text x="146" y="1971" fill="#333">gamingtrend.com/author/mark/</text>
<text x="330" y="1971" fill="#999" font-size="10">[d3 unread]</text>
<circle cx="129" cy="1993" r="9" fill="#f0c47a" stroke="#d08a2c" stroke-width="2"/>
<text x="146" y="1997" fill="#333">gamingtrend.com/news/</text>
<text x="286" y="1997" fill="#999" font-size="10">[d3 unread]</text>
<circle cx="129" cy="2019" r="9" fill="#f0c47a" stroke="#c0392b" stroke-width="3"/>
<text x="146" y="2023" fill="#333">gamingtrend.com/games/</text>
<text x="292" y="2023" fill="#999" font-size="10">[d3 ×]</text>
<circle cx="129" cy="2045" r="9" fill="#f0c47a" stroke="#d08a2c" stroke-width="2"/>
<text x="146" y="2049" fill="#333">gamingtrend.com/previews/page/2/</text>
<text x="354" y="2049" fill="#999" font-size="10">[d3 unread]</text>
<circle cx="77" cy="2071" r="9" fill="#f0c47a" stroke="#c0392b" stroke-width="3"/>
<text x="94" y="2075" fill="#333">www.youtube.com/watch?v=Bl5UmxDo08k</text>
<text x="321" y="2075" fill="#999" font-size="10">[d1 ×]</text>
<circle cx="77" cy="2097" r="9" fill="#f0c47a" stroke="#d08a2c" stroke-width="2"/>
<text x="94" y="2101" fill="#333">forums.civfanatics.com/…/threads/is-a-civ4-m</text>
<text x="377" y="2101" fill="#999" font-size="10">[d1 unread]</text>
<circle cx="103" cy="2123" r="9" fill="#f0c47a" stroke="#d08a2c" stroke-width="2"/>
<text x="120" y="2127" fill="#333">forums.civfanatics.com/…/latest-reviews</text>
<text x="372" y="2127" fill="#999" font-size="10">[d2 unread]</text>
<circle cx="129" cy="2149" r="9" fill="#f0c47a" stroke="#c0392b" stroke-width="3"/>
<text x="146" y="2153" fill="#333">forums.civfanatics.com/…/resources/categorie</text>
<text x="429" y="2153" fill="#999" font-size="10">[d3 ×]</text>
<circle cx="129" cy="2175" r="9" fill="#f0c47a" stroke="#d08a2c" stroke-width="2"/>
<text x="146" y="2179" fill="#333">www.civfanatics.com/civ5/</text>
<text x="311" y="2179" fill="#999" font-size="10">[d3 ~]</text>
<circle cx="129" cy="2201" r="9" fill="#f0c47a" stroke="#c0392b" stroke-width="3"/>
<text x="146" y="2205" fill="#333">forums.civfanatics.com/…/resources/categorie</text>
<text x="429" y="2205" fill="#999" font-size="10">[d3 ×]</text>
<circle cx="129" cy="2227" r="9" fill="#f0c47a" stroke="#d08a2c" stroke-width="2"/>
<text x="146" y="2231" fill="#333">www.civfanatics.com/civ6</text>
<text x="305" y="2231" fill="#999" font-size="10">[d3 ~]</text>
<circle cx="129" cy="2253" r="9" fill="#f0c47a" stroke="#c0392b" stroke-width="3"/>
<text x="146" y="2257" fill="#333">forums.civfanatics.com/…/resources/categorie</text>
<text x="429" y="2257" fill="#999" font-size="10">[d3 ×]</text>
<circle cx="129" cy="2279" r="9" fill="#f0c47a" stroke="#d08a2c" stroke-width="2"/>
<text x="146" y="2283" fill="#333">www.civfanatics.com/civ3/</text>
<text x="311" y="2283" fill="#999" font-size="10">[d3 ~]</text>
<circle cx="103" cy="2305" r="9" fill="#f0c47a" stroke="#c0392b" stroke-width="3"/>
<text x="120" y="2309" fill="#333">forums.civfanatics.com/…/resources/categorie</text>
<text x="403" y="2309" fill="#999" font-size="10">[d2 ×]</text>
<circle cx="103" cy="2331" r="9" fill="#f0c47a" stroke="#d08a2c" stroke-width="2"/>
<text x="120" y="2335" fill="#333">www.civfanatics.com/civ4/</text>
<text x="285" y="2335" fill="#999" font-size="10">[d2 unread]</text>
<circle cx="129" cy="2357" r="9" fill="#f0c47a" stroke="#d08a2c" stroke-width="2"/>
<text x="146" y="2361" fill="#333">civfanatics.com/…/civ4/civilopedia/civilizat</text>
<text x="429" y="2361" fill="#999" font-size="10">[d3 ~]</text>
<circle cx="129" cy="2383" r="9" fill="#f0c47a" stroke="#d08a2c" stroke-width="2"/>
<text x="146" y="2387" fill="#333">civfanatics.com/civ4/</text>
<text x="286" y="2387" fill="#999" font-size="10">[d3 unread]</text>
<circle cx="129" cy="2409" r="9" fill="#f0c47a" stroke="#d08a2c" stroke-width="2"/>
<text x="146" y="2413" fill="#333">civfanatics.com/civ3/articles/</text>
<text x="342" y="2413" fill="#999" font-size="10">[d3 ~]</text>
<circle cx="103" cy="2435" r="9" fill="#f0c47a" stroke="#c0392b" stroke-width="3"/>
<text x="120" y="2439" fill="#333">forums.civfanatics.com/…/categories/civiliza</text>
<text x="403" y="2439" fill="#999" font-size="10">[d2 ×]</text>
<circle cx="103" cy="2461" r="9" fill="#f0c47a" stroke="#d08a2c" stroke-width="2"/>
<text x="120" y="2465" fill="#333">forums.civfanatics.com/…/resources/categorie</text>
<text x="403" y="2465" fill="#999" font-size="10">[d2 unread]</text>
<circle cx="129" cy="2487" r="9" fill="#f0c47a" stroke="#d08a2c" stroke-width="2"/>
<text x="146" y="2491" fill="#333">forums.civfanatics.com/resources/</text>
<text x="361" y="2491" fill="#999" font-size="10">[d3 unread]</text>
<circle cx="129" cy="2513" r="9" fill="#f0c47a" stroke="#c0392b" stroke-width="3"/>
<text x="146" y="2517" fill="#333">forums.civfanatics.com/whats-new/</text>
<text x="361" y="2517" fill="#999" font-size="10">[d3 ×]</text>
<circle cx="129" cy="2539" r="9" fill="#f0c47a" stroke="#c0392b" stroke-width="3"/>
<text x="146" y="2543" fill="#333">forums.civfanatics.com/…/resources/categorie</text>
<text x="429" y="2543" fill="#999" font-size="10">[d3 ×]</text>
<circle cx="129" cy="2565" r="9" fill="#f0c47a" stroke="#c0392b" stroke-width="3"/>
<text x="146" y="2569" fill="#333">forums.civfanatics.com/…/resources/categorie</text>
<text x="429" y="2569" fill="#999" font-size="10">[d3 ×]</text>
<circle cx="129" cy="2591" r="9" fill="#f0c47a" stroke="#c0392b" stroke-width="3"/>
<text x="146" y="2595" fill="#333">forums.civfanatics.com/…/media/categories/ci</text>
<text x="429" y="2595" fill="#999" font-size="10">[d3 ×]</text>
<circle cx="51" cy="2617" r="9" fill="#8fb8de" stroke="#2f6fb0" stroke-width="2"/>
<text x="68" y="2621" fill="#333">"lead game designer" "Amplitude Studios" inte…</text>
<circle cx="77" cy="2643" r="9" fill="#e2e2e2" stroke="#999999" stroke-width="2"/>
<text x="94" y="2647" fill="#333">search: "lead game designer" "Amplitude Stud</text>
<circle cx="77" cy="2669" r="9" fill="#f0c47a" stroke="#d08a2c" stroke-width="2"/>
<text x="94" y="2673" fill="#333">marrakesch-galerie.de/…/sabado-con-cortes-en</text>
<text x="377" y="2673" fill="#999" font-size="10">[d1 unread]</text>
<circle cx="77" cy="2695" r="9" fill="#f0c47a" stroke="#c0392b" stroke-width="3"/>
<text x="94" y="2699" fill="#333">l2qaj8u51-modulepreload.tacosamigos.lt/…/top</text>
<text x="377" y="2699" fill="#999" font-size="10">[d1 ×]</text>
<circle cx="77" cy="2721" r="9" fill="#f0c47a" stroke="#c0392b" stroke-width="3"/>
<text x="94" y="2725" fill="#333">oj46927m1boj-amphtml.lealecrudite.it/</text>
<text x="333" y="2725" fill="#999" font-size="10">[d1 ×]</text>
<circle cx="77" cy="2747" r="9" fill="#f0c47a" stroke="#c0392b" stroke-width="3"/>
<text x="94" y="2751" fill="#333">misart.com.pl/…/zenpa-rana-pizeto-dosila</text>
<text x="352" y="2751" fill="#999" font-size="10">[d1 ×]</text>
<circle cx="77" cy="2773" r="9" fill="#f0c47a" stroke="#d08a2c" stroke-width="2"/>
<text x="94" y="2777" fill="#333">beyandco.fr/…/aipz3p</text>
<text x="228" y="2777" fill="#999" font-size="10">[d1 unread]</text>
<circle cx="77" cy="2799" r="9" fill="#f0c47a" stroke="#d08a2c" stroke-width="2"/>
<text x="94" y="2803" fill="#333">rezeknespusmaratons.lv/…/monde-festival-lisa</text>
<text x="377" y="2803" fill="#999" font-size="10">[d1 unread]</text>
<circle cx="51" cy="2825" r="9" fill="#8fb8de" stroke="#2f6fb0" stroke-width="2"/>
<text x="68" y="2829" fill="#333">"William Dyce" interview recruiting graduates…</text>
<circle cx="77" cy="2851" r="9" fill="#e2e2e2" stroke="#999999" stroke-width="2"/>
<text x="94" y="2855" fill="#333">search: "William Dyce" interview recruiting</text>
<circle cx="51" cy="2877" r="9" fill="#8fb8de" stroke="#2f6fb0" stroke-width="2"/>
<text x="68" y="2881" fill="#333">"William Dyce" recruitment interview universi…</text>
<circle cx="77" cy="2903" r="9" fill="#e2e2e2" stroke="#999999" stroke-width="2"/>
<text x="94" y="2907" fill="#333">search: "William Dyce" recruitment interview</text>
<circle cx="51" cy="2929" r="9" fill="#8fb8de" stroke="#2f6fb0" stroke-width="2"/>
<text x="68" y="2933" fill="#333">"William Dyce" recruiting graduates interview…</text>
<circle cx="77" cy="2955" r="9" fill="#e2e2e2" stroke="#999999" stroke-width="2"/>
<text x="94" y="2959" fill="#333">search: "William Dyce" recruiting graduates</text>
<circle cx="77" cy="2981" r="9" fill="#f0c47a" stroke="#c0392b" stroke-width="3"/>
<text x="94" y="2985" fill="#333">rosny2026.fr/…/entrepreneur-science-politik</text>
<text x="371" y="2985" fill="#999" font-size="10">[d1 ×]</text>
<circle cx="51" cy="3007" r="9" fill="#8fb8de" stroke="#c0392b" stroke-width="3"/>
<text x="68" y="3011" fill="#333">Humankind first expansion released 2022 new f…</text>
<text x="363" y="3011" fill="#999" font-size="10">[예산 초과]</text>
</svg>