<svg xmlns="http://www.w3.org/2000/svg" width="695" height="700" viewBox="0 0 695 700" font-family="monospace" font-size="11">
<rect width="695" height="700" fill="#fbfbfb"/>
<text x="16" y="17" font-size="13" fill="#222">q · According to Our World in Data, which countries ranked in the top ten for all t…</text>
<text x="16" y="33" fill="#777">depthsearch · searches 8 · fetches 11 · expansion 4 · depth 3 · answered</text>
<circle cx="18" cy="49" r="5" fill="#8fb8de" stroke="#2f6fb0" stroke-width="2"/><text x="27" y="53" fill="#888" font-size="10">search</text><circle cx="77.6" cy="49" r="5" fill="#8fd6ab" stroke="#2e8b57" stroke-width="2"/><text x="86.6" y="53" fill="#888" font-size="10">fetch</text><circle cx="131.6" cy="49" r="5" fill="#f0c47a" stroke="#d08a2c" stroke-width="2"/><text x="140.6" y="53" fill="#888" font-size="10">expand d>=2</text><circle cx="219.2" cy="49" r="5" fill="#e2e2e2" stroke="#999999" stroke-width="2"/><text x="228.2" y="53" fill="#888" font-size="10">auto doc</text><circle cx="290" cy="49" r="5" fill="#fff" stroke="#c0392b" stroke-width="2"/><text x="299" y="53" fill="#888" font-size="10">failed / refused</text>
<path d="M25 78 V667" fill="none" stroke="#c8c8c8" stroke-width="1"/>
<path d="M25 95 H42" fill="none" stroke="#c8c8c8" stroke-width="1"/>
<path d="M25 121 H42" fill="none" stroke="#c8c8c8" stroke-width="1"/>
<path d="M25 147 H42" fill="none" stroke="#c8c8c8" stroke-width="1"/>
<path d="M25 173 H42" fill="none" stroke="#c8c8c8" stroke-width="1"/>
<path d="M25 199 H42" fill="none" stroke="#c8c8c8" stroke-width="1"/>
<path d="M25 277 H42" fill="none" stroke="#c8c8c8" stroke-width="1"/>
<path d="M25 303 H42" fill="none" stroke="#c8c8c8" stroke-width="1"/>
<path d="M25 329 H42" fill="none" stroke="#c8c8c8" stroke-width="1"/>
<path d="M25 355 H42" fill="none" stroke="#c8c8c8" stroke-width="1"/>
<path d="M25 381 H42" fill="none" stroke="#c8c8c8" stroke-width="1"/>
<path d="M25 407 H42" fill="none" stroke="#c8c8c8" stroke-width="1"/>
<path d="M25 433 H42" fill="none" stroke="#c8c8c8" stroke-width="1"/>
<path d="M25 459 H42" fill="none" stroke="#c8c8c8" stroke-width="1"/>
<path d="M25 485 H42" fill="none" stroke="#c8c8c8" stroke-width="1"/>
<path d="M25 511 H42" fill="none" stroke="#c8c8c8" stroke-width="1"/>
<path d="M25 537 H42" fill="none" stroke="#c8c8c8" stroke-width="1"/>
<path d="M25 615 H42" fill="none" stroke="#c8c8c8" stroke-width="1"/>
<path d="M25 641 H42" fill="none" stroke="#c8c8c8" stroke-width="1"/>
<path d="M25 667 H42" fill="none" stroke="#c8c8c8" stroke-width="1"/>
<path d="M51 208 V251" fill="none" stroke="#c8c8c8" stroke-width="1"/>
<path d="M51 225 H68" fill="none" stroke="#c8c8c8" stroke-width="1"/>
<path d="M51 251 H68" fill="none" stroke="#c8c8c8" stroke-width="1"/>
<path d="M51 546 V563" fill="none" stroke="#c8c8c8" stroke-width="1"/>
<path d="M51 563 H68" fill="none" stroke="#c8c8c8" stroke-width="1"/>
<path d="M77 572 V589" fill="none" stroke="#c8c8c8" stroke-width="1"/>
<path d="M77 589 H94" fill="none" stroke="#c8c8c8" stroke-width="1"/>
<circle cx="25" cy="69" r="9" fill="#d9d9d9" stroke="#666666" stroke-width="2"/>
<text x="42" y="73" fill="#333">According to Our World in Data, which countries ranked in t…</text>
<circle cx="51" cy="95" r="9" fill="#8fb8de" stroke="#2f6fb0" stroke-width="2"/>
<text x="68" y="99" fill="#333">Our World in Data GDP per capita 2022 top ten…</text>
<circle cx="51" cy="121" r="9" fill="#8fb8de" stroke="#2f6fb0" stroke-width="2"/>
<text x="68" y="125" fill="#333">ourworldindata gdp per capita 2022 ranking to…</text>
<circle cx="51" cy="147" r="9" fill="#8fb8de" stroke="#2f6fb0" stroke-width="2"/>
<text x="68" y="151" fill="#333">ourworldindata GDP per capita 2022</text>
<circle cx="51" cy="173" r="9" fill="#8fb8de" stroke="#2f6fb0" stroke-width="2"/>
<text x="68" y="177" fill="#333">ourworldindata human development index 2022 t…</text>
<circle cx="51" cy="199" r="9" fill="#8fd6ab" stroke="#2e8b57" stroke-width="2"/>
<text x="68" y="203" fill="#333">ourworldindata.org/…/human-development-index</text>
<circle cx="77" cy="225" r="9" fill="#f0c47a" stroke="#d08a2c" stroke-width="2"/>
<text x="94" y="229" fill="#333">ourworldindata.org/…/gdp-per-capita-worldban</text>
<text x="377" y="229" fill="#999" font-size="10">[d2 ~ complete]</text>
<circle cx="77" cy="251" r="9" fill="#f0c47a" stroke="#d08a2c" stroke-width="2"/>
<text x="94" y="255" fill="#333">ourworldindata.org/…/gdp-per-capita-worldban</text>
<text x="377" y="255" fill="#999" font-size="10">[d2 ~ complete]</text>
<circle cx="51" cy="277" r="9" fill="#8fb8de" stroke="#2f6fb0" stroke-width="2"/>
<text x="68" y="281" fill="#333">ourworldindata mean income or consumption per…</text>
<circle cx="51" cy="303" r="9" fill="#8fd6ab" stroke="#c0392b" stroke-width="3"/>
<text x="68" y="307" fill="#333">ourworldindata.org/…/mean-income-or-consumpt</text>
<text x="351" y="307" fill="#999" font-size="10">[실패]</text>
<circle cx="51" cy="329" r="9" fill="#8fd6ab" stroke="#c0392b" stroke-width="3"/>
<text x="68" y="333" fill="#333">ourworldindata.org/…/mean-daily-per-capita-e</text>
<text x="351" y="333" fill="#999" font-size="10">[실패]</text>
<circle cx="51" cy="355" r="9" fill="#8fd6ab" stroke="#c0392b" stroke-width="3"/>
<text x="68" y="359" fill="#333">ourworldindata.org/…/mean-income-or-consumpt</text>
<text x="351" y="359" fill="#999" font-size="10">[실패]</text>
<circle cx="51" cy="381" r="9" fill="#8fb8de" stroke="#2f6fb0" stroke-width="2"/>
<text x="68" y="385" fill="#333">mean-income-or-consumption-per-day.csv ourwor…</text>
<circle cx="51" cy="407" r="9" fill="#8fd6ab" stroke="#c0392b" stroke-width="3"/>
<text x="68" y="411" fill="#333">ourworldindata.org/…/mean-income-or-consumpt</text>
<text x="351" y="411" fill="#999" font-size="10">[실패]</text>
<circle cx="51" cy="433" r="9" fill="#8fd6ab" stroke="#2e8b57" stroke-width="2"/>
<text x="68" y="437" fill="#333">ourworldindata.org/…/mean-daily-per-capita-e</text>
<circle cx="51" cy="459" r="9" fill="#8fd6ab" stroke="#c0392b" stroke-width="3"/>
<text x="68" y="463" fill="#333">ourworldindata.org/…/mean-income-or-consumpt</text>
<text x="351" y="463" fill="#999" font-size="10">[실패]</text>
<circle cx="51" cy="485" r="9" fill="#8fd6ab" stroke="#c0392b" stroke-width="3"/>
<text x="68" y="489" fill="#333">ourworldindata.org/…/mean-daily-per-capita-e</text>
<text x="351" y="489" fill="#999" font-size="10">[실패]</text>
<circle cx="51" cy="511" r="9" fill="#8fb8de" stroke="#2f6fb0" stroke-width="2"/>
<text x="68" y="515" fill="#333">site:ourworldindata.org/grapher "mean income …</text>
<circle cx="51" cy="537" r="9" fill="#8fd6ab" stroke="#2e8b57" stroke-width="2"/>
<text x="68" y="541" fill="#333">ourworldindata.org/…/daily-mean-income-2011-</text>
<circle cx="77" cy="563" r="9" fill="#f0c47a" stroke="#d08a2c" stroke-width="2"/>
<text x="94" y="567" fill="#333">ourworldindata.org/…/gdp-per-capita-worldban</text>
<text x="377" y="567" fill="#999" font-size="10">[d2 ~ complete]</text>
<circle cx="103" cy="589" r="9" fill="#f0c47a" stroke="#d08a2c" stroke-width="2"/>
<text x="120" y="593" fill="#333">ourworldindata.org/…/gdp-per-capita-worldban</text>
<text x="403" y="593" fill="#999" font-size="10">[d3 ~ complete]</text>
<circle cx="51" cy="615" r="9" fill="#8fb8de" stroke="#2f6fb0" stroke-width="2"/>
<text x="68" y="619" fill="#333">Singapore 2022 "gdp-per-capita-worldbank.csv"</text>
<circle cx="51" cy="641" r="9" fill="#8fd6ab" stroke="#2e8b57" stroke-width="2"/>
<text x="68" y="645" fill="#333">ourworldindata.org/…/gdp-per-capita-worldban</text>
<circle cx="51" cy="667" r="9" fill="#8fd6ab" stroke="#2e8b57" stroke-width="2"/>
<text x="68" y="671" fill="#333">ourworldindata.org/…/human-development-index</text>
</svg>