<svg xmlns="http://www.w3.org/2000/svg" width="695" height="908" viewBox="0 0 695 908" font-family="monospace" font-size="11">
<rect width="695" height="908" fill="#fbfbfb"/>
<text x="16" y="17" font-size="13" fill="#222">q · I am looking for the name of the historical landmark that features a museum wit…</text>
<text x="16" y="33" fill="#777">depthsearch · searches 10 · fetches 11 · expansion 6 · depth 2 · finalized</text>
<circle cx="18" cy="49" r="5" fill="#8fb8de" stroke="#2f6fb0" stroke-width="2"/><text x="27" y="53" fill="#888" font-size="10">search</text><circle cx="77.6" cy="49" r="5" fill="#8fd6ab" stroke="#2e8b57" stroke-width="2"/><text x="86.6" y="53" fill="#888" font-size="10">fetch</text><circle cx="131.6" cy="49" r="5" fill="#f0c47a" stroke="#d08a2c" stroke-width="2"/><text x="140.6" y="53" fill="#888" font-size="10">expand d>=2</text><circle cx="219.2" cy="49" r="5" fill="#e2e2e2" stroke="#999999" stroke-width="2"/><text x="228.2" y="53" fill="#888" font-size="10">auto doc</text><circle cx="290" cy="49" r="5" fill="#fff" stroke="#c0392b" stroke-width="2"/><text x="299" y="53" fill="#888" font-size="10">failed / refused</text>
<path d="M25 78 V875" fill="none" stroke="#c8c8c8" stroke-width="1"/>
<path d="M25 95 H42" fill="none" stroke="#c8c8c8" stroke-width="1"/>
<path d="M25 121 H42" fill="none" stroke="#c8c8c8" stroke-width="1"/>
<path d="M25 147 H42" fill="none" stroke="#c8c8c8" stroke-width="1"/>
<path d="M25 173 H42" fill="none" stroke="#c8c8c8" stroke-width="1"/>
<path d="M25 199 H42" fill="none" stroke="#c8c8c8" stroke-width="1"/>
<path d="M25 225 H42" fill="none" stroke="#c8c8c8" stroke-width="1"/>
<path d="M25 251 H42" fill="none" stroke="#c8c8c8" stroke-width="1"/>
<path d="M25 277 H42" fill="none" stroke="#c8c8c8" stroke-width="1"/>
<path d="M25 303 H42" fill="none" stroke="#c8c8c8" stroke-width="1"/>
<path d="M25 329 H42" fill="none" stroke="#c8c8c8" stroke-width="1"/>
<path d="M25 381 H42" fill="none" stroke="#c8c8c8" stroke-width="1"/>
<path d="M25 407 H42" fill="none" stroke="#c8c8c8" stroke-width="1"/>
<path d="M25 433 H42" fill="none" stroke="#c8c8c8" stroke-width="1"/>
<path d="M25 459 H42" fill="none" stroke="#c8c8c8" stroke-width="1"/>
<path d="M25 485 H42" fill="none" stroke="#c8c8c8" stroke-width="1"/>
<path d="M25 589 H42" fill="none" stroke="#c8c8c8" stroke-width="1"/>
<path d="M25 615 H42" fill="none" stroke="#c8c8c8" stroke-width="1"/>
<path d="M25 641 H42" fill="none" stroke="#c8c8c8" stroke-width="1"/>
<path d="M25 667 H42" fill="none" stroke="#c8c8c8" stroke-width="1"/>
<path d="M25 797 H42" fill="none" stroke="#c8c8c8" stroke-width="1"/>
<path d="M25 875 H42" fill="none" stroke="#c8c8c8" stroke-width="1"/>
<path d="M51 338 V355" fill="none" stroke="#c8c8c8" stroke-width="1"/>
<path d="M51 355 H68" fill="none" stroke="#c8c8c8" stroke-width="1"/>
<path d="M51 494 V563" fill="none" stroke="#c8c8c8" stroke-width="1"/>
<path d="M51 511 H68" fill="none" stroke="#c8c8c8" stroke-width="1"/>
<path d="M51 537 H68" fill="none" stroke="#c8c8c8" stroke-width="1"/>
<path d="M51 563 H68" fill="none" stroke="#c8c8c8" stroke-width="1"/>
<path d="M51 676 V771" fill="none" stroke="#c8c8c8" stroke-width="1"/>
<path d="M51 693 H68" fill="none" stroke="#c8c8c8" stroke-width="1"/>
<path d="M51 719 H68" fill="none" stroke="#c8c8c8" stroke-width="1"/>
<path d="M51 771 H68" fill="none" stroke="#c8c8c8" stroke-width="1"/>
<path d="M77 728 V745" fill="none" stroke="#c8c8c8" stroke-width="1"/>
<path d="M77 745 H94" fill="none" stroke="#c8c8c8" stroke-width="1"/>
<path d="M51 806 V849" fill="none" stroke="#c8c8c8" stroke-width="1"/>
<path d="M51 823 H68" fill="none" stroke="#c8c8c8" stroke-width="1"/>
<path d="M51 849 H68" fill="none" stroke="#c8c8c8" stroke-width="1"/>
<circle cx="25" cy="69" r="9" fill="#d9d9d9" stroke="#666666" stroke-width="2"/>
<text x="42" y="73" fill="#333">I am looking for the name of the historical landmark that f…</text>
<circle cx="51" cy="95" r="9" fill="#8fb8de" stroke="#2f6fb0" stroke-width="2"/>
<text x="68" y="99" fill="#333">built 1896 1903 historical landmark July 1899…</text>
<circle cx="51" cy="121" r="9" fill="#8fb8de" stroke="#2f6fb0" stroke-width="2"/>
<text x="68" y="125" fill="#333">"July 1899" "historical" "built" 1896 1903 mu…</text>
<circle cx="51" cy="147" r="9" fill="#8fb8de" stroke="#2f6fb0" stroke-width="2"/>
<text x="68" y="151" fill="#333">"July 1899" "named" "historical landmark"</text>
<circle cx="51" cy="173" r="9" fill="#8fb8de" stroke="#2f6fb0" stroke-width="2"/>
<text x="68" y="177" fill="#333">"built" 1896 1903 "July 1899" "museum"</text>
<circle cx="51" cy="199" r="9" fill="#8fb8de" stroke="#2f6fb0" stroke-width="2"/>
<text x="68" y="203" fill="#333">"built" 1896 "1903" "July 1899" landmark</text>
<circle cx="51" cy="225" r="9" fill="#8fb8de" stroke="#2f6fb0" stroke-width="2"/>
<text x="68" y="229" fill="#333">"July 1899" "museum" "1896" "1903" "built" si…</text>
<circle cx="51" cy="251" r="9" fill="#8fb8de" stroke="#2f6fb0" stroke-width="2"/>
<text x="68" y="255" fill="#333">built 1896 1903 museum Kansas 1899 designation</text>
<circle cx="51" cy="277" r="9" fill="#8fb8de" stroke="#2f6fb0" stroke-width="2"/>
<text x="68" y="281" fill="#333">Boise museum built 1896 1903</text>
<circle cx="51" cy="303" r="9" fill="#8fb8de" stroke="#2f6fb0" stroke-width="2"/>
<text x="68" y="307" fill="#333">"July 1899" "designated" "museum" "built 1896"</text>
<circle cx="51" cy="329" r="9" fill="#8fd6ab" stroke="#2e8b57" stroke-width="2"/>
<text x="68" y="333" fill="#333">en.wikipedia.org/…/United_States_National_Mu</text>
<circle cx="77" cy="355" r="9" fill="#f0c47a" stroke="#c0392b" stroke-width="3"/>
<text x="94" y="359" fill="#333">en.wikipedia.org/…/index.php?title=Search&amp;se</text>
<text x="377" y="359" fill="#999" font-size="10">[d2 × complete]</text>
<circle cx="51" cy="381" r="9" fill="#8fb8de" stroke="#2f6fb0" stroke-width="2"/>
<text x="68" y="385" fill="#333">built 1896 1903 museum landmark</text>
<circle cx="51" cy="407" r="9" fill="#8fd6ab" stroke="#2e8b57" stroke-width="2"/>
<text x="68" y="411" fill="#333">en.wikipedia.org/wiki/Arizona_State_Museum</text>
<circle cx="51" cy="433" r="9" fill="#8fd6ab" stroke="#2e8b57" stroke-width="2"/>
<text x="68" y="437" fill="#333">garage-piault.fr/…/04y3gh.html</text>
<circle cx="51" cy="459" r="9" fill="#8fd6ab" stroke="#2e8b57" stroke-width="2"/>
<text x="68" y="463" fill="#333">en.wikipedia.org/wiki/Colorado_State_Capitol</text>
<circle cx="51" cy="485" r="9" fill="#8fd6ab" stroke="#2e8b57" stroke-width="2"/>
<text x="68" y="489" fill="#333">en.wikipedia.org/…/index.php?search=July+189</text>
<circle cx="77" cy="511" r="9" fill="#f0c47a" stroke="#d08a2c" stroke-width="2"/>
<text x="94" y="515" fill="#333">en.wikipedia.org/…/Burke_Museum_of_Natural_H</text>
<text x="377" y="515" fill="#999" font-size="10">[d2 ~ complete]</text>
<circle cx="77" cy="537" r="9" fill="#f0c47a" stroke="#c0392b" stroke-width="3"/>
<text x="94" y="541" fill="#333">en.wikipedia.org/…/United_States_National_Mu</text>
<text x="377" y="541" fill="#999" font-size="10">[saved note]</text>
<circle cx="77" cy="563" r="9" fill="#f0c47a" stroke="#d08a2c" stroke-width="2"/>
<text x="94" y="567" fill="#333">en.wikipedia.org/…/Smithsonian_National_Muse</text>
<text x="377" y="567" fill="#999" font-size="10">[d2 ~ complete]</text>
<circle cx="51" cy="589" r="9" fill="#8fd6ab" stroke="#c0392b" stroke-width="3"/>
<text x="68" y="593" fill="#333">en.wikipedia.org/…/Shackelford_County_Courth</text>
<text x="351" y="593" fill="#999" font-size="10">[실패]</text>
<circle cx="51" cy="615" r="9" fill="#8fd6ab" stroke="#c0392b" stroke-width="3"/>
<text x="68" y="619" fill="#333">www.americanhistory.si.edu/…/objects?departm</text>
<text x="351" y="619" fill="#999" font-size="10">[실패]</text>
<circle cx="51" cy="641" r="9" fill="#8fd6ab" stroke="#2e8b57" stroke-width="2"/>
<text x="68" y="645" fill="#333">en.wikipedia.org/…/National_Museum_of_Americ</text>
<circle cx="51" cy="667" r="9" fill="#8fd6ab" stroke="#2e8b57" stroke-width="2"/>
<text x="68" y="671" fill="#333">en.wikipedia.org/…/List_of_National_Historic</text>
<circle cx="77" cy="693" r="9" fill="#f0c47a" stroke="#d08a2c" stroke-width="2"/>
<text x="94" y="697" fill="#333">en.wikipedia.org/…/National_Museum_of_Americ</text>
<text x="377" y="697" fill="#999" font-size="10">[saved note]</text>
<circle cx="77" cy="719" r="9" fill="#f0c47a" stroke="#c0392b" stroke-width="3"/>
<text x="94" y="723" fill="#333">en.wikipedia.org/wiki/Kansas_State_Capitol</text>
<text x="364" y="723" fill="#999" font-size="10">[d2 ~ partial_failure]</text>
<circle cx="103" cy="745" r="9" fill="#f0c47a" stroke="#d08a2c" stroke-width="2"/>
<text x="120" y="749" fill="#333">en.wikipedia.org/wiki/Colorado_State_Capitol</text>
<text x="403" y="749" fill="#999" font-size="10">[saved note]</text>
<circle cx="77" cy="771" r="9" fill="#f0c47a" stroke="#c0392b" stroke-width="3"/>
<text x="94" y="775" fill="#333">en.wikipedia.org/…/United_States_National_Mu</text>
<text x="377" y="775" fill="#999" font-size="10">[saved note]</text>
<circle cx="51" cy="797" r="9" fill="#8fd6ab" stroke="#2e8b57" stroke-width="2"/>
<text x="68" y="801" fill="#333">en.wikipedia.org/wiki/Portland_City_Hall</text>
<circle cx="77" cy="823" r="9" fill="#f0c47a" stroke="#d08a2c" stroke-width="2"/>
<text x="94" y="827" fill="#333">en.wikipedia.org/…/Portland_City_Hall_(Orego</text>
<text x="377" y="827" fill="#999" font-size="10">[d2 ~ complete]</text>
<circle cx="77" cy="849" r="9" fill="#f0c47a" stroke="#d08a2c" stroke-width="2"/>
<text x="94" y="853" fill="#333">en.wikipedia.org/…/Yamhill_County_Courthouse</text>
<text x="377" y="853" fill="#999" font-size="10">[d2 ~ complete]</text>
<circle cx="51" cy="875" r="9" fill="#8fd6ab" stroke="#c0392b" stroke-width="3"/>
<text x="68" y="879" fill="#333">rochestermuseum.org/</text>
<text x="202" y="879" fill="#999" font-size="10">[실패]</text>
</svg>