<svg xmlns="http://www.w3.org/2000/svg" width="695" height="1038" viewBox="0 0 695 1038" font-family="monospace" font-size="11">
<rect width="695" height="1038" fill="#fbfbfb"/>
<text x="16" y="17" font-size="13" fill="#222">q · In a capital city in the South American continent, there's a building rumored t…</text>
<text x="16" y="33" fill="#777">depthsearch · searches 10 · fetches 0 · expansion 3 · depth 2 · finalized</text>
<circle cx="18" cy="49" r="5" fill="#8fb8de" stroke="#2f6fb0" stroke-width="2"/><text x="27" y="53" fill="#888" font-size="10">search</text><circle cx="77.6" cy="49" r="5" fill="#8fd6ab" stroke="#2e8b57" stroke-width="2"/><text x="86.6" y="53" fill="#888" font-size="10">fetch</text><circle cx="131.6" cy="49" r="5" fill="#f0c47a" stroke="#d08a2c" stroke-width="2"/><text x="140.6" y="53" fill="#888" font-size="10">expand d>=2</text><circle cx="219.2" cy="49" r="5" fill="#e2e2e2" stroke="#999999" stroke-width="2"/><text x="228.2" y="53" fill="#888" font-size="10">auto doc</text><circle cx="290" cy="49" r="5" fill="#fff" stroke="#c0392b" stroke-width="2"/><text x="299" y="53" fill="#888" font-size="10">failed / refused</text>
<path d="M25 78 V901" fill="none" stroke="#c8c8c8" stroke-width="1"/>
<path d="M25 95 H42" fill="none" stroke="#c8c8c8" stroke-width="1"/>
<path d="M25 147 H42" fill="none" stroke="#c8c8c8" stroke-width="1"/>
<path d="M25 251 H42" fill="none" stroke="#c8c8c8" stroke-width="1"/>
<path d="M25 329 H42" fill="none" stroke="#c8c8c8" stroke-width="1"/>
<path d="M25 459 H42" fill="none" stroke="#c8c8c8" stroke-width="1"/>
<path d="M25 563 H42" fill="none" stroke="#c8c8c8" stroke-width="1"/>
<path d="M25 589 H42" fill="none" stroke="#c8c8c8" stroke-width="1"/>
<path d="M25 719 H42" fill="none" stroke="#c8c8c8" stroke-width="1"/>
<path d="M25 745 H42" fill="none" stroke="#c8c8c8" stroke-width="1"/>
<path d="M25 901 H42" fill="none" stroke="#c8c8c8" stroke-width="1"/>
<path d="M51 104 V121" fill="none" stroke="#c8c8c8" stroke-width="1"/>
<path d="M51 121 H68" fill="none" stroke="#c8c8c8" stroke-width="1"/>
<path d="M51 156 V225" fill="none" stroke="#c8c8c8" stroke-width="1"/>
<path d="M51 173 H68" fill="none" stroke="#c8c8c8" stroke-width="1"/>
<path d="M51 199 H68" fill="none" stroke="#c8c8c8" stroke-width="1"/>
<path d="M51 225 H68" fill="none" stroke="#c8c8c8" stroke-width="1"/>
<path d="M51 260 V303" fill="none" stroke="#c8c8c8" stroke-width="1"/>
<path d="M51 277 H68" fill="none" stroke="#c8c8c8" stroke-width="1"/>
<path d="M51 303 H68" fill="none" stroke="#c8c8c8" stroke-width="1"/>
<path d="M51 338 V433" fill="none" stroke="#c8c8c8" stroke-width="1"/>
<path d="M51 355 H68" fill="none" stroke="#c8c8c8" stroke-width="1"/>
<path d="M51 381 H68" fill="none" stroke="#c8c8c8" stroke-width="1"/>
<path d="M51 407 H68" fill="none" stroke="#c8c8c8" stroke-width="1"/>
<path d="M51 433 H68" fill="none" stroke="#c8c8c8" stroke-width="1"/>
<path d="M51 468 V537" fill="none" stroke="#c8c8c8" stroke-width="1"/>
<path d="M51 485 H68" fill="none" stroke="#c8c8c8" stroke-width="1"/>
<path d="M51 511 H68" fill="none" stroke="#c8c8c8" stroke-width="1"/>
<path d="M51 537 H68" fill="none" stroke="#c8c8c8" stroke-width="1"/>
<path d="M51 598 V693" fill="none" stroke="#c8c8c8" stroke-width="1"/>
<path d="M51 615 H68" fill="none" stroke="#c8c8c8" stroke-width="1"/>
<path d="M51 641 H68" fill="none" stroke="#c8c8c8" stroke-width="1"/>
<path d="M51 667 H68" fill="none" stroke="#c8c8c8" stroke-width="1"/>
<path d="M51 693 H68" fill="none" stroke="#c8c8c8" stroke-width="1"/>
<path d="M51 754 V875" fill="none" stroke="#c8c8c8" stroke-width="1"/>
<path d="M51 771 H68" fill="none" stroke="#c8c8c8" stroke-width="1"/>
<path d="M51 797 H68" fill="none" stroke="#c8c8c8" stroke-width="1"/>
<path d="M51 823 H68" fill="none" stroke="#c8c8c8" stroke-width="1"/>
<path d="M51 849 H68" fill="none" stroke="#c8c8c8" stroke-width="1"/>
<path d="M51 875 H68" fill="none" stroke="#c8c8c8" stroke-width="1"/>
<path d="M51 910 V1005" fill="none" stroke="#c8c8c8" stroke-width="1"/>
<path d="M51 927 H68" fill="none" stroke="#c8c8c8" stroke-width="1"/>
<path d="M51 953 H68" fill="none" stroke="#c8c8c8" stroke-width="1"/>
<path d="M51 979 H68" fill="none" stroke="#c8c8c8" stroke-width="1"/>
<path d="M51 1005 H68" fill="none" stroke="#c8c8c8" stroke-width="1"/>
<circle cx="25" cy="69" r="9" fill="#d9d9d9" stroke="#666666" stroke-width="2"/>
<text x="42" y="73" fill="#333">In a capital city in the South American continent, there's …</text>
<circle cx="51" cy="95" r="9" fill="#8fb8de" stroke="#2f6fb0" stroke-width="2"/>
<text x="68" y="99" fill="#333">oldest bar in capital city South America buil…</text>
<circle cx="77" cy="121" r="9" fill="#e2e2e2" stroke="#999999" stroke-width="2"/>
<text x="94" y="125" fill="#333">tiplr.com/…/tips/south-america/chile/valpara</text>
<text x="377" y="125" fill="#999" font-size="10">[~]</text>
<circle cx="51" cy="147" r="9" fill="#8fb8de" stroke="#2f6fb0" stroke-width="2"/>
<text x="68" y="151" fill="#333">oldest bar in Santiago built 1895 first trade…</text>
<circle cx="77" cy="173" r="9" fill="#e2e2e2" stroke="#999999" stroke-width="2"/>
<text x="94" y="177" fill="#333">bespokeunit.com/…/articles/travel/club-de-la</text>
<text x="377" y="177" fill="#999" font-size="10">[~]</text>
<circle cx="77" cy="199" r="9" fill="#e2e2e2" stroke="#999999" stroke-width="2"/>
<text x="94" y="203" fill="#333">hmgplus.com/…/hospitality-news/5-different-c</text>
<text x="377" y="203" fill="#999" font-size="10">[~]</text>
<circle cx="77" cy="225" r="9" fill="#e2e2e2" stroke="#999999" stroke-width="2"/>
<text x="94" y="229" fill="#333">travelcocktail.org/santiago/</text>
<text x="278" y="229" fill="#999" font-size="10">[×]</text>
<circle cx="51" cy="251" r="9" fill="#8fb8de" stroke="#2f6fb0" stroke-width="2"/>
<text x="68" y="255" fill="#333">oldest restaurant Buenos Aires 1890 1900"</text>
<circle cx="77" cy="277" r="9" fill="#e2e2e2" stroke="#999999" stroke-width="2"/>
<text x="94" y="281" fill="#333">bairessecreta.com/…/en/oldest-bodegon-in-sou</text>
<text x="377" y="281" fill="#999" font-size="10">[~]</text>
<circle cx="77" cy="303" r="9" fill="#f0c47a" stroke="#c0392b" stroke-width="3"/>
<text x="94" y="307" fill="#333">bairessecreta.com/en/club-del-progreso</text>
<text x="340" y="307" fill="#999" font-size="10">[d2 × complete]</text>
<circle cx="51" cy="329" r="9" fill="#8fb8de" stroke="#2f6fb0" stroke-width="2"/>
<text x="68" y="333" fill="#333">Café el Viejo Montevideo 1894</text>
<circle cx="77" cy="355" r="9" fill="#e2e2e2" stroke="#999999" stroke-width="2"/>
<text x="94" y="359" fill="#333">www.facebook.com/…/ArchiDesiign/posts/la-far</text>
<text x="377" y="359" fill="#999" font-size="10">[~]</text>
<circle cx="77" cy="381" r="9" fill="#e2e2e2" stroke="#999999" stroke-width="2"/>
<text x="94" y="385" fill="#333">claudiag-fotografia.com/cafe-brasilero/</text>
<text x="346" y="385" fill="#999" font-size="10">[~]</text>
<circle cx="77" cy="407" r="9" fill="#e2e2e2" stroke="#999999" stroke-width="2"/>
<text x="94" y="411" fill="#333">www.facebook.com/…/uruguayosinfronteras/post</text>
<text x="377" y="411" fill="#999" font-size="10">[×]</text>
<circle cx="77" cy="433" r="9" fill="#e2e2e2" stroke="#999999" stroke-width="2"/>
<text x="94" y="437" fill="#333">www.tiktok.com/…/7478473695632084229</text>
<text x="327" y="437" fill="#999" font-size="10">[~]</text>
<circle cx="51" cy="459" r="9" fill="#8fb8de" stroke="#2f6fb0" stroke-width="2"/>
<text x="68" y="463" fill="#333">oldest hotel Lima 1890"</text>
<circle cx="77" cy="485" r="9" fill="#e2e2e2" stroke="#999999" stroke-width="2"/>
<text x="94" y="489" fill="#333">en.wikipedia.org/wiki/Hotel_Maury</text>
<text x="309" y="489" fill="#999" font-size="10">[~]</text>
<circle cx="77" cy="511" r="9" fill="#e2e2e2" stroke="#999999" stroke-width="2"/>
<text x="94" y="515" fill="#333">vilanovasuites-spa.com/…/en/cual-es-el-hotel</text>
<text x="377" y="515" fill="#999" font-size="10">[~]</text>
<circle cx="77" cy="537" r="9" fill="#e2e2e2" stroke="#999999" stroke-width="2"/>
<text x="94" y="541" fill="#333">www.facebook.com/…/groups/1706748102970911/p</text>
<text x="377" y="541" fill="#999" font-size="10">[~]</text>
<circle cx="51" cy="563" r="9" fill="#8fb8de" stroke="#2f6fb0" stroke-width="2"/>
<text x="68" y="567" fill="#333">"incorporated into" "1970s" "bar" "oldest" "C…</text>
<circle cx="51" cy="589" r="9" fill="#8fb8de" stroke="#2f6fb0" stroke-width="2"/>
<text x="68" y="593" fill="#333">"Club Nacional" Lima 1895</text>
<circle cx="77" cy="615" r="9" fill="#e2e2e2" stroke="#999999" stroke-width="2"/>
<text x="94" y="619" fill="#333">www.facebook.com/…/groups/637273870184486/po</text>
<text x="377" y="619" fill="#999" font-size="10">[~]</text>
<circle cx="77" cy="641" r="9" fill="#e2e2e2" stroke="#999999" stroke-width="2"/>
<text x="94" y="645" fill="#333">es.wikipedia.org/wiki/Club_Nacional_(Lima)</text>
<text x="364" y="645" fill="#999" font-size="10">[×]</text>
<circle cx="77" cy="667" r="9" fill="#e2e2e2" stroke="#999999" stroke-width="2"/>
<text x="94" y="671" fill="#333">www.scribd.com/…/Club-Nacional-Peru-Wikipedi</text>
<text x="377" y="671" fill="#999" font-size="10">[~]</text>
<circle cx="77" cy="693" r="9" fill="#e2e2e2" stroke="#999999" stroke-width="2"/>
<text x="94" y="697" fill="#333">en.wikipedia.org/wiki/Club_Nacional_(Peru)</text>
<text x="364" y="697" fill="#999" font-size="10">[~]</text>
<circle cx="51" cy="719" r="9" fill="#8fb8de" stroke="#2f6fb0" stroke-width="2"/>
<text x="68" y="723" fill="#333">"oldest bar" 1897 incorporated 1970s</text>
<circle cx="51" cy="745" r="9" fill="#8fb8de" stroke="#2f6fb0" stroke-width="2"/>
<text x="68" y="749" fill="#333">"oldest bar" Santiago Chile 1897</text>
<circle cx="77" cy="771" r="9" fill="#e2e2e2" stroke="#999999" stroke-width="2"/>
<text x="94" y="775" fill="#333">nhhotels-latam.civitatis.com/…/en/valparaiso</text>
<text x="377" y="775" fill="#999" font-size="10">[×]</text>
<circle cx="77" cy="797" r="9" fill="#e2e2e2" stroke="#999999" stroke-width="2"/>
<text x="94" y="801" fill="#333">static1.squarespace.com/…/TTM_JF19_Not-Custo</text>
<text x="377" y="801" fill="#999" font-size="10">[×]</text>
<circle cx="77" cy="823" r="9" fill="#e2e2e2" stroke="#999999" stroke-width="2"/>
<text x="94" y="827" fill="#333">wanderlog.com/…/best-walking-spots-in-valpar</text>
<text x="377" y="827" fill="#999" font-size="10">[~]</text>
<circle cx="77" cy="849" r="9" fill="#f0c47a" stroke="#d08a2c" stroke-width="2"/>
<text x="94" y="853" fill="#333">wanderlog.com/…/bar-cinzano</text>
<text x="271" y="853" fill="#999" font-size="10">[d2 ~ complete]</text>
<circle cx="77" cy="875" r="9" fill="#f0c47a" stroke="#d08a2c" stroke-width="2"/>
<text x="94" y="879" fill="#333">cinzanooficial.cl/</text>
<text x="216" y="879" fill="#999" font-size="10">[d2 ~ complete]</text>
<circle cx="51" cy="901" r="9" fill="#8fb8de" stroke="#2f6fb0" stroke-width="2"/>
<text x="68" y="905" fill="#333">oldest restaurant 1897 Lima ownership change …</text>
<circle cx="77" cy="927" r="9" fill="#e2e2e2" stroke="#999999" stroke-width="2"/>
<text x="94" y="931" fill="#333">www.facebook.com/…/salemfooddigest/posts/thi</text>
<text x="377" y="931" fill="#999" font-size="10">[×]</text>
<circle cx="77" cy="953" r="9" fill="#e2e2e2" stroke="#999999" stroke-width="2"/>
<text x="94" y="957" fill="#333">en.wikipedia.org/…/Historic_Centre_of_Lima</text>
<text x="364" y="957" fill="#999" font-size="10">[×]</text>
<circle cx="77" cy="979" r="9" fill="#e2e2e2" stroke="#999999" stroke-width="2"/>
<text x="94" y="983" fill="#333">www.copenhagenfoodie.dk/…/2018/06/29/central</text>
<text x="377" y="983" fill="#999" font-size="10">[~]</text>
<circle cx="77" cy="1005" r="9" fill="#e2e2e2" stroke="#999999" stroke-width="2"/>
<text x="94" y="1009" fill="#333">www.facebook.com/…/groups/380971065278407/po</text>
<text x="377" y="1009" fill="#999" font-size="10">[×]</text>
</svg>