<svg xmlns="http://www.w3.org/2000/svg" width="695" height="1844" viewBox="0 0 695 1844" font-family="monospace" font-size="11">
<rect width="695" height="1844" fill="#fbfbfb"/>
<text x="16" y="17" font-size="13" fill="#222">q · Using https://www.boxofficemojo.com, find which film was directed by the younge…</text>
<text x="16" y="33" fill="#777">search-o1 · searches 8 · fetches 0 · expansion 0 · depth 1 · answered</text>
<circle cx="18" cy="49" r="5" fill="#8fb8de" stroke="#2f6fb0" stroke-width="2"/><text x="27" y="53" fill="#888" font-size="10">search</text><circle cx="77.6" cy="49" r="5" fill="#8fd6ab" stroke="#2e8b57" stroke-width="2"/><text x="86.6" y="53" fill="#888" font-size="10">fetch</text><circle cx="131.6" cy="49" r="5" fill="#f0c47a" stroke="#d08a2c" stroke-width="2"/><text x="140.6" y="53" fill="#888" font-size="10">expand d>=2</text><circle cx="219.2" cy="49" r="5" fill="#e2e2e2" stroke="#999999" stroke-width="2"/><text x="228.2" y="53" fill="#888" font-size="10">auto doc</text><circle cx="290" cy="49" r="5" fill="#fff" stroke="#c0392b" stroke-width="2"/><text x="299" y="53" fill="#888" font-size="10">failed / refused</text>
<path d="M25 78 V1655" fill="none" stroke="#c8c8c8" stroke-width="1"/>
<path d="M25 95 H42" fill="none" stroke="#c8c8c8" stroke-width="1"/>
<path d="M25 381 H42" fill="none" stroke="#c8c8c8" stroke-width="1"/>
<path d="M25 589 H42" fill="none" stroke="#c8c8c8" stroke-width="1"/>
<path d="M25 849 H42" fill="none" stroke="#c8c8c8" stroke-width="1"/>
<path d="M25 1057 H42" fill="none" stroke="#c8c8c8" stroke-width="1"/>
<path d="M25 1291 H42" fill="none" stroke="#c8c8c8" stroke-width="1"/>
<path d="M25 1421 H42" fill="none" stroke="#c8c8c8" stroke-width="1"/>
<path d="M25 1655 H42" fill="none" stroke="#c8c8c8" stroke-width="1"/>
<path d="M51 104 V355" fill="none" stroke="#c8c8c8" stroke-width="1"/>
<path d="M51 121 H68" fill="none" stroke="#c8c8c8" stroke-width="1"/>
<path d="M51 147 H68" fill="none" stroke="#c8c8c8" stroke-width="1"/>
<path d="M51 173 H68" fill="none" stroke="#c8c8c8" stroke-width="1"/>
<path d="M51 199 H68" fill="none" stroke="#c8c8c8" stroke-width="1"/>
<path d="M51 225 H68" fill="none" stroke="#c8c8c8" stroke-width="1"/>
<path d="M51 251 H68" fill="none" stroke="#c8c8c8" stroke-width="1"/>
<path d="M51 277 H68" fill="none" stroke="#c8c8c8" stroke-width="1"/>
<path d="M51 303 H68" fill="none" stroke="#c8c8c8" stroke-width="1"/>
<path d="M51 329 H68" fill="none" stroke="#c8c8c8" stroke-width="1"/>
<path d="M51 355 H68" fill="none" stroke="#c8c8c8" stroke-width="1"/>
<path d="M51 390 V563" fill="none" stroke="#c8c8c8" stroke-width="1"/>
<path d="M51 407 H68" fill="none" stroke="#c8c8c8" stroke-width="1"/>
<path d="M51 433 H68" fill="none" stroke="#c8c8c8" stroke-width="1"/>
<path d="M51 459 H68" fill="none" stroke="#c8c8c8" stroke-width="1"/>
<path d="M51 485 H68" fill="none" stroke="#c8c8c8" stroke-width="1"/>
<path d="M51 511 H68" fill="none" stroke="#c8c8c8" stroke-width="1"/>
<path d="M51 537 H68" fill="none" stroke="#c8c8c8" stroke-width="1"/>
<path d="M51 563 H68" fill="none" stroke="#c8c8c8" stroke-width="1"/>
<path d="M51 598 V823" fill="none" stroke="#c8c8c8" stroke-width="1"/>
<path d="M51 615 H68" fill="none" stroke="#c8c8c8" stroke-width="1"/>
<path d="M51 641 H68" fill="none" stroke="#c8c8c8" stroke-width="1"/>
<path d="M51 667 H68" fill="none" stroke="#c8c8c8" stroke-width="1"/>
<path d="M51 693 H68" fill="none" stroke="#c8c8c8" stroke-width="1"/>
<path d="M51 719 H68" fill="none" stroke="#c8c8c8" stroke-width="1"/>
<path d="M51 745 H68" fill="none" stroke="#c8c8c8" stroke-width="1"/>
<path d="M51 771 H68" fill="none" stroke="#c8c8c8" stroke-width="1"/>
<path d="M51 797 H68" fill="none" stroke="#c8c8c8" stroke-width="1"/>
<path d="M51 823 H68" fill="none" stroke="#c8c8c8" stroke-width="1"/>
<path d="M51 858 V1031" fill="none" stroke="#c8c8c8" stroke-width="1"/>
<path d="M51 875 H68" fill="none" stroke="#c8c8c8" stroke-width="1"/>
<path d="M51 901 H68" fill="none" stroke="#c8c8c8" stroke-width="1"/>
<path d="M51 927 H68" fill="none" stroke="#c8c8c8" stroke-width="1"/>
<path d="M51 953 H68" fill="none" stroke="#c8c8c8" stroke-width="1"/>
<path d="M51 979 H68" fill="none" stroke="#c8c8c8" stroke-width="1"/>
<path d="M51 1005 H68" fill="none" stroke="#c8c8c8" stroke-width="1"/>
<path d="M51 1031 H68" fill="none" stroke="#c8c8c8" stroke-width="1"/>
<path d="M51 1066 V1265" fill="none" stroke="#c8c8c8" stroke-width="1"/>
<path d="M51 1083 H68" fill="none" stroke="#c8c8c8" stroke-width="1"/>
<path d="M51 1109 H68" fill="none" stroke="#c8c8c8" stroke-width="1"/>
<path d="M51 1135 H68" fill="none" stroke="#c8c8c8" stroke-width="1"/>
<path d="M51 1161 H68" fill="none" stroke="#c8c8c8" stroke-width="1"/>
<path d="M51 1187 H68" fill="none" stroke="#c8c8c8" stroke-width="1"/>
<path d="M51 1213 H68" fill="none" stroke="#c8c8c8" stroke-width="1"/>
<path d="M51 1239 H68" fill="none" stroke="#c8c8c8" stroke-width="1"/>
<path d="M51 1265 H68" fill="none" stroke="#c8c8c8" stroke-width="1"/>
<path d="M51 1300 V1395" fill="none" stroke="#c8c8c8" stroke-width="1"/>
<path d="M51 1317 H68" fill="none" stroke="#c8c8c8" stroke-width="1"/>
<path d="M51 1343 H68" fill="none" stroke="#c8c8c8" stroke-width="1"/>
<path d="M51 1369 H68" fill="none" stroke="#c8c8c8" stroke-width="1"/>
<path d="M51 1395 H68" fill="none" stroke="#c8c8c8" stroke-width="1"/>
<path d="M51 1430 V1629" fill="none" stroke="#c8c8c8" stroke-width="1"/>
<path d="M51 1447 H68" fill="none" stroke="#c8c8c8" stroke-width="1"/>
<path d="M51 1473 H68" fill="none" stroke="#c8c8c8" stroke-width="1"/>
<path d="M51 1499 H68" fill="none" stroke="#c8c8c8" stroke-width="1"/>
<path d="M51 1525 H68" fill="none" stroke="#c8c8c8" stroke-width="1"/>
<path d="M51 1551 H68" fill="none" stroke="#c8c8c8" stroke-width="1"/>
<path d="M51 1577 H68" fill="none" stroke="#c8c8c8" stroke-width="1"/>
<path d="M51 1603 H68" fill="none" stroke="#c8c8c8" stroke-width="1"/>
<path d="M51 1629 H68" fill="none" stroke="#c8c8c8" stroke-width="1"/>
<path d="M51 1664 V1811" fill="none" stroke="#c8c8c8" stroke-width="1"/>
<path d="M51 1681 H68" fill="none" stroke="#c8c8c8" stroke-width="1"/>
<path d="M51 1707 H68" fill="none" stroke="#c8c8c8" stroke-width="1"/>
<path d="M51 1733 H68" fill="none" stroke="#c8c8c8" stroke-width="1"/>
<path d="M51 1759 H68" fill="none" stroke="#c8c8c8" stroke-width="1"/>
<path d="M51 1785 H68" fill="none" stroke="#c8c8c8" stroke-width="1"/>
<path d="M51 1811 H68" fill="none" stroke="#c8c8c8" stroke-width="1"/>
<circle cx="25" cy="69" r="9" fill="#d9d9d9" stroke="#666666" stroke-width="2"/>
<text x="42" y="73" fill="#333">Using https://www.boxofficemojo.com, find which film was di…</text>
<circle cx="51" cy="95" r="9" fill="#8fb8de" stroke="#2f6fb0" stroke-width="2"/>
<text x="68" y="99" fill="#333">Box Office Mojo 2022 domestic top 5</text>
<circle cx="77" cy="121" r="9" fill="#e2e2e2" stroke="#999999" stroke-width="2"/>
<text x="94" y="125" fill="#333">www.boxofficemojo.com/year/2022/</text>
<text x="302" y="125" fill="#999" font-size="10">[~]</text>
<circle cx="77" cy="147" r="9" fill="#e2e2e2" stroke="#999999" stroke-width="2"/>
<text x="94" y="151" fill="#333">www.boxofficemojo.com/year/world/2022/</text>
<text x="340" y="151" fill="#999" font-size="10">[~]</text>
<circle cx="77" cy="173" r="9" fill="#e2e2e2" stroke="#999999" stroke-width="2"/>
<text x="94" y="177" fill="#333">www.boxofficemojo.com/</text>
<text x="240" y="177" fill="#999" font-size="10">[~]</text>
<circle cx="77" cy="199" r="9" fill="#e2e2e2" stroke="#999999" stroke-width="2"/>
<text x="94" y="203" fill="#333">www.boxofficemojo.com/year/</text>
<text x="271" y="203" fill="#999" font-size="10">[~]</text>
<circle cx="77" cy="225" r="9" fill="#e2e2e2" stroke="#999999" stroke-width="2"/>
<text x="94" y="229" fill="#333">www.boxofficemojo.com/…/chart/top_lifetime_g</text>
<text x="377" y="229" fill="#999" font-size="10">[~]</text>
<circle cx="77" cy="251" r="9" fill="#e2e2e2" stroke="#999999" stroke-width="2"/>
<text x="94" y="255" fill="#333">www.boxofficemojo.com/weekend/2026W37/</text>
<text x="340" y="255" fill="#999" font-size="10">[~]</text>
<circle cx="77" cy="277" r="9" fill="#e2e2e2" stroke="#999999" stroke-width="2"/>
<text x="94" y="281" fill="#333">www.boxofficemojo.com/weekend/by-year/2022/</text>
<text x="371" y="281" fill="#999" font-size="10">[~]</text>
<circle cx="77" cy="303" r="9" fill="#e2e2e2" stroke="#999999" stroke-width="2"/>
<text x="94" y="307" fill="#333">www.boxofficemojo.com/weekend/2026W05/</text>
<text x="340" y="307" fill="#999" font-size="10">[~]</text>
<circle cx="77" cy="329" r="9" fill="#e2e2e2" stroke="#999999" stroke-width="2"/>
<text x="94" y="333" fill="#333">www.boxofficemojo.com/weekly/by-year/2022/</text>
<text x="364" y="333" fill="#999" font-size="10">[~]</text>
<circle cx="77" cy="355" r="9" fill="#e2e2e2" stroke="#999999" stroke-width="2"/>
<text x="94" y="359" fill="#333">www.boxofficemojo.com/year/world/</text>
<text x="309" y="359" fill="#999" font-size="10">[~]</text>
<circle cx="51" cy="381" r="9" fill="#8fb8de" stroke="#2f6fb0" stroke-width="2"/>
<text x="68" y="385" fill="#333">Top Gun: Maverick opening weekend Portugal</text>
<circle cx="77" cy="407" r="9" fill="#e2e2e2" stroke="#999999" stroke-width="2"/>
<text x="94" y="411" fill="#333">www.boxofficemojo.com/release/rl2500036097/</text>
<text x="371" y="411" fill="#999" font-size="10">[~]</text>
<circle cx="77" cy="433" r="9" fill="#e2e2e2" stroke="#999999" stroke-width="2"/>
<text x="94" y="437" fill="#333">deadline.com/…/2022/05/top-gun-maverick-tom-</text>
<text x="377" y="437" fill="#999" font-size="10">[~]</text>
<circle cx="77" cy="459" r="9" fill="#e2e2e2" stroke="#999999" stroke-width="2"/>
<text x="94" y="463" fill="#333">www.boxofficepro.com/…/top-gun-maverick-glob</text>
<text x="377" y="463" fill="#999" font-size="10">[~]</text>
<circle cx="77" cy="485" r="9" fill="#e2e2e2" stroke="#999999" stroke-width="2"/>
<text x="94" y="489" fill="#333">en.wikipedia.org/wiki/Top_Gun:_Maverick</text>
<text x="346" y="489" fill="#999" font-size="10">[~]</text>
<circle cx="77" cy="511" r="9" fill="#e2e2e2" stroke="#999999" stroke-width="2"/>
<text x="94" y="515" fill="#333">corporate.skyshowtime.com/…/225710-skyshowti</text>
<text x="377" y="515" fill="#999" font-size="10">[~]</text>
<circle cx="77" cy="537" r="9" fill="#e2e2e2" stroke="#999999" stroke-width="2"/>
<text x="94" y="541" fill="#333">variety.com/…/2022/film/box-office/top-gun-m</text>
<text x="377" y="541" fill="#999" font-size="10">[~]</text>
<circle cx="77" cy="563" r="9" fill="#e2e2e2" stroke="#999999" stroke-width="2"/>
<text x="94" y="567" fill="#333">www.imdb.com/title/tt1745960/</text>
<text x="284" y="567" fill="#999" font-size="10">[~]</text>
<circle cx="51" cy="589" r="9" fill="#8fb8de" stroke="#2f6fb0" stroke-width="2"/>
<text x="68" y="593" fill="#333">Joseph Kosinski born</text>
<circle cx="77" cy="615" r="9" fill="#e2e2e2" stroke="#999999" stroke-width="2"/>
<text x="94" y="619" fill="#333">en.wikipedia.org/wiki/Joseph_Kosinski</text>
<text x="333" y="619" fill="#999" font-size="10">[~]</text>
<circle cx="77" cy="641" r="9" fill="#e2e2e2" stroke="#999999" stroke-width="2"/>
<text x="94" y="645" fill="#333">www.imdb.com/name/nm2676052/</text>
<text x="278" y="645" fill="#999" font-size="10">[~]</text>
<circle cx="77" cy="667" r="9" fill="#e2e2e2" stroke="#999999" stroke-width="2"/>
<text x="94" y="671" fill="#333">letterboxd.com/director/joseph-kosinski/</text>
<text x="352" y="671" fill="#999" font-size="10">[~]</text>
<circle cx="77" cy="693" r="9" fill="#e2e2e2" stroke="#999999" stroke-width="2"/>
<text x="94" y="697" fill="#333">www.facebook.com/…/100067616590743/posts/hap</text>
<text x="377" y="697" fill="#999" font-size="10">[~]</text>
<circle cx="77" cy="719" r="9" fill="#e2e2e2" stroke="#999999" stroke-width="2"/>
<text x="94" y="723" fill="#333">screendollars.com/celebrity/joseph-kosinski/</text>
<text x="377" y="723" fill="#999" font-size="10">[~]</text>
<circle cx="77" cy="745" r="9" fill="#e2e2e2" stroke="#999999" stroke-width="2"/>
<text x="94" y="749" fill="#333">bookingagentinfo.com/…/celebrity/joseph-kosi</text>
<text x="377" y="749" fill="#999" font-size="10">[~]</text>
<circle cx="77" cy="771" r="9" fill="#e2e2e2" stroke="#999999" stroke-width="2"/>
<text x="94" y="775" fill="#333">collab.sundance.org/…/Joseph-Kosinski-176531</text>
<text x="377" y="775" fill="#999" font-size="10">[~]</text>
<circle cx="77" cy="797" r="9" fill="#e2e2e2" stroke="#999999" stroke-width="2"/>
<text x="94" y="801" fill="#333">www.famousbirthdays.com/…/joseph-kosinski.ht</text>
<text x="377" y="801" fill="#999" font-size="10">[~]</text>
<circle cx="77" cy="823" r="9" fill="#e2e2e2" stroke="#999999" stroke-width="2"/>
<text x="94" y="827" fill="#333">www.tribute.ca/…/people/biography/joseph-kos</text>
<text x="377" y="827" fill="#999" font-size="10">[~]</text>
<circle cx="51" cy="849" r="9" fill="#8fb8de" stroke="#2f6fb0" stroke-width="2"/>
<text x="68" y="853" fill="#333">Black Panther Wakanda Forever opening weekend…</text>
<circle cx="77" cy="875" r="9" fill="#e2e2e2" stroke="#999999" stroke-width="2"/>
<text x="94" y="879" fill="#333">thewaltdisneycompany.com/…/news/marvel-studi</text>
<text x="377" y="879" fill="#999" font-size="10">[~]</text>
<circle cx="77" cy="901" r="9" fill="#e2e2e2" stroke="#999999" stroke-width="2"/>
<text x="94" y="905" fill="#333">deadline.com/…/2022/11/black-panther-wakanda</text>
<text x="377" y="905" fill="#999" font-size="10">[~]</text>
<circle cx="77" cy="927" r="9" fill="#e2e2e2" stroke="#999999" stroke-width="2"/>
<text x="94" y="931" fill="#333">www.boxofficemojo.com/title/tt9114286/</text>
<text x="340" y="931" fill="#999" font-size="10">[~]</text>
<circle cx="77" cy="953" r="9" fill="#e2e2e2" stroke="#999999" stroke-width="2"/>
<text x="94" y="957" fill="#333">www.the-numbers.com/…/Black-Panther-Wakanda-</text>
<text x="377" y="957" fill="#999" font-size="10">[~]</text>
<circle cx="77" cy="979" r="9" fill="#e2e2e2" stroke="#999999" stroke-width="2"/>
<text x="94" y="983" fill="#333">www.cnbc.com/…/black-panther-wakanda-forever</text>
<text x="377" y="983" fill="#999" font-size="10">[~]</text>
<circle cx="77" cy="1005" r="9" fill="#e2e2e2" stroke="#999999" stroke-width="2"/>
<text x="94" y="1009" fill="#333">www.syfy.com/…/black-panther-wakanda-forever</text>
<text x="377" y="1009" fill="#999" font-size="10">[~]</text>
<circle cx="77" cy="1031" r="9" fill="#e2e2e2" stroke="#999999" stroke-width="2"/>
<text x="94" y="1035" fill="#333">www.facebook.com/…/BBCnewsafrica/posts/for-t</text>
<text x="377" y="1035" fill="#999" font-size="10">[~]</text>
<circle cx="51" cy="1057" r="9" fill="#8fb8de" stroke="#2f6fb0" stroke-width="2"/>
<text x="68" y="1061" fill="#333">Avatar: The Way of Water opening weekend Port…</text>
<circle cx="77" cy="1083" r="9" fill="#e2e2e2" stroke="#999999" stroke-width="2"/>
<text x="94" y="1087" fill="#333">www.boxofficemojo.com/title/tt1630029/</text>
<text x="340" y="1087" fill="#999" font-size="10">[~]</text>
<circle cx="77" cy="1109" r="9" fill="#e2e2e2" stroke="#999999" stroke-width="2"/>
<text x="94" y="1113" fill="#333">deadline.com/…/2022/12/avatar-the-way-of-wat</text>
<text x="377" y="1113" fill="#999" font-size="10">[~]</text>
<circle cx="77" cy="1135" r="9" fill="#e2e2e2" stroke="#999999" stroke-width="2"/>
<text x="94" y="1139" fill="#333">www.the-numbers.com/…/Avatar-The-Way-of-Wate</text>
<text x="377" y="1139" fill="#999" font-size="10">[~]</text>
<circle cx="77" cy="1161" r="9" fill="#e2e2e2" stroke="#999999" stroke-width="2"/>
<text x="94" y="1165" fill="#333">variety.com/…/2022/film/box-office/avatar-2-</text>
<text x="377" y="1165" fill="#999" font-size="10">[~]</text>
<circle cx="77" cy="1187" r="9" fill="#e2e2e2" stroke="#999999" stroke-width="2"/>
<text x="94" y="1191" fill="#333">www.instagram.com/…/popular/avatar-the-way-o</text>
<text x="377" y="1191" fill="#999" font-size="10">[~]</text>
<circle cx="77" cy="1213" r="9" fill="#e2e2e2" stroke="#999999" stroke-width="2"/>
<text x="94" y="1217" fill="#333">tv.apple.com/…/umc.cmc.5k5xo2espahvd6kcswi2b</text>
<text x="377" y="1217" fill="#999" font-size="10">[~]</text>
<circle cx="77" cy="1239" r="9" fill="#e2e2e2" stroke="#999999" stroke-width="2"/>
<text x="94" y="1243" fill="#333">thewaltdisneycompany.com/…/news/20th-century</text>
<text x="377" y="1243" fill="#999" font-size="10">[~]</text>
<circle cx="77" cy="1265" r="9" fill="#e2e2e2" stroke="#999999" stroke-width="2"/>
<text x="94" y="1269" fill="#333">www.facebook.com/…/Avatar/videos/avatar-the-</text>
<text x="377" y="1269" fill="#999" font-size="10">[~]</text>
<circle cx="51" cy="1291" r="9" fill="#8fb8de" stroke="#2f6fb0" stroke-width="2"/>
<text x="68" y="1295" fill="#333">Top Gun: Maverick opening Lithuania</text>
<circle cx="77" cy="1317" r="9" fill="#e2e2e2" stroke="#999999" stroke-width="2"/>
<text x="94" y="1321" fill="#333">en.wikipedia.org/wiki/Top_Gun:_Maverick</text>
<text x="346" y="1321" fill="#999" font-size="10">[~]</text>
<circle cx="77" cy="1343" r="9" fill="#e2e2e2" stroke="#999999" stroke-width="2"/>
<text x="94" y="1347" fill="#333">www.boxofficemojo.com/release/rl2500036097/</text>
<text x="371" y="1347" fill="#999" font-size="10">[~]</text>
<circle cx="77" cy="1369" r="9" fill="#e2e2e2" stroke="#999999" stroke-width="2"/>
<text x="94" y="1373" fill="#333">variety.com/…/2022/artisans/news/top-gun-mav</text>
<text x="377" y="1373" fill="#999" font-size="10">[~]</text>
<circle cx="77" cy="1395" r="9" fill="#e2e2e2" stroke="#999999" stroke-width="2"/>
<text x="94" y="1399" fill="#333">tv.apple.com/…/umc.cmc.670544bajp6s4pysx4rvc</text>
<text x="377" y="1399" fill="#999" font-size="10">[~]</text>
<circle cx="51" cy="1421" r="9" fill="#8fb8de" stroke="#2f6fb0" stroke-width="2"/>
<text x="68" y="1425" fill="#333">Ryan Coogler born</text>
<circle cx="77" cy="1447" r="9" fill="#e2e2e2" stroke="#999999" stroke-width="2"/>
<text x="94" y="1451" fill="#333">en.wikipedia.org/wiki/Ryan_Coogler</text>
<text x="315" y="1451" fill="#999" font-size="10">[~]</text>
<circle cx="77" cy="1473" r="9" fill="#e2e2e2" stroke="#999999" stroke-width="2"/>
<text x="94" y="1477" fill="#333">www.imdb.com/name/nm3363032/</text>
<text x="278" y="1477" fill="#999" font-size="10">[~]</text>
<circle cx="77" cy="1499" r="9" fill="#e2e2e2" stroke="#999999" stroke-width="2"/>
<text x="94" y="1503" fill="#333">collab.sundance.org/…/Ryan-Coogler-158631247</text>
<text x="377" y="1503" fill="#999" font-size="10">[~]</text>
<circle cx="77" cy="1525" r="9" fill="#e2e2e2" stroke="#999999" stroke-width="2"/>
<text x="94" y="1529" fill="#333">www.instagram.com/p/DYsFMWAjuOX/?hl=en</text>
<text x="340" y="1529" fill="#999" font-size="10">[~]</text>
<circle cx="77" cy="1551" r="9" fill="#e2e2e2" stroke="#999999" stroke-width="2"/>
<text x="94" y="1555" fill="#333">www.rottentomatoes.com/…/ryan_coogler</text>
<text x="333" y="1555" fill="#999" font-size="10">[~]</text>
<circle cx="77" cy="1577" r="9" fill="#e2e2e2" stroke="#999999" stroke-width="2"/>
<text x="94" y="1581" fill="#333">www.facebook.com/…/OccupyDirectors/posts/rya</text>
<text x="377" y="1581" fill="#999" font-size="10">[~]</text>
<circle cx="77" cy="1603" r="9" fill="#e2e2e2" stroke="#999999" stroke-width="2"/>
<text x="94" y="1607" fill="#333">filmmakermagazine.com/people/ryan-coogler/</text>
<text x="364" y="1607" fill="#999" font-size="10">[~]</text>
<circle cx="77" cy="1629" r="9" fill="#e2e2e2" stroke="#999999" stroke-width="2"/>
<text x="94" y="1633" fill="#333">www.instagram.com/p/DdM3-7Qm1JE/</text>
<text x="302" y="1633" fill="#999" font-size="10">[~]</text>
<circle cx="51" cy="1655" r="9" fill="#8fb8de" stroke="#2f6fb0" stroke-width="2"/>
<text x="68" y="1659" fill="#333">Jurassic World Dominion opening weekend Portu…</text>
<circle cx="77" cy="1681" r="9" fill="#e2e2e2" stroke="#999999" stroke-width="2"/>
<text x="94" y="1685" fill="#333">www.boxofficemojo.com/release/rl4043671041/</text>
<text x="371" y="1685" fill="#999" font-size="10">[~]</text>
<circle cx="77" cy="1707" r="9" fill="#e2e2e2" stroke="#999999" stroke-width="2"/>
<text x="94" y="1711" fill="#333">www.the-numbers.com/…/Jurassic-World-Dominio</text>
<text x="377" y="1711" fill="#999" font-size="10">[~]</text>
<circle cx="77" cy="1733" r="9" fill="#e2e2e2" stroke="#999999" stroke-width="2"/>
<text x="94" y="1737" fill="#333">www.facebook.com/…/PrattPrattPratt/videos/ju</text>
<text x="377" y="1737" fill="#999" font-size="10">[×]</text>
<circle cx="77" cy="1759" r="9" fill="#e2e2e2" stroke="#999999" stroke-width="2"/>
<text x="94" y="1763" fill="#333">tv.apple.com/…/umc.cmc.4bjj3kj10p3h3pih1hi30</text>
<text x="377" y="1763" fill="#999" font-size="10">[~]</text>
<circle cx="77" cy="1785" r="9" fill="#e2e2e2" stroke="#999999" stroke-width="2"/>
<text x="94" y="1789" fill="#333">en.wikipedia.org/…/Jurassic_World_Dominion</text>
<text x="364" y="1789" fill="#999" font-size="10">[~]</text>
<circle cx="77" cy="1811" r="9" fill="#e2e2e2" stroke="#999999" stroke-width="2"/>
<text x="94" y="1815" fill="#333">deadline.com/…/2022/06/jurassic-world-domini</text>
<text x="377" y="1815" fill="#999" font-size="10">[~]</text>
</svg>