<svg xmlns="http://www.w3.org/2000/svg" width="695" height="778" viewBox="0 0 695 778" font-family="monospace" font-size="11">
<rect width="695" height="778" fill="#fbfbfb"/>
<text x="16" y="17" font-size="13" fill="#222">q · According to Clemson University variety evaluations, which farm produced the la…</text>
<text x="16" y="33" fill="#777">depthsearch · searches 10 · fetches 9 · expansion 4 · depth 3 · finalized</text>
<circle cx="18" cy="49" r="5" fill="#8fb8de" stroke="#2f6fb0" stroke-width="2"/><text x="27" y="53" fill="#888" font-size="10">search</text><circle cx="77.6" cy="49" r="5" fill="#8fd6ab" stroke="#2e8b57" stroke-width="2"/><text x="86.6" y="53" fill="#888" font-size="10">fetch</text><circle cx="131.6" cy="49" r="5" fill="#f0c47a" stroke="#d08a2c" stroke-width="2"/><text x="140.6" y="53" fill="#888" font-size="10">expand d>=2</text><circle cx="219.2" cy="49" r="5" fill="#e2e2e2" stroke="#999999" stroke-width="2"/><text x="228.2" y="53" fill="#888" font-size="10">auto doc</text><circle cx="290" cy="49" r="5" fill="#fff" stroke="#c0392b" stroke-width="2"/><text x="299" y="53" fill="#888" font-size="10">failed / refused</text>
<path d="M25 78 V693" fill="none" stroke="#c8c8c8" stroke-width="1"/>
<path d="M25 95 H42" fill="none" stroke="#c8c8c8" stroke-width="1"/>
<path d="M25 121 H42" fill="none" stroke="#c8c8c8" stroke-width="1"/>
<path d="M25 147 H42" fill="none" stroke="#c8c8c8" stroke-width="1"/>
<path d="M25 303 H42" fill="none" stroke="#c8c8c8" stroke-width="1"/>
<path d="M25 329 H42" fill="none" stroke="#c8c8c8" stroke-width="1"/>
<path d="M25 355 H42" fill="none" stroke="#c8c8c8" stroke-width="1"/>
<path d="M25 381 H42" fill="none" stroke="#c8c8c8" stroke-width="1"/>
<path d="M25 407 H42" fill="none" stroke="#c8c8c8" stroke-width="1"/>
<path d="M25 433 H42" fill="none" stroke="#c8c8c8" stroke-width="1"/>
<path d="M25 459 H42" fill="none" stroke="#c8c8c8" stroke-width="1"/>
<path d="M25 485 H42" fill="none" stroke="#c8c8c8" stroke-width="1"/>
<path d="M25 511 H42" fill="none" stroke="#c8c8c8" stroke-width="1"/>
<path d="M25 537 H42" fill="none" stroke="#c8c8c8" stroke-width="1"/>
<path d="M25 563 H42" fill="none" stroke="#c8c8c8" stroke-width="1"/>
<path d="M25 589 H42" fill="none" stroke="#c8c8c8" stroke-width="1"/>
<path d="M25 615 H42" fill="none" stroke="#c8c8c8" stroke-width="1"/>
<path d="M25 641 H42" fill="none" stroke="#c8c8c8" stroke-width="1"/>
<path d="M25 667 H42" fill="none" stroke="#c8c8c8" stroke-width="1"/>
<path d="M25 693 H42" fill="none" stroke="#c8c8c8" stroke-width="1"/>
<path d="M51 156 V277" fill="none" stroke="#c8c8c8" stroke-width="1"/>
<path d="M51 173 H68" fill="none" stroke="#c8c8c8" stroke-width="1"/>
<path d="M51 251 H68" fill="none" stroke="#c8c8c8" stroke-width="1"/>
<path d="M51 277 H68" fill="none" stroke="#c8c8c8" stroke-width="1"/>
<path d="M77 182 V225" fill="none" stroke="#c8c8c8" stroke-width="1"/>
<path d="M77 199 H94" fill="none" stroke="#c8c8c8" stroke-width="1"/>
<path d="M77 225 H94" fill="none" stroke="#c8c8c8" stroke-width="1"/>
<path d="M51 702 V745" fill="none" stroke="#c8c8c8" stroke-width="1"/>
<path d="M51 719 H68" fill="none" stroke="#c8c8c8" stroke-width="1"/>
<path d="M51 745 H68" fill="none" stroke="#c8c8c8" stroke-width="1"/>
<circle cx="25" cy="69" r="9" fill="#d9d9d9" stroke="#666666" stroke-width="2"/>
<text x="42" y="73" fill="#333">According to Clemson University variety evaluations, which …</text>
<circle cx="51" cy="95" r="9" fill="#8fb8de" stroke="#2f6fb0" stroke-width="2"/>
<text x="68" y="99" fill="#333">Clemson University variety evaluations larges…</text>
<circle cx="51" cy="121" r="9" fill="#8fb8de" stroke="#2f6fb0" stroke-width="2"/>
<text x="68" y="125" fill="#333">Clemson variety evaluations 2020 farm produce…</text>
<circle cx="51" cy="147" r="9" fill="#8fd6ab" stroke="#2e8b57" stroke-width="2"/>
<text x="68" y="151" fill="#333">www.clemsonpeach.org/index.php?p=73</text>
<circle cx="77" cy="173" r="9" fill="#f0c47a" stroke="#d08a2c" stroke-width="2"/>
<text x="94" y="177" fill="#333">www.clemsonpeach.org/…/index.php?p=180&amp;locat</text>
<text x="377" y="177" fill="#999" font-size="10">[d2 ~ complete]</text>
<circle cx="103" cy="199" r="9" fill="#f0c47a" stroke="#d08a2c" stroke-width="2"/>
<text x="120" y="203" fill="#333">www.clemsonpeach.org/…/index.php?p=180&amp;locat</text>
<text x="403" y="203" fill="#999" font-size="10">[d3 ~ complete]</text>
<circle cx="103" cy="225" r="9" fill="#f0c47a" stroke="#d08a2c" stroke-width="2"/>
<text x="120" y="229" fill="#333">www.clemsonpeach.org/…/index.php?p=180&amp;year=</text>
<text x="403" y="229" fill="#999" font-size="10">[d3 ~ complete]</text>
<circle cx="77" cy="251" r="9" fill="#f0c47a" stroke="#d08a2c" stroke-width="2"/>
<text x="94" y="255" fill="#333">www.clemsonpeach.org/…/index.php?p=180&amp;year=</text>
<text x="377" y="255" fill="#999" font-size="10">[saved note]</text>
<circle cx="77" cy="277" r="9" fill="#f0c47a" stroke="#d08a2c" stroke-width="2"/>
<text x="94" y="281" fill="#333">www.clemsonpeach.org/…/index.php?p=180&amp;year=</text>
<text x="377" y="281" fill="#999" font-size="10">[saved note]</text>
<circle cx="51" cy="303" r="9" fill="#8fb8de" stroke="#2f6fb0" stroke-width="2"/>
<text x="68" y="307" fill="#333">"Arctic Pride" "Size" 2020 "Clemson"</text>
<circle cx="51" cy="329" r="9" fill="#8fb8de" stroke="#2f6fb0" stroke-width="2"/>
<text x="68" y="333" fill="#333">site:clemsonpeach.org "Size" 7.2 2020"</text>
<circle cx="51" cy="355" r="9" fill="#8fd6ab" stroke="#2e8b57" stroke-width="2"/>
<text x="68" y="359" fill="#333">www.clemsonpeach.org/index.php?p=181&amp;e=5433</text>
<circle cx="51" cy="381" r="9" fill="#8fb8de" stroke="#2f6fb0" stroke-width="2"/>
<text x="68" y="385" fill="#333">"2020 Peach Evaluations" Clemson farm largest…</text>
<circle cx="51" cy="407" r="9" fill="#8fd6ab" stroke="#2e8b57" stroke-width="2"/>
<text x="68" y="411" fill="#333">www.clemsonpeach.org/…/index.php?p=180&amp;year=</text>
<circle cx="51" cy="433" r="9" fill="#8fb8de" stroke="#2f6fb0" stroke-width="2"/>
<text x="68" y="437" fill="#333">Arctic Pride 2020 Clemson peach variety evalu…</text>
<circle cx="51" cy="459" r="9" fill="#8fb8de" stroke="#2f6fb0" stroke-width="2"/>
<text x="68" y="463" fill="#333">Arctic Pride 2020 "Clemson" "p=181" "e"</text>
<circle cx="51" cy="485" r="9" fill="#8fb8de" stroke="#2f6fb0" stroke-width="2"/>
<text x="68" y="489" fill="#333">site:clemsonpeach.org "Size" 7.2 "2020" "p=18…</text>
<circle cx="51" cy="511" r="9" fill="#8fb8de" stroke="#2f6fb0" stroke-width="2"/>
<text x="68" y="515" fill="#333">Clemson 2020 Size 7.2 "peach" "Musser"</text>
<circle cx="51" cy="537" r="9" fill="#8fd6ab" stroke="#2e8b57" stroke-width="2"/>
<text x="68" y="541" fill="#333">www.clemsonpeach.org/…/index.php?p=180&amp;year=</text>
<circle cx="51" cy="563" r="9" fill="#8fb8de" stroke="#2f6fb0" stroke-width="2"/>
<text x="68" y="567" fill="#333">site:clemsonpeach.org "Size" 7.2 "2020" "e="</text>
<circle cx="51" cy="589" r="9" fill="#8fd6ab" stroke="#2e8b57" stroke-width="2"/>
<text x="68" y="593" fill="#333">www.clemsonpeach.org/index.php?p=181&amp;e=5412</text>
<circle cx="51" cy="615" r="9" fill="#8fd6ab" stroke="#2e8b57" stroke-width="2"/>
<text x="68" y="619" fill="#333">www.clemsonpeach.org/…/index.php?p=180&amp;year=</text>
<circle cx="51" cy="641" r="9" fill="#8fd6ab" stroke="#2e8b57" stroke-width="2"/>
<text x="68" y="645" fill="#333">www.clemsonpeach.org/…/index.php?p=180&amp;year=</text>
<circle cx="51" cy="667" r="9" fill="#8fd6ab" stroke="#2e8b57" stroke-width="2"/>
<text x="68" y="671" fill="#333">www.clemsonpeach.org/…/index.php?p=180&amp;year=</text>
<circle cx="51" cy="693" r="9" fill="#8fd6ab" stroke="#2e8b57" stroke-width="2"/>
<text x="68" y="697" fill="#333">www.clemsonpeach.org/…/index.php?p=180&amp;locat</text>
<circle cx="77" cy="719" r="9" fill="#f0c47a" stroke="#d08a2c" stroke-width="2"/>
<text x="94" y="723" fill="#333">www.clemsonpeach.org/…/index.php?p=180&amp;year=</text>
<text x="377" y="723" fill="#999" font-size="10">[saved note]</text>
<circle cx="77" cy="745" r="9" fill="#f0c47a" stroke="#d08a2c" stroke-width="2"/>
<text x="94" y="749" fill="#333">www.clemsonpeach.org/index.php?p=181&amp;e=5426</text>
<text x="371" y="749" fill="#999" font-size="10">[d2 ~ complete]</text>
</svg>