<svg xmlns="http://www.w3.org/2000/svg" width="695" height="1272" viewBox="0 0 695 1272" font-family="monospace" font-size="11">
<rect width="695" height="1272" fill="#fbfbfb"/>
<text x="16" y="17" font-size="13" fill="#222">q · There is an HBO series that aired between the years 2018 and 2022 included. In …</text>
<text x="16" y="33" fill="#777">depthsearch · searches 9 · fetches 0 · expansion 8 · depth 2 · finalized</text>
<circle cx="18" cy="49" r="5" fill="#8fb8de" stroke="#2f6fb0" stroke-width="2"/><text x="27" y="53" fill="#888" font-size="10">search</text><circle cx="77.6" cy="49" r="5" fill="#8fd6ab" stroke="#2e8b57" stroke-width="2"/><text x="86.6" y="53" fill="#888" font-size="10">fetch</text><circle cx="131.6" cy="49" r="5" fill="#f0c47a" stroke="#d08a2c" stroke-width="2"/><text x="140.6" y="53" fill="#888" font-size="10">expand d>=2</text><circle cx="219.2" cy="49" r="5" fill="#e2e2e2" stroke="#999999" stroke-width="2"/><text x="228.2" y="53" fill="#888" font-size="10">auto doc</text><circle cx="290" cy="49" r="5" fill="#fff" stroke="#c0392b" stroke-width="2"/><text x="299" y="53" fill="#888" font-size="10">failed / refused</text>
<path d="M25 78 V1239" fill="none" stroke="#c8c8c8" stroke-width="1"/>
<path d="M25 95 H42" fill="none" stroke="#c8c8c8" stroke-width="1"/>
<path d="M25 277 H42" fill="none" stroke="#c8c8c8" stroke-width="1"/>
<path d="M25 355 H42" fill="none" stroke="#c8c8c8" stroke-width="1"/>
<path d="M25 563 H42" fill="none" stroke="#c8c8c8" stroke-width="1"/>
<path d="M25 641 H42" fill="none" stroke="#c8c8c8" stroke-width="1"/>
<path d="M25 719 H42" fill="none" stroke="#c8c8c8" stroke-width="1"/>
<path d="M25 849 H42" fill="none" stroke="#c8c8c8" stroke-width="1"/>
<path d="M25 979 H42" fill="none" stroke="#c8c8c8" stroke-width="1"/>
<path d="M25 1083 H42" fill="none" stroke="#c8c8c8" stroke-width="1"/>
<path d="M25 1239 H42" fill="none" stroke="#c8c8c8" stroke-width="1"/>
<path d="M51 104 V251" fill="none" stroke="#c8c8c8" stroke-width="1"/>
<path d="M51 121 H68" fill="none" stroke="#c8c8c8" stroke-width="1"/>
<path d="M51 147 H68" fill="none" stroke="#c8c8c8" stroke-width="1"/>
<path d="M51 173 H68" fill="none" stroke="#c8c8c8" stroke-width="1"/>
<path d="M51 199 H68" fill="none" stroke="#c8c8c8" stroke-width="1"/>
<path d="M51 225 H68" fill="none" stroke="#c8c8c8" stroke-width="1"/>
<path d="M51 251 H68" fill="none" stroke="#c8c8c8" stroke-width="1"/>
<path d="M51 286 V329" fill="none" stroke="#c8c8c8" stroke-width="1"/>
<path d="M51 303 H68" fill="none" stroke="#c8c8c8" stroke-width="1"/>
<path d="M51 329 H68" fill="none" stroke="#c8c8c8" stroke-width="1"/>
<path d="M51 364 V537" fill="none" stroke="#c8c8c8" stroke-width="1"/>
<path d="M51 381 H68" fill="none" stroke="#c8c8c8" stroke-width="1"/>
<path d="M51 407 H68" fill="none" stroke="#c8c8c8" stroke-width="1"/>
<path d="M51 433 H68" fill="none" stroke="#c8c8c8" stroke-width="1"/>
<path d="M51 459 H68" fill="none" stroke="#c8c8c8" stroke-width="1"/>
<path d="M51 485 H68" fill="none" stroke="#c8c8c8" stroke-width="1"/>
<path d="M51 511 H68" fill="none" stroke="#c8c8c8" stroke-width="1"/>
<path d="M51 537 H68" fill="none" stroke="#c8c8c8" stroke-width="1"/>
<path d="M51 572 V615" fill="none" stroke="#c8c8c8" stroke-width="1"/>
<path d="M51 589 H68" fill="none" stroke="#c8c8c8" stroke-width="1"/>
<path d="M51 615 H68" fill="none" stroke="#c8c8c8" stroke-width="1"/>
<path d="M51 650 V693" fill="none" stroke="#c8c8c8" stroke-width="1"/>
<path d="M51 667 H68" fill="none" stroke="#c8c8c8" stroke-width="1"/>
<path d="M51 693 H68" fill="none" stroke="#c8c8c8" stroke-width="1"/>
<path d="M51 728 V823" fill="none" stroke="#c8c8c8" stroke-width="1"/>
<path d="M51 745 H68" fill="none" stroke="#c8c8c8" stroke-width="1"/>
<path d="M51 771 H68" fill="none" stroke="#c8c8c8" stroke-width="1"/>
<path d="M51 797 H68" fill="none" stroke="#c8c8c8" stroke-width="1"/>
<path d="M51 823 H68" fill="none" stroke="#c8c8c8" stroke-width="1"/>
<path d="M51 858 V953" fill="none" stroke="#c8c8c8" stroke-width="1"/>
<path d="M51 875 H68" fill="none" stroke="#c8c8c8" stroke-width="1"/>
<path d="M51 901 H68" fill="none" stroke="#c8c8c8" stroke-width="1"/>
<path d="M51 927 H68" fill="none" stroke="#c8c8c8" stroke-width="1"/>
<path d="M51 953 H68" fill="none" stroke="#c8c8c8" stroke-width="1"/>
<path d="M51 988 V1057" fill="none" stroke="#c8c8c8" stroke-width="1"/>
<path d="M51 1005 H68" fill="none" stroke="#c8c8c8" stroke-width="1"/>
<path d="M51 1031 H68" fill="none" stroke="#c8c8c8" stroke-width="1"/>
<path d="M51 1057 H68" fill="none" stroke="#c8c8c8" stroke-width="1"/>
<path d="M51 1092 V1213" fill="none" stroke="#c8c8c8" stroke-width="1"/>
<path d="M51 1109 H68" fill="none" stroke="#c8c8c8" stroke-width="1"/>
<path d="M51 1135 H68" fill="none" stroke="#c8c8c8" stroke-width="1"/>
<path d="M51 1161 H68" fill="none" stroke="#c8c8c8" stroke-width="1"/>
<path d="M51 1187 H68" fill="none" stroke="#c8c8c8" stroke-width="1"/>
<path d="M51 1213 H68" fill="none" stroke="#c8c8c8" stroke-width="1"/>
<circle cx="25" cy="69" r="9" fill="#d9d9d9" stroke="#666666" stroke-width="2"/>
<text x="42" y="73" fill="#333">There is an HBO series that aired between the years 2018 an…</text>
<circle cx="51" cy="95" r="9" fill="#8fb8de" stroke="#2f6fb0" stroke-width="2"/>
<text x="68" y="99" fill="#333">HBO series season 1 episode 7 opening track a…</text>
<circle cx="77" cy="121" r="9" fill="#e2e2e2" stroke="#999999" stroke-width="2"/>
<text x="94" y="125" fill="#333">www.tiktok.com/…/7630857218480557320</text>
<text x="327" y="125" fill="#999" font-size="10">[~]</text>
<circle cx="77" cy="147" r="9" fill="#f0c47a" stroke="#c0392b" stroke-width="3"/>
<text x="94" y="151" fill="#333">www.tiktok.com/…/original-sound-762945067436</text>
<text x="377" y="151" fill="#999" font-size="10">[d2 × complete]</text>
<circle cx="77" cy="173" r="9" fill="#e2e2e2" stroke="#999999" stroke-width="2"/>
<text x="94" y="177" fill="#333">www.tiktok.com/…/7581486345105771790</text>
<text x="327" y="177" fill="#999" font-size="10">[~]</text>
<circle cx="77" cy="199" r="9" fill="#f0c47a" stroke="#c0392b" stroke-width="3"/>
<text x="94" y="203" fill="#333">www.tiktok.com/…/original-sound-758148655058</text>
<text x="377" y="203" fill="#999" font-size="10">[d2 ~ partial_failure]</text>
<circle cx="77" cy="225" r="9" fill="#e2e2e2" stroke="#999999" stroke-width="2"/>
<text x="94" y="229" fill="#333">open.spotify.com/…/6iUHtUg37nDYFlE5JNHJ0y</text>
<text x="358" y="229" fill="#999" font-size="10">[~]</text>
<circle cx="77" cy="251" r="9" fill="#e2e2e2" stroke="#999999" stroke-width="2"/>
<text x="94" y="255" fill="#333">www.reddit.com/…/r/IMayDestroyYou_HBO/commen</text>
<text x="377" y="255" fill="#999" font-size="10">[~]</text>
<circle cx="51" cy="277" r="9" fill="#8fb8de" stroke="#2f6fb0" stroke-width="2"/>
<text x="68" y="281" fill="#333">"season 1" "episode 7" "amapiano" HBO opening…</text>
<circle cx="77" cy="303" r="9" fill="#e2e2e2" stroke="#999999" stroke-width="2"/>
<text x="94" y="307" fill="#333">www.tiktok.com/…/7210041741099945221</text>
<text x="327" y="307" fill="#999" font-size="10">[×]</text>
<circle cx="77" cy="329" r="9" fill="#e2e2e2" stroke="#999999" stroke-width="2"/>
<text x="94" y="333" fill="#333">www.tiktok.com/…/7577865415951453448</text>
<text x="327" y="333" fill="#999" font-size="10">[×]</text>
<circle cx="51" cy="355" r="9" fill="#8fb8de" stroke="#2f6fb0" stroke-width="2"/>
<text x="68" y="359" fill="#333">Njelic song Amapiano "HBO"</text>
<circle cx="77" cy="381" r="9" fill="#e2e2e2" stroke="#999999" stroke-width="2"/>
<text x="94" y="385" fill="#333">www.tiktok.com/…/7535913813456030982</text>
<text x="327" y="385" fill="#999" font-size="10">[~]</text>
<circle cx="77" cy="407" r="9" fill="#f0c47a" stroke="#c0392b" stroke-width="3"/>
<text x="94" y="411" fill="#333">www.tiktok.com/…/original-sound-753591382839</text>
<text x="377" y="411" fill="#999" font-size="10">[d2 × complete]</text>
<circle cx="77" cy="433" r="9" fill="#f0c47a" stroke="#c0392b" stroke-width="3"/>
<text x="94" y="437" fill="#333">www.tiktok.com/@njelic</text>
<text x="240" y="437" fill="#999" font-size="10">[d2 × complete]</text>
<circle cx="77" cy="459" r="9" fill="#e2e2e2" stroke="#999999" stroke-width="2"/>
<text x="94" y="463" fill="#333">www.tiktok.com/…/7620761712232369425</text>
<text x="327" y="463" fill="#999" font-size="10">[~]</text>
<circle cx="77" cy="485" r="9" fill="#f0c47a" stroke="#d08a2c" stroke-width="2"/>
<text x="94" y="489" fill="#333">www.tiktok.com/…/original-sound-762076192902</text>
<text x="377" y="489" fill="#999" font-size="10">[d2 ~ complete]</text>
<circle cx="77" cy="511" r="9" fill="#f0c47a" stroke="#d08a2c" stroke-width="2"/>
<text x="94" y="515" fill="#333">www.tiktok.com/@njelic_</text>
<text x="247" y="515" fill="#999" font-size="10">[d2 ~ complete]</text>
<circle cx="77" cy="537" r="9" fill="#e2e2e2" stroke="#999999" stroke-width="2"/>
<text x="94" y="541" fill="#333">www.tiktok.com/…/7660985211391331591</text>
<text x="327" y="541" fill="#999" font-size="10">[~]</text>
<circle cx="51" cy="563" r="9" fill="#8fb8de" stroke="#2f6fb0" stroke-width="2"/>
<text x="68" y="567" fill="#333">"Insecure" "Season 1" "Episode 7" "audio"</text>
<circle cx="77" cy="589" r="9" fill="#e2e2e2" stroke="#999999" stroke-width="2"/>
<text x="94" y="593" fill="#333">www.hbomax.com/…/0cfdb0b4-bde0-40a0-9f04-615</text>
<text x="377" y="593" fill="#999" font-size="10">[~]</text>
<circle cx="77" cy="615" r="9" fill="#e2e2e2" stroke="#999999" stroke-width="2"/>
<text x="94" y="619" fill="#333">www.primevideo.com/…/0HV1LM24K7RTW90TI9H7YVL</text>
<text x="377" y="619" fill="#999" font-size="10">[~]</text>
<circle cx="51" cy="641" r="9" fill="#8fb8de" stroke="#2f6fb0" stroke-width="2"/>
<text x="68" y="645" fill="#333">Njelic dropped out of school grade 11 2022 ar…</text>
<circle cx="77" cy="667" r="9" fill="#e2e2e2" stroke="#999999" stroke-width="2"/>
<text x="94" y="671" fill="#333">en.wikipedia.org/wiki/De_Mthuda</text>
<text x="296" y="671" fill="#999" font-size="10">[~]</text>
<circle cx="77" cy="693" r="9" fill="#e2e2e2" stroke="#999999" stroke-width="2"/>
<text x="94" y="697" fill="#333">zerodropout.co.za/…/ZERO-DROPOUT-PUBLICATION</text>
<text x="377" y="697" fill="#999" font-size="10">[×]</text>
<circle cx="51" cy="719" r="9" fill="#8fb8de" stroke="#2f6fb0" stroke-width="2"/>
<text x="68" y="723" fill="#333">Njelic soccer high school deejay 2022 article</text>
<circle cx="77" cy="745" r="9" fill="#e2e2e2" stroke="#999999" stroke-width="2"/>
<text x="94" y="749" fill="#333">briefly.co.za/…/facts-lifehacks/celebrities-</text>
<text x="377" y="749" fill="#999" font-size="10">[~]</text>
<circle cx="77" cy="771" r="9" fill="#e2e2e2" stroke="#999999" stroke-width="2"/>
<text x="94" y="775" fill="#333">www.tiktok.com/…/7496252929049906474</text>
<text x="327" y="775" fill="#999" font-size="10">[×]</text>
<circle cx="77" cy="797" r="9" fill="#e2e2e2" stroke="#999999" stroke-width="2"/>
<text x="94" y="801" fill="#333">www.facebook.com/…/TimesLIVE/posts/multi-awa</text>
<text x="377" y="801" fill="#999" font-size="10">[~]</text>
<circle cx="77" cy="823" r="9" fill="#e2e2e2" stroke="#999999" stroke-width="2"/>
<text x="94" y="827" fill="#333">www.tiktok.com/…/7302056193038535942</text>
<text x="327" y="827" fill="#999" font-size="10">[×]</text>
<circle cx="51" cy="849" r="9" fill="#8fb8de" stroke="#2f6fb0" stroke-width="2"/>
<text x="68" y="853" fill="#333">Amapiano genre emerged 2012 South Africa</text>
<circle cx="77" cy="875" r="9" fill="#e2e2e2" stroke="#999999" stroke-width="2"/>
<text x="94" y="879" fill="#333">en.wikipedia.org/wiki/Amapiano</text>
<text x="290" y="879" fill="#999" font-size="10">[~]</text>
<circle cx="77" cy="901" r="9" fill="#e2e2e2" stroke="#999999" stroke-width="2"/>
<text x="94" y="905" fill="#333">musicorigins.org/item/amapiano/</text>
<text x="296" y="905" fill="#999" font-size="10">[~]</text>
<circle cx="77" cy="927" r="9" fill="#e2e2e2" stroke="#999999" stroke-width="2"/>
<text x="94" y="931" fill="#333">www.edmprod.com/what-is-amapiano/</text>
<text x="309" y="931" fill="#999" font-size="10">[~]</text>
<circle cx="77" cy="953" r="9" fill="#e2e2e2" stroke="#999999" stroke-width="2"/>
<text x="94" y="957" fill="#333">www.facebook.com/…/thecableng/posts/amapiano</text>
<text x="377" y="957" fill="#999" font-size="10">[~]</text>
<circle cx="51" cy="979" r="9" fill="#8fb8de" stroke="#2f6fb0" stroke-width="2"/>
<text x="68" y="983" fill="#333">"Insecure" "S1E7" opening track "amapiano"</text>
<circle cx="77" cy="1005" r="9" fill="#e2e2e2" stroke="#999999" stroke-width="2"/>
<text x="94" y="1009" fill="#333">www.tiktok.com/…/7638905511684951314</text>
<text x="327" y="1009" fill="#999" font-size="10">[×]</text>
<circle cx="77" cy="1031" r="9" fill="#e2e2e2" stroke="#999999" stroke-width="2"/>
<text x="94" y="1035" fill="#333">www.tiktok.com/…/original-sound-ftvrutubl9-7</text>
<text x="377" y="1035" fill="#999" font-size="10">[~]</text>
<circle cx="77" cy="1057" r="9" fill="#e2e2e2" stroke="#999999" stroke-width="2"/>
<text x="94" y="1061" fill="#333">www.facebook.com/…/ShowmaxBW/videos/buhle-is</text>
<text x="377" y="1061" fill="#999" font-size="10">[~]</text>
<circle cx="51" cy="1083" r="9" fill="#8fb8de" stroke="#2f6fb0" stroke-width="2"/>
<text x="68" y="1087" fill="#333">De Mthuda dropped out grade 11 2022 article</text>
<circle cx="77" cy="1109" r="9" fill="#e2e2e2" stroke="#999999" stroke-width="2"/>
<text x="94" y="1113" fill="#333">briefly.co.za/…/facts-lifehacks/celebrities-</text>
<text x="377" y="1113" fill="#999" font-size="10">[~]</text>
<circle cx="77" cy="1135" r="9" fill="#e2e2e2" stroke="#999999" stroke-width="2"/>
<text x="94" y="1139" fill="#333">mg.co.za/…/friday/2021-11-29-meet-de-mthuda-</text>
<text x="377" y="1139" fill="#999" font-size="10">[~]</text>
<circle cx="77" cy="1161" r="9" fill="#f0c47a" stroke="#c0392b" stroke-width="3"/>
<text x="94" y="1165" fill="#333">mg.co.za/tag/njelic/</text>
<text x="228" y="1165" fill="#999" font-size="10">[d2 × complete]</text>
<circle cx="77" cy="1187" r="9" fill="#f0c47a" stroke="#c0392b" stroke-width="3"/>
<text x="94" y="1191" fill="#333">mg.co.za/search/?q=njelic+soccer</text>
<text x="302" y="1191" fill="#999" font-size="10">[d2 × complete]</text>
<circle cx="77" cy="1213" r="9" fill="#e2e2e2" stroke="#999999" stroke-width="2"/>
<text x="94" y="1217" fill="#333">www.facebook.com/…/TheGrooviests/posts/we-ha</text>
<text x="377" y="1217" fill="#999" font-size="10">[~]</text>
<circle cx="51" cy="1239" r="9" fill="#8fb8de" stroke="#c0392b" stroke-width="3"/>
<text x="68" y="1243" fill="#333">(no query)</text>
<text x="140" y="1243" fill="#999" font-size="10">[예산 초과]</text>
</svg>