<svg xmlns="http://www.w3.org/2000/svg" width="695" height="726" viewBox="0 0 695 726" font-family="monospace" font-size="11">
<rect width="695" height="726" fill="#fbfbfb"/>
<text x="16" y="17" font-size="13" fill="#222">q · List the railroad accidents investigated by the NTSB with incident dates in 202…</text>
<text x="16" y="33" fill="#777">depthsearch · searches 10 · fetches 10 · expansion 1 · depth 2 · finalized</text>
<circle cx="18" cy="49" r="5" fill="#8fb8de" stroke="#2f6fb0" stroke-width="2"/><text x="27" y="53" fill="#888" font-size="10">search</text><circle cx="77.6" cy="49" r="5" fill="#8fd6ab" stroke="#2e8b57" stroke-width="2"/><text x="86.6" y="53" fill="#888" font-size="10">fetch</text><circle cx="131.6" cy="49" r="5" fill="#f0c47a" stroke="#d08a2c" stroke-width="2"/><text x="140.6" y="53" fill="#888" font-size="10">expand d>=2</text><circle cx="219.2" cy="49" r="5" fill="#e2e2e2" stroke="#999999" stroke-width="2"/><text x="228.2" y="53" fill="#888" font-size="10">auto doc</text><circle cx="290" cy="49" r="5" fill="#fff" stroke="#c0392b" stroke-width="2"/><text x="299" y="53" fill="#888" font-size="10">failed / refused</text>
<path d="M25 78 V693" fill="none" stroke="#c8c8c8" stroke-width="1"/>
<path d="M25 95 H42" fill="none" stroke="#c8c8c8" stroke-width="1"/>
<path d="M25 121 H42" fill="none" stroke="#c8c8c8" stroke-width="1"/>
<path d="M25 147 H42" fill="none" stroke="#c8c8c8" stroke-width="1"/>
<path d="M25 173 H42" fill="none" stroke="#c8c8c8" stroke-width="1"/>
<path d="M25 199 H42" fill="none" stroke="#c8c8c8" stroke-width="1"/>
<path d="M25 225 H42" fill="none" stroke="#c8c8c8" stroke-width="1"/>
<path d="M25 251 H42" fill="none" stroke="#c8c8c8" stroke-width="1"/>
<path d="M25 329 H42" fill="none" stroke="#c8c8c8" stroke-width="1"/>
<path d="M25 355 H42" fill="none" stroke="#c8c8c8" stroke-width="1"/>
<path d="M25 381 H42" fill="none" stroke="#c8c8c8" stroke-width="1"/>
<path d="M25 407 H42" fill="none" stroke="#c8c8c8" stroke-width="1"/>
<path d="M25 433 H42" fill="none" stroke="#c8c8c8" stroke-width="1"/>
<path d="M25 459 H42" fill="none" stroke="#c8c8c8" stroke-width="1"/>
<path d="M25 485 H42" fill="none" stroke="#c8c8c8" stroke-width="1"/>
<path d="M25 511 H42" fill="none" stroke="#c8c8c8" stroke-width="1"/>
<path d="M25 537 H42" fill="none" stroke="#c8c8c8" stroke-width="1"/>
<path d="M25 563 H42" fill="none" stroke="#c8c8c8" stroke-width="1"/>
<path d="M25 589 H42" fill="none" stroke="#c8c8c8" stroke-width="1"/>
<path d="M25 615 H42" fill="none" stroke="#c8c8c8" stroke-width="1"/>
<path d="M25 641 H42" fill="none" stroke="#c8c8c8" stroke-width="1"/>
<path d="M25 667 H42" fill="none" stroke="#c8c8c8" stroke-width="1"/>
<path d="M25 693 H42" fill="none" stroke="#c8c8c8" stroke-width="1"/>
<path d="M51 260 V303" fill="none" stroke="#c8c8c8" stroke-width="1"/>
<path d="M51 277 H68" fill="none" stroke="#c8c8c8" stroke-width="1"/>
<path d="M51 303 H68" fill="none" stroke="#c8c8c8" stroke-width="1"/>
<circle cx="25" cy="69" r="9" fill="#d9d9d9" stroke="#666666" stroke-width="2"/>
<text x="42" y="73" fill="#333">List the railroad accidents investigated by the NTSB with i…</text>
<circle cx="51" cy="95" r="9" fill="#8fb8de" stroke="#2f6fb0" stroke-width="2"/>
<text x="68" y="99" fill="#333">NTSB railroad accident report 2022 coastal in…</text>
<circle cx="51" cy="121" r="9" fill="#8fb8de" stroke="#2f6fb0" stroke-width="2"/>
<text x="68" y="125" fill="#333">2020 presidential election Trump won states l…</text>
<circle cx="51" cy="147" r="9" fill="#8fb8de" stroke="#2f6fb0" stroke-width="2"/>
<text x="68" y="151" fill="#333">Trump won in 2020 presidential election states</text>
<circle cx="51" cy="173" r="9" fill="#8fd6ab" stroke="#c0392b" stroke-width="3"/>
<text x="68" y="177" fill="#333">www.fbi.gov/…/more-gen-info-2020-presidentia</text>
<text x="351" y="177" fill="#999" font-size="10">[실패]</text>
<circle cx="51" cy="199" r="9" fill="#8fd6ab" stroke="#2e8b57" stroke-width="2"/>
<text x="68" y="203" fill="#333">en.wikipedia.org/…/2020_United_States_presid</text>
<circle cx="51" cy="225" r="9" fill="#8fb8de" stroke="#2f6fb0" stroke-width="2"/>
<text x="68" y="229" fill="#333">NTSB railroad accident 2022 report number</text>
<circle cx="51" cy="251" r="9" fill="#8fd6ab" stroke="#2e8b57" stroke-width="2"/>
<text x="68" y="255" fill="#333">www.ntsb.gov/…/RRD22LR014.aspx</text>
<circle cx="77" cy="277" r="9" fill="#f0c47a" stroke="#c0392b" stroke-width="3"/>
<text x="94" y="281" fill="#333">www.ntsb.gov/…/Reports.aspx</text>
<text x="271" y="281" fill="#999" font-size="10">[d2 ~ partial_failure]</text>
<circle cx="77" cy="303" r="9" fill="#f0c47a" stroke="#c0392b" stroke-width="3"/>
<text x="94" y="307" fill="#333">www.ntsb.gov/…/Reports.aspx#utm_source=searc</text>
<text x="377" y="307" fill="#999" font-size="10">[saved note]</text>
<circle cx="51" cy="329" r="9" fill="#8fb8de" stroke="#2f6fb0" stroke-width="2"/>
<text x="68" y="333" fill="#333">"RRD22LR" 2022 site:ntsb.gov</text>
<circle cx="51" cy="355" r="9" fill="#8fb8de" stroke="#2f6fb0" stroke-width="2"/>
<text x="68" y="359" fill="#333">NTSB railroad derailment 2022 RRD22LR</text>
<circle cx="51" cy="381" r="9" fill="#8fd6ab" stroke="#2e8b57" stroke-width="2"/>
<text x="68" y="385" fill="#333">en.wikipedia.org/…/2020_United_States_presid</text>
<circle cx="51" cy="407" r="9" fill="#8fd6ab" stroke="#2e8b57" stroke-width="2"/>
<text x="68" y="411" fill="#333">www.ntsb.gov/…/HMD22LR001.aspx</text>
<circle cx="51" cy="433" r="9" fill="#8fb8de" stroke="#2f6fb0" stroke-width="2"/>
<text x="68" y="437" fill="#333">RRD22LR NTSB 2022</text>
<circle cx="51" cy="459" r="9" fill="#8fb8de" stroke="#2f6fb0" stroke-width="2"/>
<text x="68" y="463" fill="#333">site:ntsb.gov "2022" "railroad" "NTSB" "2022"…</text>
<circle cx="51" cy="485" r="9" fill="#8fb8de" stroke="#2f6fb0" stroke-width="2"/>
<text x="68" y="489" fill="#333">2022 NTSB railroad incident report RMD22LR</text>
<circle cx="51" cy="511" r="9" fill="#8fd6ab" stroke="#2e8b57" stroke-width="2"/>
<text x="68" y="515" fill="#333">www.ntsb.gov/…/2022%20Annual%20Report%20to%2</text>
<circle cx="51" cy="537" r="9" fill="#8fb8de" stroke="#2f6fb0" stroke-width="2"/>
<text x="68" y="541" fill="#333">RRD22LR site:ntsb.gov "2022" "Railroad"</text>
<circle cx="51" cy="563" r="9" fill="#8fb8de" stroke="#c0392b" stroke-width="3"/>
<text x="68" y="567" fill="#333">NTSB railroad accident 2022 report id</text>
<text x="307" y="567" fill="#999" font-size="10">[예산 초과]</text>
<circle cx="51" cy="589" r="9" fill="#8fb8de" stroke="#c0392b" stroke-width="3"/>
<text x="68" y="593" fill="#333">HMD22LR</text>
<text x="121" y="593" fill="#999" font-size="10">[예산 초과]</text>
<circle cx="51" cy="615" r="9" fill="#8fd6ab" stroke="#c0392b" stroke-width="3"/>
<text x="68" y="619" fill="#333">www.ntsb.gov/…/rail_accidents.aspx</text>
<text x="289" y="619" fill="#999" font-size="10">[실패]</text>
<circle cx="51" cy="641" r="9" fill="#8fd6ab" stroke="#2e8b57" stroke-width="2"/>
<text x="68" y="645" fill="#333">www.ntsb.gov/…/2022%20Annual%20Report%20to%2</text>
<circle cx="51" cy="667" r="9" fill="#8fd6ab" stroke="#c0392b" stroke-width="3"/>
<text x="68" y="671" fill="#333">www.ntsb.gov/…/HMD22LR002.aspx</text>
<text x="264" y="671" fill="#999" font-size="10">[실패]</text>
<circle cx="51" cy="693" r="9" fill="#8fd6ab" stroke="#2e8b57" stroke-width="2"/>
<text x="68" y="697" fill="#333">www.ntsb.gov/…/2022%20Annual%20Report%20to%2</text>
</svg>