<svg xmlns="http://www.w3.org/2000/svg" width="695" height="596" viewBox="0 0 695 596" font-family="monospace" font-size="11">
<rect width="695" height="596" fill="#fbfbfb"/>
<text x="16" y="17" font-size="13" fill="#222">q · I watched a TV program about a car that debuted in the 1960s. That same year, i…</text>
<text x="16" y="33" fill="#777">depthsearch · searches 5 · fetches 0 · expansion 7 · depth 3 · finalized</text>
<circle cx="18" cy="49" r="5" fill="#8fb8de" stroke="#2f6fb0" stroke-width="2"/><text x="27" y="53" fill="#888" font-size="10">search</text><circle cx="77.6" cy="49" r="5" fill="#8fd6ab" stroke="#2e8b57" stroke-width="2"/><text x="86.6" y="53" fill="#888" font-size="10">fetch</text><circle cx="131.6" cy="49" r="5" fill="#f0c47a" stroke="#d08a2c" stroke-width="2"/><text x="140.6" y="53" fill="#888" font-size="10">expand d>=2</text><circle cx="219.2" cy="49" r="5" fill="#e2e2e2" stroke="#999999" stroke-width="2"/><text x="228.2" y="53" fill="#888" font-size="10">auto doc</text><circle cx="290" cy="49" r="5" fill="#fff" stroke="#c0392b" stroke-width="2"/><text x="299" y="53" fill="#888" font-size="10">failed / refused</text>
<path d="M25 78 V459" fill="none" stroke="#c8c8c8" stroke-width="1"/>
<path d="M25 95 H42" fill="none" stroke="#c8c8c8" stroke-width="1"/>
<path d="M25 147 H42" fill="none" stroke="#c8c8c8" stroke-width="1"/>
<path d="M25 303 H42" fill="none" stroke="#c8c8c8" stroke-width="1"/>
<path d="M25 381 H42" fill="none" stroke="#c8c8c8" stroke-width="1"/>
<path d="M25 459 H42" fill="none" stroke="#c8c8c8" stroke-width="1"/>
<path d="M51 104 V121" fill="none" stroke="#c8c8c8" stroke-width="1"/>
<path d="M51 121 H68" fill="none" stroke="#c8c8c8" stroke-width="1"/>
<path d="M51 156 V277" fill="none" stroke="#c8c8c8" stroke-width="1"/>
<path d="M51 173 H68" fill="none" stroke="#c8c8c8" stroke-width="1"/>
<path d="M51 199 H68" fill="none" stroke="#c8c8c8" stroke-width="1"/>
<path d="M51 277 H68" fill="none" stroke="#c8c8c8" stroke-width="1"/>
<path d="M77 208 V251" fill="none" stroke="#c8c8c8" stroke-width="1"/>
<path d="M77 225 H94" fill="none" stroke="#c8c8c8" stroke-width="1"/>
<path d="M77 251 H94" fill="none" stroke="#c8c8c8" stroke-width="1"/>
<path d="M51 312 V355" fill="none" stroke="#c8c8c8" stroke-width="1"/>
<path d="M51 329 H68" fill="none" stroke="#c8c8c8" stroke-width="1"/>
<path d="M51 355 H68" fill="none" stroke="#c8c8c8" stroke-width="1"/>
<path d="M51 390 V433" fill="none" stroke="#c8c8c8" stroke-width="1"/>
<path d="M51 407 H68" fill="none" stroke="#c8c8c8" stroke-width="1"/>
<path d="M51 433 H68" fill="none" stroke="#c8c8c8" stroke-width="1"/>
<path d="M51 468 V563" fill="none" stroke="#c8c8c8" stroke-width="1"/>
<path d="M51 485 H68" fill="none" stroke="#c8c8c8" stroke-width="1"/>
<path d="M51 511 H68" fill="none" stroke="#c8c8c8" stroke-width="1"/>
<path d="M51 563 H68" fill="none" stroke="#c8c8c8" stroke-width="1"/>
<path d="M77 520 V537" fill="none" stroke="#c8c8c8" stroke-width="1"/>
<path d="M77 537 H94" fill="none" stroke="#c8c8c8" stroke-width="1"/>
<circle cx="25" cy="69" r="9" fill="#d9d9d9" stroke="#666666" stroke-width="2"/>
<text x="42" y="73" fill="#333">I watched a TV program about a car that debuted in the 1960…</text>
<circle cx="51" cy="95" r="9" fill="#8fb8de" stroke="#2f6fb0" stroke-width="2"/>
<text x="68" y="99" fill="#333">Le Mans 24 Hours early winners French cars do…</text>
<circle cx="77" cy="121" r="9" fill="#e2e2e2" stroke="#999999" stroke-width="2"/>
<text x="94" y="125" fill="#333">en.wikipedia.org/wiki/24_Hours_of_Le_Mans</text>
<text x="358" y="125" fill="#999" font-size="10">[~]</text>
<circle cx="51" cy="147" r="9" fill="#8fb8de" stroke="#2f6fb0" stroke-width="2"/>
<text x="68" y="151" fill="#333">1965 Le Mans driver upset due to design flaw …</text>
<circle cx="77" cy="173" r="9" fill="#e2e2e2" stroke="#999999" stroke-width="2"/>
<text x="94" y="177" fill="#333">en.wikipedia.org/…/1965_24_Hours_of_Le_Mans</text>
<text x="371" y="177" fill="#999" font-size="10">[~]</text>
<circle cx="77" cy="199" r="9" fill="#f0c47a" stroke="#d08a2c" stroke-width="2"/>
<text x="94" y="203" fill="#333">en.wikipedia.org/wiki/Ford_GT40</text>
<text x="296" y="203" fill="#999" font-size="10">[d2 ~ complete]</text>
<circle cx="103" cy="225" r="9" fill="#f0c47a" stroke="#d08a2c" stroke-width="2"/>
<text x="120" y="229" fill="#333">en.wikipedia.org/…/1964_24_Hours_of_Le_Mans</text>
<text x="397" y="229" fill="#999" font-size="10">[d3 ~ complete]</text>
<circle cx="103" cy="251" r="9" fill="#f0c47a" stroke="#d08a2c" stroke-width="2"/>
<text x="120" y="255" fill="#333">en.wikipedia.org/wiki/Ken_Miles</text>
<text x="322" y="255" fill="#999" font-size="10">[d3 ~ complete]</text>
<circle cx="77" cy="277" r="9" fill="#f0c47a" stroke="#d08a2c" stroke-width="2"/>
<text x="94" y="281" fill="#333">en.wikipedia.org/…/index.php?title=1965_24_H</text>
<text x="377" y="281" fill="#999" font-size="10">[d2 ~ complete]</text>
<circle cx="51" cy="303" r="9" fill="#8fb8de" stroke="#2f6fb0" stroke-width="2"/>
<text x="68" y="307" fill="#333">1966 Le Mans GT40 Ken Miles brake rotor issue</text>
<circle cx="77" cy="329" r="9" fill="#e2e2e2" stroke="#999999" stroke-width="2"/>
<text x="94" y="333" fill="#333">www.quora.com/…/Why-did-the-original-Ford-GT</text>
<text x="377" y="333" fill="#999" font-size="10">[~]</text>
<circle cx="77" cy="355" r="9" fill="#e2e2e2" stroke="#999999" stroke-width="2"/>
<text x="94" y="359" fill="#333">www.facebook.com/…/100084738753621/posts/the</text>
<text x="377" y="359" fill="#999" font-size="10">[~]</text>
<circle cx="51" cy="381" r="9" fill="#8fb8de" stroke="#2f6fb0" stroke-width="2"/>
<text x="68" y="385" fill="#333">1965 GT40 driver upset design flaw</text>
<circle cx="77" cy="407" r="9" fill="#e2e2e2" stroke="#999999" stroke-width="2"/>
<text x="94" y="411" fill="#333">autoheritagefoundation.org/…/2023/02/28/the-</text>
<text x="377" y="411" fill="#999" font-size="10">[~]</text>
<circle cx="77" cy="433" r="9" fill="#e2e2e2" stroke="#999999" stroke-width="2"/>
<text x="94" y="437" fill="#333">www.facebook.com/…/KinepolisLuxembourg/posts</text>
<text x="377" y="437" fill="#999" font-size="10">[~]</text>
<circle cx="51" cy="459" r="9" fill="#8fb8de" stroke="#2f6fb0" stroke-width="2"/>
<text x="68" y="463" fill="#333">Ken Miles 1964 protest design flaw</text>
<circle cx="77" cy="485" r="9" fill="#e2e2e2" stroke="#999999" stroke-width="2"/>
<text x="94" y="489" fill="#333">www.motorsportmagazine.com/…/?srsltid=AU7gw4</text>
<text x="377" y="489" fill="#999" font-size="10">[~]</text>
<circle cx="77" cy="511" r="9" fill="#f0c47a" stroke="#d08a2c" stroke-width="2"/>
<text x="94" y="515" fill="#333">www.motorsportmagazine.com/…/database/races/</text>
<text x="377" y="515" fill="#999" font-size="10">[d2 ~ complete]</text>
<circle cx="103" cy="537" r="9" fill="#f0c47a" stroke="#d08a2c" stroke-width="2"/>
<text x="120" y="541" fill="#333">www.motorsportmagazine.com/…/database/champi</text>
<text x="403" y="541" fill="#999" font-size="10">[d3 ~ complete]</text>
<circle cx="77" cy="563" r="9" fill="#f0c47a" stroke="#d08a2c" stroke-width="2"/>
<text x="94" y="567" fill="#333">www.motorsportmagazine.com/…/database/races/</text>
<text x="377" y="567" fill="#999" font-size="10">[d2 ~ complete]</text>
</svg>