<svg xmlns="http://www.w3.org/2000/svg" width="695" height="1116" viewBox="0 0 695 1116" font-family="monospace" font-size="11">
<rect width="695" height="1116" fill="#fbfbfb"/>
<text x="16" y="17" font-size="13" fill="#222">q · - A source, published sometime between January 1, 2008, and December 31, 2018, …</text>
<text x="16" y="33" fill="#777">depthsearch · searches 10 · fetches 0 · expansion 2 · depth 2 · finalized</text>
<circle cx="18" cy="49" r="5" fill="#8fb8de" stroke="#2f6fb0" stroke-width="2"/><text x="27" y="53" fill="#888" font-size="10">search</text><circle cx="77.6" cy="49" r="5" fill="#8fd6ab" stroke="#2e8b57" stroke-width="2"/><text x="86.6" y="53" fill="#888" font-size="10">fetch</text><circle cx="131.6" cy="49" r="5" fill="#f0c47a" stroke="#d08a2c" stroke-width="2"/><text x="140.6" y="53" fill="#888" font-size="10">expand d>=2</text><circle cx="219.2" cy="49" r="5" fill="#e2e2e2" stroke="#999999" stroke-width="2"/><text x="228.2" y="53" fill="#888" font-size="10">auto doc</text><circle cx="290" cy="49" r="5" fill="#fff" stroke="#c0392b" stroke-width="2"/><text x="299" y="53" fill="#888" font-size="10">failed / refused</text>
<path d="M25 78 V979" fill="none" stroke="#c8c8c8" stroke-width="1"/>
<path d="M25 95 H42" fill="none" stroke="#c8c8c8" stroke-width="1"/>
<path d="M25 381 H42" fill="none" stroke="#c8c8c8" stroke-width="1"/>
<path d="M25 407 H42" fill="none" stroke="#c8c8c8" stroke-width="1"/>
<path d="M25 563 H42" fill="none" stroke="#c8c8c8" stroke-width="1"/>
<path d="M25 693 H42" fill="none" stroke="#c8c8c8" stroke-width="1"/>
<path d="M25 849 H42" fill="none" stroke="#c8c8c8" stroke-width="1"/>
<path d="M25 901 H42" fill="none" stroke="#c8c8c8" stroke-width="1"/>
<path d="M25 927 H42" fill="none" stroke="#c8c8c8" stroke-width="1"/>
<path d="M25 953 H42" fill="none" stroke="#c8c8c8" stroke-width="1"/>
<path d="M25 979 H42" fill="none" stroke="#c8c8c8" stroke-width="1"/>
<path d="M51 104 V355" fill="none" stroke="#c8c8c8" stroke-width="1"/>
<path d="M51 121 H68" fill="none" stroke="#c8c8c8" stroke-width="1"/>
<path d="M51 147 H68" fill="none" stroke="#c8c8c8" stroke-width="1"/>
<path d="M51 173 H68" fill="none" stroke="#c8c8c8" stroke-width="1"/>
<path d="M51 199 H68" fill="none" stroke="#c8c8c8" stroke-width="1"/>
<path d="M51 225 H68" fill="none" stroke="#c8c8c8" stroke-width="1"/>
<path d="M51 251 H68" fill="none" stroke="#c8c8c8" stroke-width="1"/>
<path d="M51 277 H68" fill="none" stroke="#c8c8c8" stroke-width="1"/>
<path d="M51 303 H68" fill="none" stroke="#c8c8c8" stroke-width="1"/>
<path d="M51 329 H68" fill="none" stroke="#c8c8c8" stroke-width="1"/>
<path d="M51 355 H68" fill="none" stroke="#c8c8c8" stroke-width="1"/>
<path d="M51 416 V537" fill="none" stroke="#c8c8c8" stroke-width="1"/>
<path d="M51 433 H68" fill="none" stroke="#c8c8c8" stroke-width="1"/>
<path d="M51 459 H68" fill="none" stroke="#c8c8c8" stroke-width="1"/>
<path d="M51 485 H68" fill="none" stroke="#c8c8c8" stroke-width="1"/>
<path d="M51 511 H68" fill="none" stroke="#c8c8c8" stroke-width="1"/>
<path d="M51 537 H68" fill="none" stroke="#c8c8c8" stroke-width="1"/>
<path d="M51 572 V667" fill="none" stroke="#c8c8c8" stroke-width="1"/>
<path d="M51 589 H68" fill="none" stroke="#c8c8c8" stroke-width="1"/>
<path d="M51 615 H68" fill="none" stroke="#c8c8c8" stroke-width="1"/>
<path d="M51 641 H68" fill="none" stroke="#c8c8c8" stroke-width="1"/>
<path d="M51 667 H68" fill="none" stroke="#c8c8c8" stroke-width="1"/>
<path d="M51 702 V823" fill="none" stroke="#c8c8c8" stroke-width="1"/>
<path d="M51 719 H68" fill="none" stroke="#c8c8c8" stroke-width="1"/>
<path d="M51 745 H68" fill="none" stroke="#c8c8c8" stroke-width="1"/>
<path d="M51 771 H68" fill="none" stroke="#c8c8c8" stroke-width="1"/>
<path d="M51 797 H68" fill="none" stroke="#c8c8c8" stroke-width="1"/>
<path d="M51 823 H68" fill="none" stroke="#c8c8c8" stroke-width="1"/>
<path d="M51 858 V875" fill="none" stroke="#c8c8c8" stroke-width="1"/>
<path d="M51 875 H68" fill="none" stroke="#c8c8c8" stroke-width="1"/>
<path d="M51 988 V1083" fill="none" stroke="#c8c8c8" stroke-width="1"/>
<path d="M51 1005 H68" fill="none" stroke="#c8c8c8" stroke-width="1"/>
<path d="M51 1031 H68" fill="none" stroke="#c8c8c8" stroke-width="1"/>
<path d="M51 1057 H68" fill="none" stroke="#c8c8c8" stroke-width="1"/>
<path d="M51 1083 H68" fill="none" stroke="#c8c8c8" stroke-width="1"/>
<circle cx="25" cy="69" r="9" fill="#d9d9d9" stroke="#666666" stroke-width="2"/>
<text x="42" y="73" fill="#333">- A source, published sometime between January 1, 2008, and…</text>
<circle cx="51" cy="95" r="9" fill="#8fb8de" stroke="#2f6fb0" stroke-width="2"/>
<text x="68" y="99" fill="#333">difficulty varies with target laser tag 1979 …</text>
<circle cx="77" cy="121" r="9" fill="#e2e2e2" stroke="#999999" stroke-width="2"/>
<text x="94" y="125" fill="#333">www.retroist.com/p/lazer-tag-changes-a-man</text>
<text x="364" y="125" fill="#999" font-size="10">[~]</text>
<circle cx="77" cy="147" r="9" fill="#e2e2e2" stroke="#999999" stroke-width="2"/>
<text x="94" y="151" fill="#333">en.wikipedia.org/wiki/Laser_tag</text>
<text x="296" y="151" fill="#999" font-size="10">[~]</text>
<circle cx="77" cy="173" r="9" fill="#f0c47a" stroke="#d08a2c" stroke-width="2"/>
<text x="94" y="177" fill="#333">en.wikipedia.org/…/index.php?title=Laser_tag</text>
<text x="377" y="177" fill="#999" font-size="10">[d2 ~ complete]</text>
<circle cx="77" cy="199" r="9" fill="#f0c47a" stroke="#d08a2c" stroke-width="2"/>
<text x="94" y="203" fill="#333">en.wikipedia.org/…/index.php?title=Laser_tag</text>
<text x="377" y="203" fill="#999" font-size="10">[d2 ~ complete]</text>
<circle cx="77" cy="225" r="9" fill="#e2e2e2" stroke="#999999" stroke-width="2"/>
<text x="94" y="229" fill="#333">usustatesman.com/…/column-laser-tag-not-just</text>
<text x="377" y="229" fill="#999" font-size="10">[~]</text>
<circle cx="77" cy="251" r="9" fill="#e2e2e2" stroke="#999999" stroke-width="2"/>
<text x="94" y="255" fill="#333">laserblast.com/…/4-innovations-that-changed-</text>
<text x="377" y="255" fill="#999" font-size="10">[~]</text>
<circle cx="77" cy="277" r="9" fill="#f0c47a" stroke="#d08a2c" stroke-width="2"/>
<text x="94" y="281" fill="#333">usustatesman.com/…/column-laser-tag-not-just</text>
<text x="377" y="281" fill="#999" font-size="10">[saved note]</text>
<circle cx="77" cy="303" r="9" fill="#f0c47a" stroke="#d08a2c" stroke-width="2"/>
<text x="94" y="307" fill="#333">www.retroist.com/p/lazer-tag-changes-a-man</text>
<text x="364" y="307" fill="#999" font-size="10">[saved note]</text>
<circle cx="77" cy="329" r="9" fill="#e2e2e2" stroke="#999999" stroke-width="2"/>
<text x="94" y="333" fill="#333">www.mainevent.com/…/the-history-of-laser-tag</text>
<text x="377" y="333" fill="#999" font-size="10">[×]</text>
<circle cx="77" cy="355" r="9" fill="#e2e2e2" stroke="#999999" stroke-width="2"/>
<text x="94" y="359" fill="#333">www.whitehutchinson.com/…/future-of-laser-ta</text>
<text x="377" y="359" fill="#999" font-size="10">[~]</text>
<circle cx="51" cy="381" r="9" fill="#8fb8de" stroke="#2f6fb0" stroke-width="2"/>
<text x="68" y="385" fill="#333">"laser tag" "Word Count: 4,000" 2020</text>
<circle cx="51" cy="407" r="9" fill="#8fb8de" stroke="#2f6fb0" stroke-width="2"/>
<text x="68" y="411" fill="#333">"laser tag" "word count" 4000</text>
<circle cx="77" cy="433" r="9" fill="#e2e2e2" stroke="#999999" stroke-width="2"/>
<text x="94" y="437" fill="#333">www.facebook.com/…/61578993005437/posts/a-li</text>
<text x="377" y="437" fill="#999" font-size="10">[~]</text>
<circle cx="77" cy="459" r="9" fill="#e2e2e2" stroke="#999999" stroke-width="2"/>
<text x="94" y="463" fill="#333">www.studocu.com/…/38424748</text>
<text x="265" y="463" fill="#999" font-size="10">[~]</text>
<circle cx="77" cy="485" r="9" fill="#f0c47a" stroke="#d08a2c" stroke-width="2"/>
<text x="94" y="489" fill="#333">usustatesman.com/…/column-laser-tag-not-just</text>
<text x="377" y="489" fill="#999" font-size="10">[saved note]</text>
<circle cx="77" cy="511" r="9" fill="#e2e2e2" stroke="#999999" stroke-width="2"/>
<text x="94" y="515" fill="#333">mabel.wwu.edu/…/wfhc_2014_0207_Western-Front</text>
<text x="377" y="515" fill="#999" font-size="10">[~]</text>
<circle cx="77" cy="537" r="9" fill="#e2e2e2" stroke="#999999" stroke-width="2"/>
<text x="94" y="541" fill="#333">www.facebook.com/…/StJohnsAnglicanCollegeFor</text>
<text x="377" y="541" fill="#999" font-size="10">[~]</text>
<circle cx="51" cy="563" r="9" fill="#8fb8de" stroke="#2f6fb0" stroke-width="2"/>
<text x="68" y="567" fill="#333">laser tag difficulty varies by target 2008</text>
<circle cx="77" cy="589" r="9" fill="#e2e2e2" stroke="#999999" stroke-width="2"/>
<text x="94" y="593" fill="#333">laserwar.com/…/laser-tag-shooting-range-wild</text>
<text x="377" y="593" fill="#999" font-size="10">[~]</text>
<circle cx="77" cy="615" r="9" fill="#e2e2e2" stroke="#999999" stroke-width="2"/>
<text x="94" y="619" fill="#333">www.alleycatsbowl.com/…/everything-you-need-</text>
<text x="377" y="619" fill="#999" font-size="10">[×]</text>
<circle cx="77" cy="641" r="9" fill="#e2e2e2" stroke="#999999" stroke-width="2"/>
<text x="94" y="645" fill="#333">www.steradiantech.com/info/beginners-guide</text>
<text x="364" y="645" fill="#999" font-size="10">[~]</text>
<circle cx="77" cy="667" r="9" fill="#e2e2e2" stroke="#999999" stroke-width="2"/>
<text x="94" y="671" fill="#333">www.activekidzlongisland.com/…/how-does-lase</text>
<text x="377" y="671" fill="#999" font-size="10">[~]</text>
<circle cx="51" cy="693" r="9" fill="#8fb8de" stroke="#2f6fb0" stroke-width="2"/>
<text x="68" y="697" fill="#333">"laser tag" "college" "faculty" 4000 words</text>
<circle cx="77" cy="719" r="9" fill="#e2e2e2" stroke="#999999" stroke-width="2"/>
<text x="94" y="723" fill="#333">search.proquest.com/…/1?pq-origsite=gscholar</text>
<text x="377" y="723" fill="#999" font-size="10">[~]</text>
<circle cx="77" cy="745" r="9" fill="#e2e2e2" stroke="#999999" stroke-width="2"/>
<text x="94" y="749" fill="#333">www.nelson.edu/…/UndergraduateCatalog_26-27.</text>
<text x="377" y="749" fill="#999" font-size="10">[~]</text>
<circle cx="77" cy="771" r="9" fill="#e2e2e2" stroke="#999999" stroke-width="2"/>
<text x="94" y="775" fill="#333">www.ou.edu/…/faculty-tribute-2021.html</text>
<text x="340" y="775" fill="#999" font-size="10">[~]</text>
<circle cx="77" cy="797" r="9" fill="#f0c47a" stroke="#d08a2c" stroke-width="2"/>
<text x="94" y="801" fill="#333">www.retroist.com/p/lazer-tag-changes-a-man</text>
<text x="364" y="801" fill="#999" font-size="10">[saved note]</text>
<circle cx="77" cy="823" r="9" fill="#f0c47a" stroke="#c0392b" stroke-width="3"/>
<text x="94" y="827" fill="#333">en.wikipedia.org/wiki/Laser_tag</text>
<text x="296" y="827" fill="#999" font-size="10">[saved note]</text>
<circle cx="51" cy="849" r="9" fill="#8fb8de" stroke="#2f6fb0" stroke-width="2"/>
<text x="68" y="853" fill="#333">"Laser tag" "4,000" 2009 "college"</text>
<circle cx="77" cy="875" r="9" fill="#e2e2e2" stroke="#999999" stroke-width="2"/>
<text x="94" y="879" fill="#333">www.taylor.edu/…/stefan-brandle.pdf</text>
<text x="321" y="879" fill="#999" font-size="10">[~]</text>
<circle cx="51" cy="901" r="9" fill="#8fb8de" stroke="#2f6fb0" stroke-width="2"/>
<text x="68" y="905" fill="#333">"Field Guide to Laser Tag" author" 1975"</text>
<circle cx="51" cy="927" r="9" fill="#8fb8de" stroke="#2f6fb0" stroke-width="2"/>
<text x="68" y="931" fill="#333">"Field guide to laser tag" 4000 words</text>
<circle cx="51" cy="953" r="9" fill="#8fb8de" stroke="#2f6fb0" stroke-width="2"/>
<text x="68" y="957" fill="#333">"Field Guide to Laser Tag" author" biographic…</text>
<circle cx="51" cy="979" r="9" fill="#8fb8de" stroke="#2f6fb0" stroke-width="2"/>
<text x="68" y="983" fill="#333">"laser tag" "3900" "word" 2016</text>
<circle cx="77" cy="1005" r="9" fill="#e2e2e2" stroke="#999999" stroke-width="2"/>
<text x="94" y="1009" fill="#333">online.encodeplus.com/…/doc-viewer.aspx?seci</text>
<text x="377" y="1009" fill="#999" font-size="10">[~]</text>
<circle cx="77" cy="1031" r="9" fill="#e2e2e2" stroke="#999999" stroke-width="2"/>
<text x="94" y="1035" fill="#333">eastgoshen.org/…/2016-09-20-BOS-Agenda.pdf</text>
<text x="364" y="1035" fill="#999" font-size="10">[~]</text>
<circle cx="77" cy="1057" r="9" fill="#f0c47a" stroke="#c0392b" stroke-width="3"/>
<text x="94" y="1061" fill="#333">www.alleycatsbowl.com/…/everything-you-need-</text>
<text x="377" y="1061" fill="#999" font-size="10">[saved note]</text>
<circle cx="77" cy="1083" r="9" fill="#f0c47a" stroke="#d08a2c" stroke-width="2"/>
<text x="94" y="1087" fill="#333">usustatesman.com/…/column-laser-tag-not-just</text>
<text x="377" y="1087" fill="#999" font-size="10">[saved note]</text>
</svg>