<svg xmlns="http://www.w3.org/2000/svg" width="695" height="1740" viewBox="0 0 695 1740" font-family="monospace" font-size="11">
<rect width="695" height="1740" fill="#fbfbfb"/>
<text x="16" y="17" font-size="13" fill="#222">q · A certain disease is discussed in the two paragraphs below. Each paragraph refe…</text>
<text x="16" y="33" fill="#777">depthsearch · searches 10 · fetches 0 · expansion 12 · depth 3 · finalized</text>
<circle cx="18" cy="49" r="5" fill="#8fb8de" stroke="#2f6fb0" stroke-width="2"/><text x="27" y="53" fill="#888" font-size="10">search</text><circle cx="77.6" cy="49" r="5" fill="#8fd6ab" stroke="#2e8b57" stroke-width="2"/><text x="86.6" y="53" fill="#888" font-size="10">fetch</text><circle cx="131.6" cy="49" r="5" fill="#f0c47a" stroke="#d08a2c" stroke-width="2"/><text x="140.6" y="53" fill="#888" font-size="10">expand d>=2</text><circle cx="219.2" cy="49" r="5" fill="#e2e2e2" stroke="#999999" stroke-width="2"/><text x="228.2" y="53" fill="#888" font-size="10">auto doc</text><circle cx="290" cy="49" r="5" fill="#fff" stroke="#c0392b" stroke-width="2"/><text x="299" y="53" fill="#888" font-size="10">failed / refused</text>
<path d="M25 78 V1577" fill="none" stroke="#c8c8c8" stroke-width="1"/>
<path d="M25 95 H42" fill="none" stroke="#c8c8c8" stroke-width="1"/>
<path d="M25 251 H42" fill="none" stroke="#c8c8c8" stroke-width="1"/>
<path d="M25 277 H42" fill="none" stroke="#c8c8c8" stroke-width="1"/>
<path d="M25 459 H42" fill="none" stroke="#c8c8c8" stroke-width="1"/>
<path d="M25 641 H42" fill="none" stroke="#c8c8c8" stroke-width="1"/>
<path d="M25 927 H42" fill="none" stroke="#c8c8c8" stroke-width="1"/>
<path d="M25 1161 H42" fill="none" stroke="#c8c8c8" stroke-width="1"/>
<path d="M25 1239 H42" fill="none" stroke="#c8c8c8" stroke-width="1"/>
<path d="M25 1343 H42" fill="none" stroke="#c8c8c8" stroke-width="1"/>
<path d="M25 1577 H42" fill="none" stroke="#c8c8c8" stroke-width="1"/>
<path d="M51 104 V225" fill="none" stroke="#c8c8c8" stroke-width="1"/>
<path d="M51 121 H68" fill="none" stroke="#c8c8c8" stroke-width="1"/>
<path d="M51 147 H68" fill="none" stroke="#c8c8c8" stroke-width="1"/>
<path d="M51 173 H68" fill="none" stroke="#c8c8c8" stroke-width="1"/>
<path d="M51 199 H68" fill="none" stroke="#c8c8c8" stroke-width="1"/>
<path d="M51 225 H68" fill="none" stroke="#c8c8c8" stroke-width="1"/>
<path d="M51 286 V433" fill="none" stroke="#c8c8c8" stroke-width="1"/>
<path d="M51 303 H68" fill="none" stroke="#c8c8c8" stroke-width="1"/>
<path d="M51 329 H68" fill="none" stroke="#c8c8c8" stroke-width="1"/>
<path d="M51 355 H68" fill="none" stroke="#c8c8c8" stroke-width="1"/>
<path d="M51 381 H68" fill="none" stroke="#c8c8c8" stroke-width="1"/>
<path d="M51 407 H68" fill="none" stroke="#c8c8c8" stroke-width="1"/>
<path d="M51 433 H68" fill="none" stroke="#c8c8c8" stroke-width="1"/>
<path d="M51 468 V615" fill="none" stroke="#c8c8c8" stroke-width="1"/>
<path d="M51 485 H68" fill="none" stroke="#c8c8c8" stroke-width="1"/>
<path d="M51 511 H68" fill="none" stroke="#c8c8c8" stroke-width="1"/>
<path d="M51 537 H68" fill="none" stroke="#c8c8c8" stroke-width="1"/>
<path d="M51 563 H68" fill="none" stroke="#c8c8c8" stroke-width="1"/>
<path d="M51 589 H68" fill="none" stroke="#c8c8c8" stroke-width="1"/>
<path d="M51 615 H68" fill="none" stroke="#c8c8c8" stroke-width="1"/>
<path d="M51 650 V901" fill="none" stroke="#c8c8c8" stroke-width="1"/>
<path d="M51 667 H68" fill="none" stroke="#c8c8c8" stroke-width="1"/>
<path d="M51 693 H68" fill="none" stroke="#c8c8c8" stroke-width="1"/>
<path d="M51 719 H68" fill="none" stroke="#c8c8c8" stroke-width="1"/>
<path d="M51 745 H68" fill="none" stroke="#c8c8c8" stroke-width="1"/>
<path d="M51 771 H68" fill="none" stroke="#c8c8c8" stroke-width="1"/>
<path d="M51 797 H68" fill="none" stroke="#c8c8c8" stroke-width="1"/>
<path d="M51 823 H68" fill="none" stroke="#c8c8c8" stroke-width="1"/>
<path d="M51 849 H68" fill="none" stroke="#c8c8c8" stroke-width="1"/>
<path d="M51 875 H68" fill="none" stroke="#c8c8c8" stroke-width="1"/>
<path d="M51 901 H68" fill="none" stroke="#c8c8c8" stroke-width="1"/>
<path d="M51 936 V1135" fill="none" stroke="#c8c8c8" stroke-width="1"/>
<path d="M51 953 H68" fill="none" stroke="#c8c8c8" stroke-width="1"/>
<path d="M51 979 H68" fill="none" stroke="#c8c8c8" stroke-width="1"/>
<path d="M51 1005 H68" fill="none" stroke="#c8c8c8" stroke-width="1"/>
<path d="M51 1031 H68" fill="none" stroke="#c8c8c8" stroke-width="1"/>
<path d="M51 1109 H68" fill="none" stroke="#c8c8c8" stroke-width="1"/>
<path d="M51 1135 H68" fill="none" stroke="#c8c8c8" stroke-width="1"/>
<path d="M77 1040 V1083" fill="none" stroke="#c8c8c8" stroke-width="1"/>
<path d="M77 1057 H94" fill="none" stroke="#c8c8c8" stroke-width="1"/>
<path d="M77 1083 H94" fill="none" stroke="#c8c8c8" stroke-width="1"/>
<path d="M51 1170 V1213" fill="none" stroke="#c8c8c8" stroke-width="1"/>
<path d="M51 1187 H68" fill="none" stroke="#c8c8c8" stroke-width="1"/>
<path d="M51 1213 H68" fill="none" stroke="#c8c8c8" stroke-width="1"/>
<path d="M51 1248 V1317" fill="none" stroke="#c8c8c8" stroke-width="1"/>
<path d="M51 1265 H68" fill="none" stroke="#c8c8c8" stroke-width="1"/>
<path d="M51 1291 H68" fill="none" stroke="#c8c8c8" stroke-width="1"/>
<path d="M51 1317 H68" fill="none" stroke="#c8c8c8" stroke-width="1"/>
<path d="M51 1352 V1551" fill="none" stroke="#c8c8c8" stroke-width="1"/>
<path d="M51 1369 H68" fill="none" stroke="#c8c8c8" stroke-width="1"/>
<path d="M51 1395 H68" fill="none" stroke="#c8c8c8" stroke-width="1"/>
<path d="M51 1473 H68" fill="none" stroke="#c8c8c8" stroke-width="1"/>
<path d="M51 1499 H68" fill="none" stroke="#c8c8c8" stroke-width="1"/>
<path d="M51 1525 H68" fill="none" stroke="#c8c8c8" stroke-width="1"/>
<path d="M51 1551 H68" fill="none" stroke="#c8c8c8" stroke-width="1"/>
<path d="M77 1404 V1447" fill="none" stroke="#c8c8c8" stroke-width="1"/>
<path d="M77 1421 H94" fill="none" stroke="#c8c8c8" stroke-width="1"/>
<path d="M77 1447 H94" fill="none" stroke="#c8c8c8" stroke-width="1"/>
<path d="M51 1586 V1707" fill="none" stroke="#c8c8c8" stroke-width="1"/>
<path d="M51 1603 H68" fill="none" stroke="#c8c8c8" stroke-width="1"/>
<path d="M51 1629 H68" fill="none" stroke="#c8c8c8" stroke-width="1"/>
<path d="M51 1655 H68" fill="none" stroke="#c8c8c8" stroke-width="1"/>
<path d="M51 1681 H68" fill="none" stroke="#c8c8c8" stroke-width="1"/>
<path d="M51 1707 H68" fill="none" stroke="#c8c8c8" stroke-width="1"/>
<circle cx="25" cy="69" r="9" fill="#d9d9d9" stroke="#666666" stroke-width="2"/>
<text x="42" y="73" fill="#333">A certain disease is discussed in the two paragraphs below.…</text>
<circle cx="51" cy="95" r="9" fill="#8fb8de" stroke="#2f6fb0" stroke-width="2"/>
<text x="68" y="99" fill="#333">747 CE burning patients disease 747 disease b…</text>
<circle cx="77" cy="121" r="9" fill="#e2e2e2" stroke="#999999" stroke-width="2"/>
<text x="94" y="125" fill="#333">orxwzy23l.offshoreenergycluster.be/</text>
<text x="321" y="125" fill="#999" font-size="10">[×]</text>
<circle cx="77" cy="147" r="9" fill="#e2e2e2" stroke="#999999" stroke-width="2"/>
<text x="94" y="151" fill="#333">imxgjvix9y3-stylesheet.cafuchico.de/</text>
<text x="327" y="151" fill="#999" font-size="10">[~]</text>
<circle cx="77" cy="173" r="9" fill="#e2e2e2" stroke="#999999" stroke-width="2"/>
<text x="94" y="177" fill="#333">00myw5uw7.nume.lt/polis/</text>
<text x="253" y="177" fill="#999" font-size="10">[~]</text>
<circle cx="77" cy="199" r="9" fill="#e2e2e2" stroke="#999999" stroke-width="2"/>
<text x="94" y="203" fill="#333">01zlks4glk-embed-src.anpi-costazzurra.fr/…/n</text>
<text x="377" y="203" fill="#999" font-size="10">[~]</text>
<circle cx="77" cy="225" r="9" fill="#e2e2e2" stroke="#999999" stroke-width="2"/>
<text x="94" y="229" fill="#333">pmc.ncbi.nlm.nih.gov/articles/PMC5108221/</text>
<text x="358" y="229" fill="#999" font-size="10">[~]</text>
<circle cx="51" cy="251" r="9" fill="#8fb8de" stroke="#2f6fb0" stroke-width="2"/>
<text x="68" y="255" fill="#333">747 CE leprosy ruler burned patients died bef…</text>
<circle cx="51" cy="277" r="9" fill="#8fb8de" stroke="#2f6fb0" stroke-width="2"/>
<text x="68" y="281" fill="#333">"747" leprosy 747 emperor burning patients"</text>
<circle cx="77" cy="303" r="9" fill="#e2e2e2" stroke="#999999" stroke-width="2"/>
<text x="94" y="307" fill="#333">lsentretien.fr/…/not%C3%ADcia-travel-justice</text>
<text x="377" y="307" fill="#999" font-size="10">[~]</text>
<circle cx="77" cy="329" r="9" fill="#e2e2e2" stroke="#999999" stroke-width="2"/>
<text x="94" y="333" fill="#333">77hu73mwl8g-embed-src.santjustdesvern.cat/…/</text>
<text x="377" y="333" fill="#999" font-size="10">[~]</text>
<circle cx="77" cy="355" r="9" fill="#e2e2e2" stroke="#999999" stroke-width="2"/>
<text x="94" y="359" fill="#333">sante-equilibre.ch/eu/data/live/z5v724ryhg</text>
<text x="364" y="359" fill="#999" font-size="10">[~]</text>
<circle cx="77" cy="381" r="9" fill="#e2e2e2" stroke="#999999" stroke-width="2"/>
<text x="94" y="385" fill="#333">diefrechen.de/…/senate-namuyaba-rikekori</text>
<text x="352" y="385" fill="#999" font-size="10">[~]</text>
<circle cx="77" cy="407" r="9" fill="#e2e2e2" stroke="#999999" stroke-width="2"/>
<text x="94" y="411" fill="#333">physio-laub.de/…/es/news/articles/xnysnq6rhw</text>
<text x="377" y="411" fill="#999" font-size="10">[~]</text>
<circle cx="77" cy="433" r="9" fill="#e2e2e2" stroke="#999999" stroke-width="2"/>
<text x="94" y="437" fill="#333">lsentretien.fr/…/rali-airline-kane-chemistry</text>
<text x="377" y="437" fill="#999" font-size="10">[~]</text>
<circle cx="51" cy="459" r="9" fill="#8fb8de" stroke="#2f6fb0" stroke-width="2"/>
<text x="68" y="463" fill="#333">"747" leprosy 747 CE</text>
<circle cx="77" cy="485" r="9" fill="#e2e2e2" stroke="#999999" stroke-width="2"/>
<text x="94" y="489" fill="#333">mr9bwlc.massage4you.com.pl/</text>
<text x="271" y="489" fill="#999" font-size="10">[~]</text>
<circle cx="77" cy="511" r="9" fill="#e2e2e2" stroke="#999999" stroke-width="2"/>
<text x="94" y="515" fill="#333">lsentretien.fr/…/e4xvc0</text>
<text x="247" y="515" fill="#999" font-size="10">[×]</text>
<circle cx="77" cy="537" r="9" fill="#e2e2e2" stroke="#999999" stroke-width="2"/>
<text x="94" y="541" fill="#333">lafeevertepaysagiste.fr/…/9qmxvoq7p712</text>
<text x="340" y="541" fill="#999" font-size="10">[~]</text>
<circle cx="77" cy="563" r="9" fill="#e2e2e2" stroke="#999999" stroke-width="2"/>
<text x="94" y="567" fill="#333">lsentretien.fr/…/cinema-yasishazen</text>
<text x="315" y="567" fill="#999" font-size="10">[×]</text>
<circle cx="77" cy="589" r="9" fill="#e2e2e2" stroke="#999999" stroke-width="2"/>
<text x="94" y="593" fill="#333">lsentretien.fr/…/science-boxing-kolopa</text>
<text x="340" y="593" fill="#999" font-size="10">[~]</text>
<circle cx="77" cy="615" r="9" fill="#e2e2e2" stroke="#999999" stroke-width="2"/>
<text x="94" y="619" fill="#333">lsentretien.fr/…/interview-mundo-exploration</text>
<text x="377" y="619" fill="#999" font-size="10">[~]</text>
<circle cx="51" cy="641" r="9" fill="#8fb8de" stroke="#2f6fb0" stroke-width="2"/>
<text x="68" y="645" fill="#333">747 AD leprosy Yemen ruler burned patients 747</text>
<circle cx="77" cy="667" r="9" fill="#e2e2e2" stroke="#999999" stroke-width="2"/>
<text x="94" y="671" fill="#333">www.leprosymission.org/…/what-is-leprosy/the</text>
<text x="377" y="671" fill="#999" font-size="10">[~]</text>
<circle cx="77" cy="693" r="9" fill="#f0c47a" stroke="#d08a2c" stroke-width="2"/>
<text x="94" y="697" fill="#333">www.leprosymission.org/about-us/history/</text>
<text x="352" y="697" fill="#999" font-size="10">[d2 ~ complete]</text>
<circle cx="77" cy="719" r="9" fill="#f0c47a" stroke="#d08a2c" stroke-width="2"/>
<text x="94" y="723" fill="#333">www.leprosymission.org/…/our-work/healthcare</text>
<text x="377" y="723" fill="#999" font-size="10">[d2 ~ complete]</text>
<circle cx="77" cy="745" r="9" fill="#e2e2e2" stroke="#999999" stroke-width="2"/>
<text x="94" y="749" fill="#333">newhistories.sites.sheffield.ac.uk/…/the-laz</text>
<text x="377" y="749" fill="#999" font-size="10">[~]</text>
<circle cx="77" cy="771" r="9" fill="#f0c47a" stroke="#d08a2c" stroke-width="2"/>
<text x="94" y="775" fill="#333">newhistories.sites.sheffield.ac.uk/</text>
<text x="321" y="775" fill="#999" font-size="10">[d2 ~ complete]</text>
<circle cx="77" cy="797" r="9" fill="#f0c47a" stroke="#d08a2c" stroke-width="2"/>
<text x="94" y="801" fill="#333">newhistories.sites.sheffield.ac.uk/</text>
<text x="321" y="801" fill="#999" font-size="10">[saved note]</text>
<circle cx="77" cy="823" r="9" fill="#f0c47a" stroke="#d08a2c" stroke-width="2"/>
<text x="94" y="827" fill="#333">newhistories.sites.sheffield.ac.uk/…/issue-3</text>
<text x="377" y="827" fill="#999" font-size="10">[d2 ~ complete]</text>
<circle cx="77" cy="849" r="9" fill="#e2e2e2" stroke="#999999" stroke-width="2"/>
<text x="94" y="853" fill="#333">en.wikipedia.org/wiki/Leprosy</text>
<text x="284" y="853" fill="#999" font-size="10">[~]</text>
<circle cx="77" cy="875" r="9" fill="#f0c47a" stroke="#d08a2c" stroke-width="2"/>
<text x="94" y="879" fill="#333">en.wikipedia.org/wiki/Culion_leper_colony</text>
<text x="358" y="879" fill="#999" font-size="10">[d2 ~ complete]</text>
<circle cx="77" cy="901" r="9" fill="#f0c47a" stroke="#c0392b" stroke-width="3"/>
<text x="94" y="905" fill="#333">en.wikipedia.org/wiki/History_of_leprosy</text>
<text x="352" y="905" fill="#999" font-size="10">[d2 × complete]</text>
<circle cx="51" cy="927" r="9" fill="#8fb8de" stroke="#2f6fb0" stroke-width="2"/>
<text x="68" y="931" fill="#333">"6 a.m. to 12" "4 p.m. to" leprosy hospital</text>
<circle cx="77" cy="953" r="9" fill="#e2e2e2" stroke="#999999" stroke-width="2"/>
<text x="94" y="957" fill="#333">6ynvnzxfi-amphtml.monaudit.fr/</text>
<text x="290" y="957" fill="#999" font-size="10">[~]</text>
<circle cx="77" cy="979" r="9" fill="#e2e2e2" stroke="#999999" stroke-width="2"/>
<text x="94" y="983" fill="#333">lesfrencheese.fr/news/articles/58lgyji1cmnl</text>
<text x="371" y="983" fill="#999" font-size="10">[~]</text>
<circle cx="77" cy="1005" r="9" fill="#f0c47a" stroke="#c0392b" stroke-width="3"/>
<text x="94" y="1009" fill="#333">en.wikipedia.org/wiki/Leprosy</text>
<text x="284" y="1009" fill="#999" font-size="10">[saved note]</text>
<circle cx="77" cy="1031" r="9" fill="#f0c47a" stroke="#c0392b" stroke-width="3"/>
<text x="94" y="1035" fill="#333">en.wikipedia.org/wiki/Leprosy_in_China</text>
<text x="340" y="1035" fill="#999" font-size="10">[d2 ~ partial_failure]</text>
<circle cx="103" cy="1057" r="9" fill="#f0c47a" stroke="#d08a2c" stroke-width="2"/>
<text x="120" y="1061" fill="#333">en.wikipedia.org/…/index.php?title=Leprosy_i</text>
<text x="403" y="1061" fill="#999" font-size="10">[d3 ~ complete]</text>
<circle cx="103" cy="1083" r="9" fill="#f0c47a" stroke="#c0392b" stroke-width="3"/>
<text x="120" y="1087" fill="#333">en.wikipedia.org/wiki/Leprosy</text>
<text x="310" y="1087" fill="#999" font-size="10">[saved note]</text>
<circle cx="77" cy="1109" r="9" fill="#e2e2e2" stroke="#999999" stroke-width="2"/>
<text x="94" y="1113" fill="#333">geasabbigliamento.it/…/7y2065</text>
<text x="284" y="1113" fill="#999" font-size="10">[~]</text>
<circle cx="77" cy="1135" r="9" fill="#e2e2e2" stroke="#999999" stroke-width="2"/>
<text x="94" y="1139" fill="#333">geasabbigliamento.it/…/bureaus-offices/under</text>
<text x="377" y="1139" fill="#999" font-size="10">[~]</text>
<circle cx="51" cy="1161" r="9" fill="#8fb8de" stroke="#2f6fb0" stroke-width="2"/>
<text x="68" y="1165" fill="#333">"400" "leprosy" "189" hospital</text>
<circle cx="77" cy="1187" r="9" fill="#e2e2e2" stroke="#999999" stroke-width="2"/>
<text x="94" y="1191" fill="#333">www.ijl.org.in/…/3_Abst_(Special_selective)1</text>
<text x="377" y="1191" fill="#999" font-size="10">[~]</text>
<circle cx="77" cy="1213" r="9" fill="#e2e2e2" stroke="#999999" stroke-width="2"/>
<text x="94" y="1217" fill="#333">internationaltextbookofleprosy.com/…/epidemi</text>
<text x="377" y="1217" fill="#999" font-size="10">[~]</text>
<circle cx="51" cy="1239" r="9" fill="#8fb8de" stroke="#2f6fb0" stroke-width="2"/>
<text x="68" y="1243" fill="#333">"6 a.m." "12 noon" "4 p.m." "6 p.m." "leprosy…</text>
<circle cx="77" cy="1265" r="9" fill="#e2e2e2" stroke="#999999" stroke-width="2"/>
<text x="94" y="1269" fill="#333">latelierdemailys.fr/…/?srsltid=AU7gw4VJmUUJL</text>
<text x="377" y="1269" fill="#999" font-size="10">[×]</text>
<circle cx="77" cy="1291" r="9" fill="#e2e2e2" stroke="#999999" stroke-width="2"/>
<text x="94" y="1295" fill="#333">sarahterrier.fr/…/markets-pol%C3%ADtica-bank</text>
<text x="377" y="1295" fill="#999" font-size="10">[×]</text>
<circle cx="77" cy="1317" r="9" fill="#e2e2e2" stroke="#999999" stroke-width="2"/>
<text x="94" y="1321" fill="#333">hd8foycrdvg-embed-src.endcrystal.es/…/s-3060</text>
<text x="377" y="1321" fill="#999" font-size="10">[×]</text>
<circle cx="51" cy="1343" r="9" fill="#8fb8de" stroke="#2f6fb0" stroke-width="2"/>
<text x="68" y="1347" fill="#333">Culion leprosy hospital 1898 deaths</text>
<circle cx="77" cy="1369" r="9" fill="#e2e2e2" stroke="#999999" stroke-width="2"/>
<text x="94" y="1373" fill="#333">leprosyhistory.org/</text>
<text x="222" y="1373" fill="#999" font-size="10">[~]</text>
<circle cx="77" cy="1395" r="9" fill="#f0c47a" stroke="#d08a2c" stroke-width="2"/>
<text x="94" y="1399" fill="#333">leprosyhistory.org/archive/</text>
<text x="271" y="1399" fill="#999" font-size="10">[d2 ~ complete]</text>
<circle cx="103" cy="1421" r="9" fill="#f0c47a" stroke="#d08a2c" stroke-width="2"/>
<text x="120" y="1425" fill="#333">leprosyhistory.org/archive/archive1/?</text>
<text x="359" y="1425" fill="#999" font-size="10">[d3 ~ complete]</text>
<circle cx="103" cy="1447" r="9" fill="#f0c47a" stroke="#d08a2c" stroke-width="2"/>
<text x="120" y="1451" fill="#333">leprosyhistory.org/archive/archive435/?</text>
<text x="372" y="1451" fill="#999" font-size="10">[d3 ~ complete]</text>
<circle cx="77" cy="1473" r="9" fill="#f0c47a" stroke="#d08a2c" stroke-width="2"/>
<text x="94" y="1477" fill="#333">leprosyhistory.org/archive/archive645/</text>
<text x="340" y="1477" fill="#999" font-size="10">[d2 ~ complete]</text>
<circle cx="77" cy="1499" r="9" fill="#e2e2e2" stroke="#999999" stroke-width="2"/>
<text x="94" y="1503" fill="#333">www.facebook.com/…/groups/683793122675801/po</text>
<text x="377" y="1503" fill="#999" font-size="10">[~]</text>
<circle cx="77" cy="1525" r="9" fill="#e2e2e2" stroke="#999999" stroke-width="2"/>
<text x="94" y="1529" fill="#333">philippines.michiganintheworld.history.lsa.u</text>
<text x="377" y="1529" fill="#999" font-size="10">[~]</text>
<circle cx="77" cy="1551" r="9" fill="#e2e2e2" stroke="#999999" stroke-width="2"/>
<text x="94" y="1555" fill="#333">www.instagram.com/reel/C-9-psssOHE/</text>
<text x="321" y="1555" fill="#999" font-size="10">[~]</text>
<circle cx="51" cy="1577" r="9" fill="#8fb8de" stroke="#2f6fb0" stroke-width="2"/>
<text x="68" y="1581" fill="#333">Acworth Leprosy Hospital 1890 400 patients</text>
<circle cx="77" cy="1603" r="9" fill="#e2e2e2" stroke="#999999" stroke-width="2"/>
<text x="94" y="1607" fill="#333">en.wikipedia.org/…/Acworth_Municipal_Hospita</text>
<text x="377" y="1607" fill="#999" font-size="10">[~]</text>
<circle cx="77" cy="1629" r="9" fill="#e2e2e2" stroke="#999999" stroke-width="2"/>
<text x="94" y="1633" fill="#333">www.scribd.com/…/Acworth-Leprosy-Hospital-De</text>
<text x="377" y="1633" fill="#999" font-size="10">[~]</text>
<circle cx="77" cy="1655" r="9" fill="#e2e2e2" stroke="#999999" stroke-width="2"/>
<text x="94" y="1659" fill="#333">historicalhospitals.com/…/patients-of-the-co</text>
<text x="377" y="1659" fill="#999" font-size="10">[~]</text>
<circle cx="77" cy="1681" r="9" fill="#e2e2e2" stroke="#999999" stroke-width="2"/>
<text x="94" y="1685" fill="#333">www.hrsa.gov/hansens-disease/history</text>
<text x="327" y="1685" fill="#999" font-size="10">[~]</text>
<circle cx="77" cy="1707" r="9" fill="#e2e2e2" stroke="#999999" stroke-width="2"/>
<text x="94" y="1711" fill="#333">mistraltms.it/…/horimi-kozen</text>
<text x="278" y="1711" fill="#999" font-size="10">[~]</text>
</svg>